%TF.GenerationSoftware,KiCad,Pcbnew,(5.99.0-9972-g9020611657)*%
%TF.CreationDate,2021-06-01T21:32:07-05:00*%
%TF.ProjectId,ti92revive,74693932-7265-4766-9976-652e6b696361,rev?*%
%TF.SameCoordinates,Original*%
%TF.FileFunction,Copper,L3,Inr*%
%TF.FilePolarity,Positive*%
%FSLAX46Y46*%
G04 Gerber Fmt 4.6, Leading zero omitted, Abs format (unit mm)*
G04 Created by KiCad (PCBNEW (5.99.0-9972-g9020611657)) date 2021-06-01 21:32:07*
%MOMM*%
%LPD*%
G01*
G04 APERTURE LIST*
%TA.AperFunction,ComponentPad*%
%ADD10O,0.850000X0.850000*%
%TD*%
%TA.AperFunction,ComponentPad*%
%ADD11R,0.850000X0.850000*%
%TD*%
%TA.AperFunction,ComponentPad*%
%ADD12R,1.700000X1.700000*%
%TD*%
%TA.AperFunction,ComponentPad*%
%ADD13O,1.700000X1.700000*%
%TD*%
%TA.AperFunction,ComponentPad*%
%ADD14O,1.350000X1.700000*%
%TD*%
%TA.AperFunction,ComponentPad*%
%ADD15O,1.100000X1.500000*%
%TD*%
%TA.AperFunction,ComponentPad*%
%ADD16R,1.600000X1.600000*%
%TD*%
%TA.AperFunction,ComponentPad*%
%ADD17C,1.600000*%
%TD*%
%TA.AperFunction,ComponentPad*%
%ADD18C,0.500000*%
%TD*%
%TA.AperFunction,ComponentPad*%
%ADD19C,3.000000*%
%TD*%
%TA.AperFunction,ViaPad*%
%ADD20C,0.300000*%
%TD*%
%TA.AperFunction,ViaPad*%
%ADD21C,0.800000*%
%TD*%
%TA.AperFunction,Conductor*%
%ADD22C,0.250000*%
%TD*%
%TA.AperFunction,Conductor*%
%ADD23C,0.200000*%
%TD*%
%TA.AperFunction,Conductor*%
%ADD24C,0.750000*%
%TD*%
%TA.AperFunction,Conductor*%
%ADD25C,0.700000*%
%TD*%
%TA.AperFunction,Conductor*%
%ADD26C,0.076200*%
%TD*%
%TA.AperFunction,Conductor*%
%ADD27C,0.127000*%
%TD*%
G04 APERTURE END LIST*
D10*
%TO.N,Earth_Clean*%
%TO.C,J8*%
X123200000Y-74800000D03*
D11*
%TO.N,relay_no_b*%
X123200000Y-73800000D03*
%TD*%
D12*
%TO.N,Net-(JP4-Pad1)*%
%TO.C,JP4*%
X247000000Y-68800000D03*
D13*
%TO.N,Net-(JP4-Pad2)*%
X244460000Y-68800000D03*
%TD*%
D14*
%TO.N,Earth_Clean*%
%TO.C,J1*%
X222105000Y-34085000D03*
D15*
X221795000Y-37085000D03*
X216955000Y-37085000D03*
D14*
X216645000Y-34085000D03*
%TD*%
D12*
%TO.N,Net-(R1-Pad2)*%
%TO.C,TH1*%
X68800000Y-68000000D03*
D13*
%TO.N,Earth_Clean*%
X66260000Y-68000000D03*
%TD*%
D16*
%TO.N,Net-(TP25-Pad1)*%
%TO.C,U5*%
X119750000Y-93620000D03*
D17*
%TO.N,SetPowerOFF*%
X119750000Y-96160000D03*
%TO.N,piWatchDogPin*%
X119750000Y-98700000D03*
%TO.N,Earth_Clean*%
X119750000Y-101240000D03*
%TO.N,Net-(U5-Pad5)*%
X112130000Y-101240000D03*
%TO.N,Net-(R13-Pad1)*%
X112130000Y-98700000D03*
%TO.N,SetPowerON*%
X112130000Y-96160000D03*
%TO.N,batCell+*%
X112130000Y-93620000D03*
%TD*%
D12*
%TO.N,batCell+*%
%TO.C,J2*%
X69400000Y-57200000D03*
D13*
%TO.N,Earth_Clean*%
X66860000Y-57200000D03*
%TD*%
D18*
%TO.N,N/C*%
%TO.C,U3*%
X134425000Y-90000000D03*
X135400000Y-90000000D03*
X135400000Y-89025000D03*
X134425000Y-89025000D03*
X136375000Y-90975000D03*
X136375000Y-89025000D03*
X135400000Y-90975000D03*
X134425000Y-90975000D03*
X136375000Y-90000000D03*
%TD*%
D16*
%TO.N,+5*%
%TO.C,J4*%
X94900000Y-45590000D03*
D17*
%TO.N,Net-(J4-Pad2)*%
X97400000Y-45590000D03*
%TO.N,Net-(J4-Pad3)*%
X99400000Y-45590000D03*
%TO.N,Earth_Clean*%
X101900000Y-45590000D03*
D19*
X91830000Y-42880000D03*
X104970000Y-42880000D03*
%TD*%
D18*
%TO.N,Earth_Clean*%
%TO.C,U7*%
X111500000Y-60500000D03*
X117500000Y-61500000D03*
X116500000Y-64500000D03*
X112500000Y-60500000D03*
X112500000Y-65500000D03*
X111500000Y-61500000D03*
X115500000Y-67500000D03*
X116500000Y-63500000D03*
X112500000Y-61500000D03*
X113500000Y-64500000D03*
X113500000Y-67500000D03*
X117500000Y-62500000D03*
X115500000Y-63500000D03*
X110500000Y-62500000D03*
X116500000Y-61500000D03*
X111500000Y-64500000D03*
X114500000Y-60500000D03*
X111500000Y-66500000D03*
X111500000Y-63500000D03*
X116500000Y-67500000D03*
X113500000Y-63500000D03*
X115500000Y-66500000D03*
X110500000Y-66500000D03*
X117500000Y-64500000D03*
X112500000Y-63500000D03*
X112500000Y-67500000D03*
X116500000Y-66500000D03*
X115500000Y-60500000D03*
X113500000Y-65500000D03*
X111500000Y-65500000D03*
X110500000Y-67500000D03*
X112500000Y-62500000D03*
X113500000Y-61500000D03*
X115500000Y-65500000D03*
X110500000Y-63500000D03*
X113500000Y-60500000D03*
X114500000Y-66500000D03*
X117500000Y-66500000D03*
X114500000Y-65500000D03*
X111500000Y-67500000D03*
X110500000Y-61500000D03*
X113500000Y-62500000D03*
X114500000Y-64500000D03*
X117500000Y-60500000D03*
X114500000Y-63500000D03*
X114500000Y-67500000D03*
X112500000Y-64500000D03*
X112500000Y-66500000D03*
X114500000Y-61500000D03*
X113500000Y-66500000D03*
X115500000Y-62500000D03*
X110500000Y-64500000D03*
X115500000Y-61500000D03*
X110500000Y-65500000D03*
X116500000Y-60500000D03*
X111500000Y-62500000D03*
X116500000Y-65500000D03*
X117500000Y-67500000D03*
X117500000Y-63500000D03*
X114500000Y-62500000D03*
X116500000Y-62500000D03*
X115500000Y-64500000D03*
X117500000Y-65500000D03*
X110500000Y-60500000D03*
%TD*%
D12*
%TO.N,BAT+*%
%TO.C,J3*%
X247200000Y-75600000D03*
D13*
%TO.N,batCell+*%
X244660000Y-75600000D03*
%TD*%
D16*
%TO.N,+5*%
%TO.C,J5*%
X112400000Y-45590000D03*
D17*
%TO.N,Net-(J5-Pad2)*%
X114900000Y-45590000D03*
%TO.N,Net-(J5-Pad3)*%
X116900000Y-45590000D03*
%TO.N,Earth_Clean*%
X119400000Y-45590000D03*
D19*
X122470000Y-42880000D03*
X109330000Y-42880000D03*
%TD*%
D20*
%TO.N,Earth_Clean*%
X187200000Y-104200000D03*
X187155000Y-107762500D03*
X169854288Y-98145712D03*
X171600000Y-96600000D03*
D21*
%TO.N,relay_no_b*%
X96000000Y-69800000D03*
%TO.N,HDMI0_CK_N*%
X139570000Y-76200000D03*
%TO.N,HDMI0_CK_P*%
X140460000Y-75110000D03*
%TO.N,HDMI0_TX0_N*%
X141171212Y-74341212D03*
%TO.N,HDMI0_TX0_P*%
X142150000Y-73940000D03*
%TO.N,HDMI0_TX1_N*%
X143280000Y-73110000D03*
%TO.N,HDMI0_TX1_P*%
X144070000Y-72390000D03*
%TO.N,HDMI0_TX2_N*%
X145000000Y-71590000D03*
%TO.N,col9*%
X227600000Y-85800000D03*
X125600000Y-145400000D03*
X225000000Y-108000000D03*
X153600000Y-136200000D03*
X183800000Y-134200000D03*
X183800000Y-137000000D03*
X225200000Y-74800000D03*
X207800000Y-126400000D03*
X224600000Y-125600000D03*
X156800000Y-136200000D03*
X153600000Y-141725010D03*
X199200000Y-121400000D03*
X226200000Y-119200000D03*
X194250933Y-120450924D03*
%TO.N,col7*%
X226400000Y-106000000D03*
X75600000Y-114200000D03*
X163800000Y-118600000D03*
X214200000Y-105600000D03*
X123800000Y-124000000D03*
X143600000Y-127400000D03*
X223600000Y-133400000D03*
X221200000Y-135000000D03*
X75200000Y-99200000D03*
X210439402Y-105391393D03*
X237000000Y-104200000D03*
X79400000Y-117200000D03*
X154400000Y-130600000D03*
X157200000Y-109000000D03*
%TO.N,col8*%
X170777895Y-106325010D03*
X170200000Y-109074990D03*
X235600000Y-104400000D03*
X175000000Y-119600000D03*
X75600000Y-98200000D03*
X214325010Y-95002163D03*
X113000000Y-106400000D03*
X170601017Y-114674990D03*
X163887340Y-134687340D03*
X156159327Y-129725010D03*
X151200000Y-128200000D03*
%TO.N,col0*%
X123400000Y-117600000D03*
X149000000Y-125400000D03*
X72200000Y-124600000D03*
X238800000Y-91400000D03*
X121000000Y-120000000D03*
X251274990Y-89800000D03*
X247194454Y-133994454D03*
X156600000Y-128800000D03*
X147000000Y-121400000D03*
X137200000Y-114000000D03*
X200000000Y-133200000D03*
X101800000Y-141000000D03*
%TO.N,Net-(D84-Pad2)*%
X101800000Y-78400000D03*
X99912660Y-79687340D03*
%TO.N,Net-(R12-Pad2)*%
X252200000Y-47800000D03*
X208718838Y-53871126D03*
%TO.N,+5*%
X133600000Y-121800000D03*
X129612660Y-71187340D03*
X136680578Y-57874990D03*
X134600000Y-48400000D03*
X130200000Y-67525010D03*
X143462500Y-63400000D03*
X223587340Y-42587340D03*
X187200000Y-53600000D03*
X194200000Y-73600000D03*
X131600000Y-134000000D03*
%TO.N,Earth_Clean*%
X159600925Y-80820729D03*
X131624959Y-122600000D03*
X247000000Y-41600000D03*
X115400000Y-76200000D03*
X135404116Y-85800000D03*
X87200000Y-51400000D03*
X99500000Y-100500000D03*
X72000000Y-142200000D03*
X86200000Y-81000000D03*
X147420000Y-85020000D03*
X137400000Y-104200000D03*
X108200000Y-75800000D03*
X134194796Y-87050779D03*
X131149990Y-100600000D03*
X141000000Y-54000000D03*
X128000000Y-42800000D03*
X129800000Y-132000000D03*
X149605546Y-51205546D03*
X132950000Y-51550000D03*
X134400000Y-68200000D03*
X146000000Y-96000000D03*
X159800000Y-53400000D03*
%TO.N,SDA*%
X211800000Y-47200000D03*
X138800000Y-90000000D03*
X220000000Y-42400000D03*
X188205582Y-74205582D03*
%TO.N,SCL*%
X215700010Y-44021732D03*
X189331890Y-73360297D03*
X138800000Y-91000000D03*
X224400000Y-45600000D03*
%TO.N,+3.3*%
X225000000Y-43400000D03*
X192809313Y-74408664D03*
X254400000Y-41800000D03*
D20*
X186140000Y-86590000D03*
X190860000Y-76060000D03*
X190080000Y-76090000D03*
D21*
%TO.N,+3.3 High Current*%
X107200000Y-71800000D03*
X105000000Y-68800000D03*
X125600000Y-67000000D03*
X104400000Y-60250000D03*
X88800000Y-59600000D03*
X98400000Y-60200000D03*
X114137536Y-72337531D03*
%TO.N,5vRegulator*%
X140400000Y-63000000D03*
X144400000Y-49200000D03*
%TO.N,Net-(J4-Pad2)*%
X100000000Y-50600000D03*
X105600000Y-67200000D03*
%TO.N,Net-(J5-Pad2)*%
X105674990Y-62800000D03*
%TO.N,row0*%
X87600000Y-94400000D03*
X211600000Y-118400000D03*
X226800000Y-124200000D03*
X202400000Y-117200000D03*
%TO.N,Net-(J5-Pad3)*%
X106400000Y-63800000D03*
%TO.N,Net-(JP4-Pad2)*%
X236200000Y-77000000D03*
X200000000Y-76200000D03*
%TO.N,row4*%
X213686179Y-125274990D03*
X242000000Y-69400000D03*
X210800000Y-133600000D03*
X164400000Y-144200000D03*
X117587340Y-143412660D03*
X225125010Y-116400000D03*
X220800000Y-123400000D03*
X164400000Y-146800000D03*
X210800000Y-141074990D03*
%TO.N,row5*%
X219800000Y-55600000D03*
X125397997Y-127625021D03*
X220800000Y-72400000D03*
X115527796Y-106753116D03*
X200400000Y-95000000D03*
X120200000Y-121400000D03*
X209600000Y-80000000D03*
X221800000Y-86000000D03*
X220800000Y-76274990D03*
X122200000Y-125000000D03*
X197800000Y-94200000D03*
X234000000Y-88600000D03*
X221800000Y-51600000D03*
X207800000Y-75000000D03*
X237000000Y-88400000D03*
X122000000Y-116600000D03*
X210000000Y-92000000D03*
%TO.N,row6*%
X240200000Y-116000000D03*
X246600000Y-112400000D03*
X208200000Y-104800000D03*
X222000000Y-100400000D03*
X247200000Y-103200000D03*
X233800000Y-98600000D03*
X209800000Y-110800000D03*
X209600000Y-132600000D03*
X246200000Y-106800000D03*
X221800000Y-112000000D03*
X221000000Y-107800000D03*
X208000000Y-118800000D03*
X225200000Y-114200000D03*
X234000000Y-111600000D03*
%TO.N,row7*%
X220000000Y-135000000D03*
X127125010Y-129000000D03*
X226000000Y-135400000D03*
X101125010Y-132324835D03*
X223000000Y-135200000D03*
X208000000Y-138600000D03*
X208400000Y-132600000D03*
X220400000Y-138125010D03*
X125224978Y-129942949D03*
%TO.N,Net-(TP14-Pad1)*%
X113400000Y-56400000D03*
X113400000Y-54600000D03*
%TO.N,Net-(D1-Pad2)*%
X252600000Y-37200000D03*
%TO.N,Net-(TP15-Pad1)*%
X114600000Y-56400000D03*
X114600000Y-54600000D03*
%TO.N,BAT+*%
X132200000Y-91000000D03*
X126725010Y-93600000D03*
X112600000Y-87000000D03*
X193000000Y-84600000D03*
X99600000Y-68400000D03*
%TO.N,Net-(C3-Pad1)*%
X132850010Y-88800000D03*
X128400000Y-90000000D03*
%TO.N,piWatchDogPin*%
X188800000Y-65600000D03*
X133400000Y-98600000D03*
%TO.N,+1.8*%
X81200000Y-58600000D03*
X177200000Y-75200000D03*
X174400000Y-60200000D03*
%TO.N,Net-(D81-Pad2)*%
X249000000Y-38600000D03*
%TO.N,Net-(D81-Pad1)*%
X250600000Y-41600000D03*
X148800000Y-88400000D03*
X197200000Y-84600000D03*
X139630377Y-89274990D03*
%TO.N,Net-(R1-Pad2)*%
X135512660Y-97874990D03*
X138909085Y-94916235D03*
X129800000Y-97800000D03*
X87400000Y-84000000D03*
%TO.N,CCVref*%
X195949845Y-85624835D03*
X249000000Y-47400000D03*
%TO.N,!PowerGood*%
X138947414Y-88524990D03*
X140800000Y-88000000D03*
%TO.N,Net-(R4-Pad2)*%
X134600000Y-95000000D03*
X129600000Y-99649990D03*
%TO.N,Net-(R8-Pad2)*%
X135800000Y-95200000D03*
X134450010Y-99587340D03*
%TO.N,Net-(D82-Pad2)*%
X223000000Y-55400000D03*
X228000000Y-39200000D03*
X107400000Y-102800000D03*
X222000000Y-58800000D03*
%TO.N,Net-(C9-Pad1)*%
X145400000Y-45000000D03*
X136200000Y-50400000D03*
%TO.N,Net-(C10-Pad2)*%
X140073726Y-54499990D03*
X141600000Y-58600000D03*
X140200000Y-47200000D03*
X138800000Y-45600000D03*
X141600000Y-48400000D03*
%TO.N,batCell+*%
X97400000Y-57200000D03*
%TO.N,Net-(TP16-Pad1)*%
X122600000Y-64074990D03*
%TO.N,SetPowerOFF*%
X98400000Y-79800000D03*
%TO.N,Net-(U5-Pad5)*%
X96000000Y-104800000D03*
X62000000Y-111000000D03*
%TO.N,col1*%
X200600000Y-101400000D03*
X212000000Y-130600000D03*
X150578453Y-107181604D03*
X198512660Y-113474990D03*
X135187340Y-120987340D03*
X210200000Y-58600000D03*
X204541310Y-115775021D03*
X119600000Y-116000000D03*
X96600000Y-115800000D03*
X214000000Y-50600000D03*
%TO.N,+1*%
X110032191Y-72725010D03*
X113200000Y-72800000D03*
X98600000Y-61400000D03*
X96000000Y-63800000D03*
%TO.N,Net-(TP17-Pad1)*%
X121800000Y-64800000D03*
%TO.N,Net-(TP18-Pad1)*%
X122800000Y-65600000D03*
%TO.N,Net-(TP19-Pad1)*%
X122800000Y-66600000D03*
%TO.N,Net-(TP13-Pad1)*%
X117690000Y-71720000D03*
%TO.N,USB_HOST_N*%
X163800000Y-57949980D03*
X114600000Y-71050002D03*
%TO.N,USB_HOST_P*%
X115624943Y-71400000D03*
X166400000Y-58649990D03*
%TO.N,Net-(TP22-Pad1)*%
X121942937Y-63281277D03*
%TO.N,Net-(D2-Pad1)*%
X243600000Y-41600000D03*
%TO.N,Net-(D4-Pad1)*%
X240000000Y-41400000D03*
%TO.N,Net-(R18-Pad1)*%
X131000000Y-141000000D03*
X131000000Y-138200000D03*
%TO.N,Net-(R20-Pad1)*%
X207000000Y-137800000D03*
X223000000Y-138000000D03*
%TO.N,Net-(R15-Pad1)*%
X88571438Y-75607436D03*
X109000000Y-69800000D03*
%TO.N,Net-(J4-Pad3)*%
X106600000Y-67800000D03*
X100800000Y-49600000D03*
%TO.N,/USB and Keyboard connections/KEYBOARD_USB_DN*%
X133400000Y-119600000D03*
X102600000Y-59400000D03*
%TO.N,/USB and Keyboard connections/KEYBOARD_USB_DP*%
X131400000Y-119600000D03*
X103800000Y-59400000D03*
%TO.N,col3*%
X226499216Y-94274990D03*
X224224979Y-94274990D03*
X236800000Y-131000000D03*
X113200000Y-131200000D03*
X112400000Y-127725010D03*
X152143539Y-135518191D03*
X102600000Y-111600000D03*
X101400000Y-109600000D03*
%TO.N,col5*%
X116000000Y-114200000D03*
X144400000Y-126600000D03*
X162200000Y-115400000D03*
X149200000Y-116800000D03*
X73037423Y-100000000D03*
X213400000Y-75000000D03*
X140200000Y-130600000D03*
X137000000Y-134200000D03*
X119000000Y-114600000D03*
X212000000Y-140600000D03*
X212400000Y-104200000D03*
X212400000Y-120200000D03*
X130800000Y-109200000D03*
X207725010Y-114200000D03*
X142200000Y-128600000D03*
X211600000Y-128800000D03*
X213600000Y-78400000D03*
X138200000Y-114725010D03*
X212000000Y-133600000D03*
X117366633Y-116987759D03*
%TO.N,row1*%
X100400000Y-110600000D03*
X86600000Y-110600000D03*
X73487435Y-110630377D03*
%TO.N,col2*%
X226200000Y-128600000D03*
X138408764Y-125470496D03*
X95800000Y-126000000D03*
X95800000Y-123200000D03*
X200257446Y-59352589D03*
X212400000Y-102000000D03*
%TO.N,col4*%
X222149845Y-136775165D03*
X153812660Y-128787340D03*
X217800000Y-84400000D03*
X114200000Y-108800000D03*
X226400000Y-84400000D03*
X116000000Y-110600000D03*
X239000000Y-104000000D03*
X118800000Y-124600000D03*
X116906349Y-128189075D03*
%TO.N,col6*%
X82600000Y-119000000D03*
X108400000Y-127000000D03*
X74474990Y-110400000D03*
X74200000Y-99400000D03*
X141513348Y-127175010D03*
%TO.N,row3*%
X154600000Y-133200000D03*
X114000000Y-128400000D03*
X191000000Y-135000000D03*
X178000000Y-132600000D03*
X92200000Y-136000000D03*
X164800000Y-132200000D03*
X190948000Y-137074990D03*
X118800000Y-134400000D03*
X111400000Y-139000000D03*
X88200000Y-132000000D03*
X118200000Y-126400000D03*
X111400000Y-133400000D03*
%TO.N,row2*%
X145600000Y-119800000D03*
X124800000Y-125000000D03*
X136600000Y-119400000D03*
X119005850Y-125674990D03*
X181400000Y-130200000D03*
X92667809Y-122725010D03*
X173000000Y-123600000D03*
X80000000Y-120800000D03*
X181400000Y-128024979D03*
X146000000Y-122200000D03*
X150800000Y-124400000D03*
X181200000Y-137074990D03*
D20*
%TO.N,SD_DAT1*%
X184160000Y-86550000D03*
X193830000Y-71500000D03*
%TO.N,SD_DAT0*%
X196030000Y-70310000D03*
X184730000Y-86580000D03*
%TO.N,SD_CLK*%
X185520000Y-86580000D03*
X194150000Y-68750000D03*
%TO.N,SD_CMD*%
X186700000Y-86600000D03*
X192900000Y-70010000D03*
%TO.N,SD_DAT3*%
X196780000Y-69920000D03*
X187230000Y-86630000D03*
%TO.N,SD_DAT2*%
X197138110Y-71500000D03*
X187860000Y-86700000D03*
D21*
%TO.N,HDMI0_CEC*%
X138910000Y-75030000D03*
D20*
X160280000Y-67700000D03*
D21*
%TO.N,HDMI0_HOTPLUG*%
X137540000Y-75890000D03*
D20*
X160170000Y-68220000D03*
D21*
%TO.N,HDMI0_TX2_P*%
X145940000Y-71110000D03*
%TO.N,HDMI0_SDA*%
X137370000Y-86370000D03*
D20*
X153490000Y-83200000D03*
D21*
%TO.N,HDMI0_SCL*%
X138120000Y-85450000D03*
D20*
X151360000Y-84710000D03*
%TD*%
D22*
%TO.N,Earth_Clean*%
X187200000Y-104200000D02*
X187200000Y-107717500D01*
X187200000Y-107717500D02*
X187155000Y-107762500D01*
X171600000Y-96600000D02*
X171400000Y-96600000D01*
X171400000Y-96600000D02*
X169854288Y-98145712D01*
D23*
%TO.N,Net-(R12-Pad2)*%
X252200000Y-47800000D02*
X246200000Y-53800000D01*
X246200000Y-53800000D02*
X208789964Y-53800000D01*
X208789964Y-53800000D02*
X208718838Y-53871126D01*
D24*
%TO.N,Earth_Clean*%
X75308998Y-47600001D02*
X80207018Y-44400000D01*
X127120000Y-42880000D02*
X127120000Y-45920000D01*
X79260000Y-81000000D02*
X86200000Y-81000000D01*
X79260000Y-81000000D02*
X80000000Y-81000000D01*
X88120000Y-42880000D02*
X102320000Y-42880000D01*
X131224959Y-123000000D02*
X131624959Y-122600000D01*
X102320000Y-42880000D02*
X119720000Y-42880000D01*
X102320000Y-42880000D02*
X101900000Y-43300000D01*
X88120000Y-42880000D02*
X91830000Y-42880000D01*
X119400000Y-43200000D02*
X119400000Y-45590000D01*
D25*
X136400000Y-103200000D02*
X137400000Y-104200000D01*
X136400000Y-100600000D02*
X141400000Y-100600000D01*
D24*
X127120000Y-42880000D02*
X154880000Y-42880000D01*
X159800000Y-47800000D02*
X159800000Y-53400000D01*
X132750000Y-51550000D02*
X132950000Y-51550000D01*
D25*
X130400000Y-100600000D02*
X131149990Y-100600000D01*
X125840000Y-101240000D02*
X126480000Y-100600000D01*
D24*
X66260000Y-68000000D02*
X79260000Y-81000000D01*
X80207018Y-44400000D02*
X86600000Y-44400000D01*
X154880000Y-42880000D02*
X159800000Y-47800000D01*
D25*
X136400000Y-100600000D02*
X136400000Y-103200000D01*
D24*
X127120000Y-42880000D02*
X128080000Y-42880000D01*
D25*
X126480000Y-100600000D02*
X130400000Y-100600000D01*
D24*
X66860000Y-67400000D02*
X66260000Y-68000000D01*
X66968999Y-55940000D02*
X75308998Y-47600001D01*
D25*
X130400000Y-100600000D02*
X136400000Y-100600000D01*
D24*
X80000000Y-81000000D02*
X99500000Y-100500000D01*
X66860000Y-55940000D02*
X66968999Y-55940000D01*
D22*
X102260000Y-45590000D02*
X101900000Y-45590000D01*
D24*
X127120000Y-45920000D02*
X132750000Y-51550000D01*
D25*
X141400000Y-100600000D02*
X146000000Y-96000000D01*
D24*
X118800000Y-123000000D02*
X131224959Y-123000000D01*
X86600000Y-44400000D02*
X86600000Y-50800000D01*
D25*
X119750000Y-101240000D02*
X125840000Y-101240000D01*
D24*
X99500000Y-100500000D02*
X118800000Y-119800000D01*
X119720000Y-42880000D02*
X127120000Y-42880000D01*
X66860000Y-57200000D02*
X66860000Y-55940000D01*
X119720000Y-42880000D02*
X119400000Y-43200000D01*
X66860000Y-57200000D02*
X66860000Y-67400000D01*
D22*
X119760000Y-45590000D02*
X119400000Y-45590000D01*
D24*
X86600000Y-44400000D02*
X88120000Y-42880000D01*
X86600000Y-50800000D02*
X87200000Y-51400000D01*
X101900000Y-43300000D02*
X101900000Y-45590000D01*
X118800000Y-119800000D02*
X118800000Y-123000000D01*
D23*
%TO.N,SDA*%
X215000000Y-45600000D02*
X215000000Y-42600000D01*
D22*
X160435363Y-78276879D02*
X184523121Y-78276879D01*
X138800000Y-90000000D02*
X148712225Y-90000000D01*
X184523121Y-78276879D02*
X188205582Y-74594418D01*
X188205582Y-74594418D02*
X188205582Y-74205582D01*
D23*
X215000000Y-42600000D02*
X215200000Y-42400000D01*
X211300000Y-49300000D02*
X215000000Y-45600000D01*
X215200000Y-42400000D02*
X220000000Y-42400000D01*
X211300000Y-49300000D02*
X188205582Y-72394418D01*
X188205582Y-72394418D02*
X188205582Y-74205582D01*
X211300000Y-49300000D02*
X211300000Y-47700000D01*
X211300000Y-47700000D02*
X211800000Y-47200000D01*
D22*
X148712225Y-90000000D02*
X160435363Y-78276879D01*
%TO.N,SCL*%
X184709594Y-78726890D02*
X189331890Y-74104594D01*
X160621762Y-78726890D02*
X184709594Y-78726890D01*
D23*
X193299949Y-67941889D02*
X189331890Y-71909949D01*
D22*
X148348652Y-91000000D02*
X160621762Y-78726890D01*
D23*
X223300000Y-46700000D02*
X224400000Y-45600000D01*
X215700010Y-45899990D02*
X215700010Y-44021732D01*
X214900000Y-46700000D02*
X223300000Y-46700000D01*
X214900000Y-46700000D02*
X215700010Y-45899990D01*
D22*
X138800000Y-91000000D02*
X148348652Y-91000000D01*
D23*
X214900000Y-46700000D02*
X193658111Y-67941889D01*
X193658111Y-67941889D02*
X193299949Y-67941889D01*
X189331890Y-71909949D02*
X189331890Y-73360297D01*
D22*
X189331890Y-74104594D02*
X189331890Y-73360297D01*
D26*
%TO.N,+3.3*%
X186140000Y-80060000D02*
X190080000Y-76120000D01*
X191157977Y-76060000D02*
X190860000Y-76060000D01*
X190080000Y-76120000D02*
X190080000Y-76090000D01*
X186140000Y-86590000D02*
X186140000Y-80060000D01*
X192809313Y-74408664D02*
X191157977Y-76060000D01*
D22*
%TO.N,Net-(J5-Pad2)*%
X114900000Y-45590000D02*
X105674990Y-54815010D01*
X105674990Y-54815010D02*
X105674990Y-62800000D01*
%TO.N,Net-(J5-Pad3)*%
X115774989Y-46715011D02*
X116900000Y-45590000D01*
X106400000Y-63800000D02*
X106400000Y-55200000D01*
X106400000Y-55200000D02*
X114884989Y-46715011D01*
X114884989Y-46715011D02*
X115774989Y-46715011D01*
%TO.N,piWatchDogPin*%
X133300000Y-98700000D02*
X133400000Y-98600000D01*
X119750000Y-98700000D02*
X133300000Y-98700000D01*
%TO.N,+1.8*%
X174400000Y-60200000D02*
X174400000Y-72400000D01*
X174400000Y-72400000D02*
X177200000Y-75200000D01*
%TO.N,Net-(TP16-Pad1)*%
X122674999Y-64149989D02*
X122600000Y-64074990D01*
D23*
%TO.N,USB_HOST_N*%
X114600000Y-71050002D02*
X114864924Y-71050002D01*
X114864924Y-71050002D02*
X120599991Y-65314935D01*
X120599991Y-58434296D02*
X123834287Y-55200000D01*
X165250020Y-59400000D02*
X163800000Y-57949980D01*
X167000000Y-59400000D02*
X165250020Y-59400000D01*
X167000000Y-55200000D02*
X167600000Y-55800000D01*
X123834287Y-55200000D02*
X167000000Y-55200000D01*
X167600000Y-55800000D02*
X167600000Y-58800000D01*
X120599991Y-65314935D02*
X120599991Y-58434296D01*
X167600000Y-58800000D02*
X167000000Y-59400000D01*
%TO.N,USB_HOST_P*%
X115624943Y-70975057D02*
X121000011Y-65599989D01*
X166600010Y-55800010D02*
X167199989Y-56399989D01*
X167199989Y-58600011D02*
X167150010Y-58649990D01*
X167199989Y-56399989D02*
X167199989Y-58600011D01*
X167150010Y-58649990D02*
X166400000Y-58649990D01*
X121000011Y-58599989D02*
X123799990Y-55800010D01*
X121000011Y-65599989D02*
X121000011Y-58599989D01*
X123799990Y-55800010D02*
X166600010Y-55800010D01*
X115624943Y-71400000D02*
X115624943Y-70975057D01*
%TO.N,/USB and Keyboard connections/KEYBOARD_USB_DN*%
X131039994Y-120350011D02*
X133000000Y-120350011D01*
X102600000Y-59400000D02*
X102600000Y-86800000D01*
X102600000Y-86800000D02*
X105000000Y-89200000D01*
X105000000Y-96600000D02*
X111600000Y-103200000D01*
X133400000Y-119950011D02*
X133400000Y-119600000D01*
X133000000Y-120350011D02*
X133400000Y-119950011D01*
X105000000Y-89200000D02*
X105000000Y-96600000D01*
X111600000Y-103200000D02*
X113889983Y-103200000D01*
X113889983Y-103200000D02*
X131039994Y-120350011D01*
%TO.N,/USB and Keyboard connections/KEYBOARD_USB_DP*%
X103800000Y-59400000D02*
X103800000Y-59813998D01*
X103800000Y-59813998D02*
X103699999Y-59913999D01*
X105400011Y-89034311D02*
X105400011Y-96138028D01*
X114140011Y-102340011D02*
X131400000Y-119600000D01*
X103699999Y-87334299D02*
X105400011Y-89034311D01*
X111601994Y-102340011D02*
X114140011Y-102340011D01*
X105400011Y-96138028D02*
X111601994Y-102340011D01*
X103699999Y-59913999D02*
X103699999Y-87334299D01*
D26*
%TO.N,SD_DAT1*%
X193260000Y-71500000D02*
X193830000Y-71500000D01*
D27*
X184160000Y-80600000D02*
X193260000Y-71500000D01*
D26*
X184160000Y-86550000D02*
X184160000Y-80600000D01*
%TO.N,SD_DAT0*%
X193042519Y-71111899D02*
X192216211Y-70285589D01*
X184730000Y-80424975D02*
X193216898Y-71938101D01*
X196030000Y-70055595D02*
X196030000Y-70310000D01*
X194258101Y-71816289D02*
X194258101Y-71313711D01*
X194136289Y-71938101D02*
X194258101Y-71816289D01*
X194336294Y-68361889D02*
X196030000Y-70055595D01*
X193578111Y-68361889D02*
X194336294Y-68361889D01*
X192216211Y-69723789D02*
X193578111Y-68361889D01*
X193216898Y-71938101D02*
X194136289Y-71938101D01*
X194056289Y-71111899D02*
X193042519Y-71111899D01*
X192216211Y-70285589D02*
X192216211Y-69723789D01*
X184730000Y-86580000D02*
X184730000Y-80424975D01*
X194258101Y-71313711D02*
X194056289Y-71111899D01*
%TO.N,SD_CLK*%
X192492422Y-70171179D02*
X192492422Y-69868200D01*
X193610622Y-68750000D02*
X194150000Y-68750000D01*
X194614312Y-71279257D02*
X194170699Y-70835688D01*
X192492422Y-69868200D02*
X193610622Y-68750000D01*
X194250700Y-72214312D02*
X194614312Y-71850699D01*
X193331298Y-72214312D02*
X194250700Y-72214312D01*
X185520000Y-80025610D02*
X193331298Y-72214312D01*
X194170699Y-70835688D02*
X193156930Y-70835688D01*
X185520000Y-86580000D02*
X185520000Y-80025610D01*
X193156930Y-70835688D02*
X192492422Y-70171179D01*
X194614312Y-71850699D02*
X194614312Y-71279257D01*
%TO.N,SD_CMD*%
X190458101Y-75853711D02*
X190458101Y-75553773D01*
X193371339Y-70559477D02*
X192838633Y-70026772D01*
X194890522Y-71965110D02*
X194890522Y-71134889D01*
X192850001Y-70010000D02*
X192900000Y-70010000D01*
X186700000Y-86600000D02*
X186700000Y-80044390D01*
X192838633Y-70021368D02*
X192850001Y-70010000D01*
X194335110Y-72520522D02*
X194890522Y-71965110D01*
X192838633Y-70026772D02*
X192838633Y-70021368D01*
X190458101Y-75553773D02*
X193491344Y-72520522D01*
X193491344Y-72520522D02*
X194335110Y-72520522D01*
X194315109Y-70559477D02*
X193371339Y-70559477D01*
X186700000Y-80044390D02*
X190468101Y-76276289D01*
X194890522Y-71134889D02*
X194315109Y-70559477D01*
X190468101Y-76276289D02*
X190468101Y-75863711D01*
X190468101Y-75863711D02*
X190458101Y-75853711D01*
%TO.N,SD_DAT3*%
X187230000Y-86630000D02*
X187230000Y-81710000D01*
X196750000Y-69950000D02*
X196780000Y-69920000D01*
X196750000Y-72190000D02*
X196750000Y-69950000D01*
X187230000Y-81710000D02*
X196750000Y-72190000D01*
D22*
%TO.N,SD_DAT2*%
X187860000Y-81640000D02*
X197138110Y-72361890D01*
X197138110Y-72361890D02*
X197138110Y-71500000D01*
X187860000Y-86700000D02*
X187860000Y-81640000D01*
D26*
%TO.N,HDMI0_CEC*%
X146240000Y-67700000D02*
X138910000Y-75030000D01*
X160280000Y-67700000D02*
X146240000Y-67700000D01*
%TO.N,HDMI0_HOTPLUG*%
X139216294Y-75668111D02*
X138681889Y-75668111D01*
X139548111Y-75336294D02*
X139216294Y-75668111D01*
X138681889Y-75668111D02*
X138460000Y-75890000D01*
X160170000Y-68220000D02*
X146130000Y-68220000D01*
X146130000Y-68220000D02*
X139548111Y-74801889D01*
X138460000Y-75890000D02*
X137540000Y-75890000D01*
X139548111Y-74801889D02*
X139548111Y-75336294D01*
D27*
%TO.N,HDMI0_SDA*%
X137626499Y-86113501D02*
X137370000Y-86370000D01*
X153490000Y-83200000D02*
X150576499Y-86113501D01*
X150576499Y-86113501D02*
X137626499Y-86113501D01*
%TO.N,HDMI0_SCL*%
X147061519Y-85683501D02*
X147738481Y-85683501D01*
X138120000Y-85450000D02*
X146828018Y-85450000D01*
X146828018Y-85450000D02*
X147061519Y-85683501D01*
X148711982Y-84710000D02*
X151360000Y-84710000D01*
X147738481Y-85683501D02*
X148711982Y-84710000D01*
%TD*%
M02*
