%TF.GenerationSoftware,KiCad,Pcbnew,(5.99.0-9972-g9020611657)*%
%TF.CreationDate,2021-06-01T21:32:07-05:00*%
%TF.ProjectId,ti92revive,74693932-7265-4766-9976-652e6b696361,rev?*%
%TF.SameCoordinates,Original*%
%TF.FileFunction,Copper,L4,Bot*%
%TF.FilePolarity,Positive*%
%FSLAX46Y46*%
G04 Gerber Fmt 4.6, Leading zero omitted, Abs format (unit mm)*
G04 Created by KiCad (PCBNEW (5.99.0-9972-g9020611657)) date 2021-06-01 21:32:07*
%MOMM*%
%LPD*%
G01*
G04 APERTURE LIST*
G04 Aperture macros list*
%AMRoundRect*
0 Rectangle with rounded corners*
0 $1 Rounding radius*
0 $2 $3 $4 $5 $6 $7 $8 $9 X,Y pos of 4 corners*
0 Add a 4 corners polygon primitive as box body*
4,1,4,$2,$3,$4,$5,$6,$7,$8,$9,$2,$3,0*
0 Add four circle primitives for the rounded corners*
1,1,$1+$1,$2,$3*
1,1,$1+$1,$4,$5*
1,1,$1+$1,$6,$7*
1,1,$1+$1,$8,$9*
0 Add four rect primitives between the rounded corners*
20,1,$1+$1,$2,$3,$4,$5,0*
20,1,$1+$1,$4,$5,$6,$7,0*
20,1,$1+$1,$6,$7,$8,$9,0*
20,1,$1+$1,$8,$9,$2,$3,0*%
%AMFreePoly0*
4,1,22,0.500000,-0.750000,0.000000,-0.750000,0.000000,-0.745033,-0.079941,-0.743568,-0.215256,-0.701293,-0.333266,-0.622738,-0.424486,-0.514219,-0.481581,-0.384460,-0.499164,-0.250000,-0.500000,-0.250000,-0.500000,0.250000,-0.499164,0.250000,-0.499963,0.256109,-0.478152,0.396186,-0.417904,0.524511,-0.324060,0.630769,-0.204165,0.706417,-0.067858,0.745374,0.000000,0.744959,0.000000,0.750000,
0.500000,0.750000,0.500000,-0.750000,0.500000,-0.750000,$1*%
%AMFreePoly1*
4,1,20,0.000000,0.744959,0.073905,0.744508,0.209726,0.703889,0.328688,0.626782,0.421226,0.519385,0.479903,0.390333,0.500000,0.250000,0.500000,-0.250000,0.499851,-0.262216,0.476331,-0.402017,0.414519,-0.529596,0.319384,-0.634700,0.198574,-0.708877,0.061801,-0.746166,0.000000,-0.745033,0.000000,-0.750000,-0.500000,-0.750000,-0.500000,0.750000,0.000000,0.750000,0.000000,0.744959,
0.000000,0.744959,$1*%
G04 Aperture macros list end*
%TA.AperFunction,SMDPad,CuDef*%
%ADD10R,0.800000X1.240000*%
%TD*%
%TA.AperFunction,SMDPad,CuDef*%
%ADD11R,1.160000X1.200000*%
%TD*%
%TA.AperFunction,SMDPad,CuDef*%
%ADD12R,0.950000X2.500000*%
%TD*%
%TA.AperFunction,SMDPad,CuDef*%
%ADD13R,1.150000X2.200000*%
%TD*%
%TA.AperFunction,SMDPad,CuDef*%
%ADD14R,1.500000X1.150000*%
%TD*%
%TA.AperFunction,SMDPad,CuDef*%
%ADD15R,1.160000X1.250000*%
%TD*%
%TA.AperFunction,ComponentPad*%
%ADD16O,0.850000X0.850000*%
%TD*%
%TA.AperFunction,ComponentPad*%
%ADD17R,0.850000X0.850000*%
%TD*%
%TA.AperFunction,SMDPad,CuDef*%
%ADD18R,1.000000X1.000000*%
%TD*%
%TA.AperFunction,SMDPad,CuDef*%
%ADD19RoundRect,0.250000X-0.650000X0.325000X-0.650000X-0.325000X0.650000X-0.325000X0.650000X0.325000X0*%
%TD*%
%TA.AperFunction,SMDPad,CuDef*%
%ADD20RoundRect,0.250000X0.312500X0.625000X-0.312500X0.625000X-0.312500X-0.625000X0.312500X-0.625000X0*%
%TD*%
%TA.AperFunction,SMDPad,CuDef*%
%ADD21RoundRect,0.250000X-0.312500X-0.625000X0.312500X-0.625000X0.312500X0.625000X-0.312500X0.625000X0*%
%TD*%
%TA.AperFunction,SMDPad,CuDef*%
%ADD22RoundRect,0.250000X-0.625000X0.312500X-0.625000X-0.312500X0.625000X-0.312500X0.625000X0.312500X0*%
%TD*%
%TA.AperFunction,SMDPad,CuDef*%
%ADD23C,1.500000*%
%TD*%
%TA.AperFunction,SMDPad,CuDef*%
%ADD24RoundRect,0.250000X0.625000X-0.312500X0.625000X0.312500X-0.625000X0.312500X-0.625000X-0.312500X0*%
%TD*%
%TA.AperFunction,SMDPad,CuDef*%
%ADD25RoundRect,0.250000X0.312500X1.450000X-0.312500X1.450000X-0.312500X-1.450000X0.312500X-1.450000X0*%
%TD*%
%TA.AperFunction,SMDPad,CuDef*%
%ADD26R,2.000000X0.650000*%
%TD*%
%TA.AperFunction,SMDPad,CuDef*%
%ADD27R,0.900000X1.200000*%
%TD*%
%TA.AperFunction,SMDPad,CuDef*%
%ADD28RoundRect,0.250000X0.325000X0.650000X-0.325000X0.650000X-0.325000X-0.650000X0.325000X-0.650000X0*%
%TD*%
%TA.AperFunction,ComponentPad*%
%ADD29R,1.700000X1.700000*%
%TD*%
%TA.AperFunction,ComponentPad*%
%ADD30O,1.700000X1.700000*%
%TD*%
%TA.AperFunction,SMDPad,CuDef*%
%ADD31RoundRect,0.250000X0.650000X-0.325000X0.650000X0.325000X-0.650000X0.325000X-0.650000X-0.325000X0*%
%TD*%
%TA.AperFunction,SMDPad,CuDef*%
%ADD32RoundRect,0.250000X-0.325000X-0.650000X0.325000X-0.650000X0.325000X0.650000X-0.325000X0.650000X0*%
%TD*%
%TA.AperFunction,SMDPad,CuDef*%
%ADD33R,0.400000X1.650000*%
%TD*%
%TA.AperFunction,SMDPad,CuDef*%
%ADD34R,1.350000X2.000000*%
%TD*%
%TA.AperFunction,ComponentPad*%
%ADD35O,1.350000X1.700000*%
%TD*%
%TA.AperFunction,SMDPad,CuDef*%
%ADD36R,1.430000X2.500000*%
%TD*%
%TA.AperFunction,SMDPad,CuDef*%
%ADD37R,1.825000X0.700000*%
%TD*%
%TA.AperFunction,ComponentPad*%
%ADD38O,1.100000X1.500000*%
%TD*%
%TA.AperFunction,SMDPad,CuDef*%
%ADD39R,2.000000X1.500000*%
%TD*%
%TA.AperFunction,ComponentPad*%
%ADD40R,1.600000X1.600000*%
%TD*%
%TA.AperFunction,ComponentPad*%
%ADD41C,1.600000*%
%TD*%
%TA.AperFunction,SMDPad,CuDef*%
%ADD42R,5.500000X1.500000*%
%TD*%
%TA.AperFunction,SMDPad,CuDef*%
%ADD43RoundRect,0.249999X-1.075001X0.450001X-1.075001X-0.450001X1.075001X-0.450001X1.075001X0.450001X0*%
%TD*%
%TA.AperFunction,SMDPad,CuDef*%
%ADD44RoundRect,0.249999X-0.450001X-1.075001X0.450001X-1.075001X0.450001X1.075001X-0.450001X1.075001X0*%
%TD*%
%TA.AperFunction,SMDPad,CuDef*%
%ADD45R,0.700000X0.340000*%
%TD*%
%TA.AperFunction,SMDPad,CuDef*%
%ADD46R,2.514600X0.457200*%
%TD*%
%TA.AperFunction,SMDPad,CuDef*%
%ADD47R,1.500000X1.500000*%
%TD*%
%TA.AperFunction,SMDPad,CuDef*%
%ADD48FreePoly0,270.000000*%
%TD*%
%TA.AperFunction,SMDPad,CuDef*%
%ADD49FreePoly1,270.000000*%
%TD*%
%TA.AperFunction,SMDPad,CuDef*%
%ADD50RoundRect,0.062500X0.325000X0.062500X-0.325000X0.062500X-0.325000X-0.062500X0.325000X-0.062500X0*%
%TD*%
%TA.AperFunction,SMDPad,CuDef*%
%ADD51RoundRect,0.062500X0.062500X0.325000X-0.062500X0.325000X-0.062500X-0.325000X0.062500X-0.325000X0*%
%TD*%
%TA.AperFunction,ComponentPad*%
%ADD52C,0.500000*%
%TD*%
%TA.AperFunction,SMDPad,CuDef*%
%ADD53R,2.450000X2.450000*%
%TD*%
%TA.AperFunction,SMDPad,CuDef*%
%ADD54R,0.650000X0.300000*%
%TD*%
%TA.AperFunction,SMDPad,CuDef*%
%ADD55R,1.700000X2.500000*%
%TD*%
%TA.AperFunction,SMDPad,CuDef*%
%ADD56RoundRect,0.249999X0.450001X1.075001X-0.450001X1.075001X-0.450001X-1.075001X0.450001X-1.075001X0*%
%TD*%
%TA.AperFunction,SMDPad,CuDef*%
%ADD57RoundRect,0.062500X-0.375000X-0.062500X0.375000X-0.062500X0.375000X0.062500X-0.375000X0.062500X0*%
%TD*%
%TA.AperFunction,SMDPad,CuDef*%
%ADD58RoundRect,0.062500X-0.062500X-0.375000X0.062500X-0.375000X0.062500X0.375000X-0.062500X0.375000X0*%
%TD*%
%TA.AperFunction,SMDPad,CuDef*%
%ADD59R,5.600000X5.600000*%
%TD*%
%TA.AperFunction,ComponentPad*%
%ADD60C,3.000000*%
%TD*%
%TA.AperFunction,SMDPad,CuDef*%
%ADD61FreePoly0,90.000000*%
%TD*%
%TA.AperFunction,SMDPad,CuDef*%
%ADD62FreePoly1,90.000000*%
%TD*%
%TA.AperFunction,SMDPad,CuDef*%
%ADD63R,0.700000X0.200000*%
%TD*%
%TA.AperFunction,SMDPad,CuDef*%
%ADD64C,1.000000*%
%TD*%
%TA.AperFunction,SMDPad,CuDef*%
%ADD65R,1.500000X0.300000*%
%TD*%
%TA.AperFunction,SMDPad,CuDef*%
%ADD66R,0.300000X1.500000*%
%TD*%
%TA.AperFunction,SMDPad,CuDef*%
%ADD67R,8.000000X8.000000*%
%TD*%
%TA.AperFunction,SMDPad,CuDef*%
%ADD68R,1.560000X0.650000*%
%TD*%
%TA.AperFunction,ViaPad*%
%ADD69C,0.300000*%
%TD*%
%TA.AperFunction,ViaPad*%
%ADD70C,0.800000*%
%TD*%
%TA.AperFunction,Conductor*%
%ADD71C,0.250000*%
%TD*%
%TA.AperFunction,Conductor*%
%ADD72C,0.076200*%
%TD*%
%TA.AperFunction,Conductor*%
%ADD73C,0.200000*%
%TD*%
%TA.AperFunction,Conductor*%
%ADD74C,0.500000*%
%TD*%
%TA.AperFunction,Conductor*%
%ADD75C,0.100000*%
%TD*%
%TA.AperFunction,Conductor*%
%ADD76C,0.700000*%
%TD*%
%TA.AperFunction,Conductor*%
%ADD77C,0.750000*%
%TD*%
%TA.AperFunction,Conductor*%
%ADD78C,0.150000*%
%TD*%
%TA.AperFunction,Conductor*%
%ADD79C,0.127000*%
%TD*%
G04 APERTURE END LIST*
D10*
%TO.P,J7,1,DAT2*%
%TO.N,SD_DAT2*%
X182910000Y-95802500D03*
%TO.P,J7,2,DAT3/CD*%
%TO.N,SD_DAT3*%
X181810000Y-95802500D03*
%TO.P,J7,3,CMD*%
%TO.N,SD_CMD*%
X180710000Y-95802500D03*
%TO.P,J7,4,VDD*%
%TO.N,+3.3*%
X179610000Y-95802500D03*
%TO.P,J7,5,CLK*%
%TO.N,SD_CLK*%
X178510000Y-95802500D03*
%TO.P,J7,6,VSS*%
%TO.N,Earth_Clean*%
X177410000Y-95802500D03*
%TO.P,J7,7,DAT0*%
%TO.N,SD_DAT0*%
X176310000Y-95802500D03*
%TO.P,J7,8,DAT1*%
%TO.N,SD_DAT1*%
X175210000Y-95802500D03*
D11*
%TO.P,J7,DT*%
%TO.N,N/C*%
X173270000Y-107432500D03*
D12*
%TO.P,J7,9,SHIELD*%
%TO.N,Earth_Clean*%
X187255000Y-96432500D03*
D13*
X172865000Y-96282500D03*
X187155000Y-107762500D03*
D14*
%TO.P,J7,P4*%
%TO.N,N/C*%
X182850000Y-108557500D03*
%TO.P,J7,P5*%
X175070000Y-108557500D03*
D15*
%TO.P,J7,SW*%
X173270000Y-98432500D03*
%TD*%
D16*
%TO.P,J8,2,Pin_2*%
%TO.N,Earth_Clean*%
X123200000Y-74800000D03*
D17*
%TO.P,J8,1,Pin_1*%
%TO.N,relay_no_b*%
X123200000Y-73800000D03*
%TD*%
D18*
%TO.P,TP15,1,1*%
%TO.N,Net-(TP15-Pad1)*%
X115200000Y-53200000D03*
%TD*%
%TO.P,TP10,1,1*%
%TO.N,Net-(C1-Pad2)*%
X143600000Y-100200000D03*
%TD*%
D19*
%TO.P,C4,1*%
%TO.N,Earth_Clean*%
X137750000Y-81325000D03*
%TO.P,C4,2*%
%TO.N,Net-(C4-Pad2)*%
X137750000Y-84275000D03*
%TD*%
D20*
%TO.P,R11,1*%
%TO.N,/PowerSupply/FB*%
X135787500Y-53650000D03*
%TO.P,R11,2*%
%TO.N,Earth_Clean*%
X132862500Y-53650000D03*
%TD*%
D21*
%TO.P,R9,1*%
%TO.N,Net-(C9-Pad1)*%
X132862500Y-48650000D03*
%TO.P,R9,2*%
%TO.N,+5*%
X135787500Y-48650000D03*
%TD*%
D22*
%TO.P,R12,1*%
%TO.N,Net-(D1-Pad2)*%
X252200000Y-42737500D03*
%TO.P,R12,2*%
%TO.N,Net-(R12-Pad2)*%
X252200000Y-45662500D03*
%TD*%
D23*
%TO.P,TP1,1,1*%
%TO.N,+3.3*%
X226687752Y-44000000D03*
%TD*%
D20*
%TO.P,R10,1*%
%TO.N,+5*%
X135787500Y-58650000D03*
%TO.P,R10,2*%
%TO.N,/PowerSupply/FB*%
X132862500Y-58650000D03*
%TD*%
D24*
%TO.P,R20,1*%
%TO.N,Net-(R20-Pad1)*%
X240000000Y-45862500D03*
%TO.P,R20,2*%
%TO.N,Net-(D4-Pad1)*%
X240000000Y-42937500D03*
%TD*%
D25*
%TO.P,L2,1,1*%
%TO.N,Net-(C10-Pad2)*%
X143137500Y-58800000D03*
%TO.P,L2,2,2*%
%TO.N,+5*%
X138862500Y-58800000D03*
%TD*%
D26*
%TO.P,U2,1,IN*%
%TO.N,+5*%
X84090000Y-56987500D03*
%TO.P,U2,2,GND*%
%TO.N,Earth_Clean*%
X84090000Y-56037500D03*
%TO.P,U2,3,EN*%
%TO.N,+1.8*%
X84090000Y-55087500D03*
%TO.P,U2,4,NC*%
%TO.N,unconnected-(U2-Pad4)*%
X87510000Y-55087500D03*
%TO.P,U2,5,OUT*%
%TO.N,+3.3 High Current*%
X87510000Y-56987500D03*
%TD*%
D24*
%TO.P,R2,1*%
%TO.N,Net-(R1-Pad2)*%
X136600000Y-99462500D03*
%TO.P,R2,2*%
%TO.N,Net-(C1-Pad2)*%
X136600000Y-96537500D03*
%TD*%
D22*
%TO.P,R21,1*%
%TO.N,SDA*%
X227000000Y-46737500D03*
%TO.P,R21,2*%
%TO.N,+3.3*%
X227000000Y-49662500D03*
%TD*%
D18*
%TO.P,TP11,1,1*%
%TO.N,Net-(R1-Pad2)*%
X143600000Y-104600000D03*
%TD*%
D23*
%TO.P,TP9,1,1*%
%TO.N,SerialPin15*%
X198500000Y-67050000D03*
%TD*%
D27*
%TO.P,D83,1,K*%
%TO.N,batCell+*%
X96250000Y-77100000D03*
%TO.P,D83,2,A*%
%TO.N,Net-(D83-Pad2)*%
X92950000Y-77100000D03*
%TD*%
D28*
%TO.P,C6,1*%
%TO.N,Earth_Clean*%
X149800000Y-54000000D03*
%TO.P,C6,2*%
%TO.N,Net-(C6-Pad2)*%
X146850000Y-54000000D03*
%TD*%
D29*
%TO.P,JP4,1,1*%
%TO.N,Net-(JP4-Pad1)*%
X247000000Y-68800000D03*
D30*
%TO.P,JP4,2,2*%
%TO.N,Net-(JP4-Pad2)*%
X244460000Y-68800000D03*
%TD*%
D28*
%TO.P,C15,1*%
%TO.N,Net-(C15-Pad1)*%
X118875000Y-74400000D03*
%TO.P,C15,2*%
%TO.N,Earth_Clean*%
X115925000Y-74400000D03*
%TD*%
D31*
%TO.P,C1,1*%
%TO.N,Earth_Clean*%
X131800000Y-99275000D03*
%TO.P,C1,2*%
%TO.N,Net-(C1-Pad2)*%
X131800000Y-96325000D03*
%TD*%
D32*
%TO.P,C13,1*%
%TO.N,Earth_Clean*%
X84125000Y-59037500D03*
%TO.P,C13,2*%
%TO.N,+3.3 High Current*%
X87075000Y-59037500D03*
%TD*%
D33*
%TO.P,J1,1,VBUS*%
%TO.N,Net-(C4-Pad2)*%
X218075000Y-36965000D03*
%TO.P,J1,2,D-*%
%TO.N,unconnected-(J1-Pad2)*%
X218725000Y-36965000D03*
%TO.P,J1,3,D+*%
%TO.N,unconnected-(J1-Pad3)*%
X219375000Y-36965000D03*
%TO.P,J1,4,GND*%
%TO.N,Earth_Clean*%
X220025000Y-36965000D03*
%TO.P,J1,5,Shield*%
X220675000Y-36965000D03*
D34*
%TO.P,J1,6,Case*%
X216645000Y-35015000D03*
D35*
X222105000Y-34085000D03*
D36*
X220335000Y-33815000D03*
D37*
X216425000Y-35765000D03*
D34*
X222125000Y-35015000D03*
D38*
X221795000Y-37085000D03*
D37*
X222375000Y-35765000D03*
D36*
X218415000Y-33815000D03*
D38*
X216955000Y-37085000D03*
D35*
X216645000Y-34085000D03*
D39*
X222275000Y-37085000D03*
X216525000Y-37065000D03*
%TD*%
D29*
%TO.P,TH1,1*%
%TO.N,Net-(R1-Pad2)*%
X68800000Y-68000000D03*
D30*
%TO.P,TH1,2*%
%TO.N,Earth_Clean*%
X66260000Y-68000000D03*
%TD*%
D28*
%TO.P,C11,1*%
%TO.N,+5*%
X135875000Y-43600000D03*
%TO.P,C11,2*%
%TO.N,Earth_Clean*%
X132925000Y-43600000D03*
%TD*%
D24*
%TO.P,R4,1*%
%TO.N,batCell+*%
X129200000Y-104462500D03*
%TO.P,R4,2*%
%TO.N,Net-(R4-Pad2)*%
X129200000Y-101537500D03*
%TD*%
D32*
%TO.P,C16,1*%
%TO.N,+5*%
X84075000Y-67930952D03*
%TO.P,C16,2*%
%TO.N,Earth_Clean*%
X87025000Y-67930952D03*
%TD*%
D40*
%TO.P,U5,1,PB5*%
%TO.N,Net-(TP25-Pad1)*%
X119750000Y-93620000D03*
D41*
%TO.P,U5,2,PB3*%
%TO.N,SetPowerOFF*%
X119750000Y-96160000D03*
%TO.P,U5,3,PB4*%
%TO.N,piWatchDogPin*%
X119750000Y-98700000D03*
%TO.P,U5,4,GND*%
%TO.N,Earth_Clean*%
X119750000Y-101240000D03*
%TO.P,U5,5,PB0*%
%TO.N,Net-(U5-Pad5)*%
X112130000Y-101240000D03*
%TO.P,U5,6,PB1*%
%TO.N,Net-(R13-Pad1)*%
X112130000Y-98700000D03*
%TO.P,U5,7,PB2*%
%TO.N,SetPowerON*%
X112130000Y-96160000D03*
%TO.P,U5,8,VCC*%
%TO.N,batCell+*%
X112130000Y-93620000D03*
%TD*%
D28*
%TO.P,C18,1*%
%TO.N,+3.3*%
X168795000Y-95550000D03*
%TO.P,C18,2*%
%TO.N,Earth_Clean*%
X165845000Y-95550000D03*
%TD*%
D29*
%TO.P,J2,1,Pin_1*%
%TO.N,batCell+*%
X69400000Y-57200000D03*
D30*
%TO.P,J2,2,Pin_2*%
%TO.N,Earth_Clean*%
X66860000Y-57200000D03*
%TD*%
D42*
%TO.P,Y1,1,1*%
%TO.N,Net-(C14-Pad1)*%
X109658334Y-78200000D03*
%TO.P,Y1,2,2*%
%TO.N,Net-(C15-Pad1)*%
X118158334Y-78200000D03*
%TD*%
D43*
%TO.P,R15,1*%
%TO.N,Net-(R15-Pad1)*%
X88400000Y-76200000D03*
%TO.P,R15,2*%
%TO.N,Earth_Clean*%
X88400000Y-81000000D03*
%TD*%
D44*
%TO.P,R17,1*%
%TO.N,Net-(R16-Pad2)*%
X127600000Y-67800000D03*
%TO.P,R17,2*%
%TO.N,Earth_Clean*%
X132400000Y-67800000D03*
%TD*%
D24*
%TO.P,R18,1*%
%TO.N,Net-(R18-Pad1)*%
X243600000Y-45862500D03*
%TO.P,R18,2*%
%TO.N,Net-(D2-Pad1)*%
X243600000Y-42937500D03*
%TD*%
D32*
%TO.P,C12,1*%
%TO.N,+5*%
X84125000Y-53037500D03*
%TO.P,C12,2*%
%TO.N,Earth_Clean*%
X87075000Y-53037500D03*
%TD*%
D23*
%TO.P,TP3,1,1*%
%TO.N,SCL*%
X216843876Y-44000000D03*
%TD*%
D18*
%TO.P,TP23,1,1*%
%TO.N,Net-(JP2-Pad1)*%
X126200000Y-117400000D03*
%TD*%
D19*
%TO.P,C3,1*%
%TO.N,Net-(C3-Pad1)*%
X126800000Y-96400000D03*
%TO.P,C3,2*%
%TO.N,Net-(C3-Pad2)*%
X126800000Y-99350000D03*
%TD*%
D45*
%TO.P,Q1,1,E1*%
%TO.N,Earth_Clean*%
X95750000Y-79300000D03*
%TO.P,Q1,2,B1*%
%TO.N,SetPowerOFF*%
X95750000Y-79800000D03*
%TO.P,Q1,3,C2*%
%TO.N,Net-(D84-Pad2)*%
X95750000Y-80300000D03*
%TO.P,Q1,4,E2*%
%TO.N,Earth_Clean*%
X94250000Y-80300000D03*
%TO.P,Q1,5,B2*%
%TO.N,SetPowerON*%
X94250000Y-79800000D03*
%TO.P,Q1,6,C1*%
%TO.N,Net-(D83-Pad2)*%
X94250000Y-79300000D03*
%TD*%
D18*
%TO.P,TP21,1,1*%
%TO.N,Net-(TP21-Pad1)*%
X123600000Y-60950000D03*
%TD*%
D22*
%TO.P,R13,1*%
%TO.N,Net-(R13-Pad1)*%
X107340000Y-98557500D03*
%TO.P,R13,2*%
%TO.N,Net-(D82-Pad2)*%
X107340000Y-101482500D03*
%TD*%
D46*
%TO.P,U6,1,Set+*%
%TO.N,batCell+*%
X102654600Y-62332700D03*
%TO.P,U6,2,A_NC*%
%TO.N,unconnected-(U6-Pad2)*%
X102654600Y-64872700D03*
%TO.P,U6,3,A_COM*%
%TO.N,BAT+*%
X102654600Y-67412700D03*
%TO.P,U6,4,A_NO*%
%TO.N,5vRegulator*%
X102654600Y-69952700D03*
%TO.P,U6,5,Set-*%
%TO.N,Net-(D84-Pad2)*%
X102654600Y-72492700D03*
%TO.P,U6,6,Reset-*%
%TO.N,Net-(D83-Pad2)*%
X92545400Y-72492700D03*
%TO.P,U6,7,B_NO*%
%TO.N,relay_no_b*%
X92545400Y-69952700D03*
%TO.P,U6,8,B_COM*%
%TO.N,+5*%
X92545400Y-67412700D03*
%TO.P,U6,9,B_NC*%
%TO.N,unconnected-(U6-Pad9)*%
X92545400Y-64872700D03*
%TO.P,U6,10,Reset+*%
%TO.N,batCell+*%
X92545400Y-62332700D03*
%TD*%
D47*
%TO.P,TP7,1,1*%
%TO.N,Earth_Clean*%
X213562584Y-43995875D03*
%TD*%
D32*
%TO.P,C7,1*%
%TO.N,5vRegulator*%
X146850000Y-49200000D03*
%TO.P,C7,2*%
%TO.N,Earth_Clean*%
X149800000Y-49200000D03*
%TD*%
D25*
%TO.P,L1,1,1*%
%TO.N,Net-(C2-Pad1)*%
X130737500Y-90000000D03*
%TO.P,L1,2,2*%
%TO.N,Net-(C3-Pad1)*%
X126462500Y-90000000D03*
%TD*%
D48*
%TO.P,JP1,1,A*%
%TO.N,BAT+*%
X113940000Y-88770000D03*
D49*
%TO.P,JP1,2,B*%
%TO.N,5vRegulator*%
X113940000Y-90070000D03*
%TD*%
D48*
%TO.P,JP2,1,A*%
%TO.N,Net-(JP2-Pad1)*%
X131000000Y-116800000D03*
D49*
%TO.P,JP2,2,B*%
%TO.N,/USB and Keyboard connections/KEYBOARD_USB_DP*%
X131000000Y-118100000D03*
%TD*%
D50*
%TO.P,U3,1,~PG*%
%TO.N,!PowerGood*%
X137387500Y-88750000D03*
%TO.P,U3,2,STAT*%
%TO.N,Net-(D81-Pad1)*%
X137387500Y-89250000D03*
%TO.P,U3,3,CD*%
%TO.N,chargeDisable*%
X137387500Y-89750000D03*
%TO.P,U3,4,SDA*%
%TO.N,SDA*%
X137387500Y-90250000D03*
%TO.P,U3,5,SCL*%
%TO.N,SCL*%
X137387500Y-90750000D03*
%TO.P,U3,6,~INT*%
%TO.N,!ChargeStatus*%
X137387500Y-91250000D03*
D51*
%TO.P,U3,7,TS*%
%TO.N,Net-(R1-Pad2)*%
X136650000Y-91987500D03*
%TO.P,U3,8,ILIM*%
%TO.N,Net-(R3-Pad2)*%
X136150000Y-91987500D03*
%TO.P,U3,9,MID*%
%TO.N,Net-(R8-Pad2)*%
X135650000Y-91987500D03*
%TO.P,U3,10,CBSET*%
%TO.N,Net-(R4-Pad2)*%
X135150000Y-91987500D03*
%TO.P,U3,11,REGN*%
%TO.N,Net-(C1-Pad2)*%
X134650000Y-91987500D03*
%TO.P,U3,12,BTST*%
%TO.N,Net-(C3-Pad2)*%
X134150000Y-91987500D03*
D50*
%TO.P,U3,13,BAT*%
%TO.N,BAT+*%
X133412500Y-91250000D03*
%TO.P,U3,14,BAT*%
X133412500Y-90750000D03*
%TO.P,U3,15,SNS*%
%TO.N,unconnected-(U3-Pad15)*%
X133412500Y-90250000D03*
%TO.P,U3,16,SNS*%
%TO.N,unconnected-(U3-Pad16)*%
X133412500Y-89750000D03*
%TO.P,U3,17,SW*%
%TO.N,Net-(C3-Pad1)*%
X133412500Y-89250000D03*
%TO.P,U3,18,SW*%
X133412500Y-88750000D03*
D51*
%TO.P,U3,19,GND*%
%TO.N,Earth_Clean*%
X134150000Y-88012500D03*
%TO.P,U3,20,GND*%
X134650000Y-88012500D03*
%TO.P,U3,21,PMID*%
%TO.N,Net-(C2-Pad1)*%
X135150000Y-88012500D03*
%TO.P,U3,22,PMID*%
X135650000Y-88012500D03*
%TO.P,U3,23,VBUS*%
%TO.N,Net-(C4-Pad2)*%
X136150000Y-88012500D03*
%TO.P,U3,24,PSEL*%
%TO.N,CCVref*%
X136650000Y-88012500D03*
D52*
%TO.P,U3,25*%
%TO.N,N/C*%
X134425000Y-90000000D03*
D53*
X135400000Y-90000000D03*
D52*
X135400000Y-90000000D03*
X135400000Y-89025000D03*
X134425000Y-89025000D03*
X136375000Y-90975000D03*
X136375000Y-89025000D03*
X135400000Y-90975000D03*
X134425000Y-90975000D03*
X136375000Y-90000000D03*
%TD*%
D54*
%TO.P,U4,1,Vin*%
%TO.N,5vRegulator*%
X142500000Y-49550000D03*
%TO.P,U4,2,EN/UVLO*%
X142500000Y-50050000D03*
%TO.P,U4,3,!RESET*%
%TO.N,unconnected-(U4-Pad3)*%
X142500000Y-50550000D03*
%TO.P,U4,4,SS*%
%TO.N,Net-(C6-Pad2)*%
X142500000Y-51050000D03*
%TO.P,U4,5,Vcc*%
%TO.N,Net-(C8-Pad2)*%
X142500000Y-51550000D03*
%TO.P,U4,6,RT/SYNC*%
%TO.N,unconnected-(U4-Pad6)*%
X142500000Y-52050000D03*
%TO.P,U4,7,FB*%
%TO.N,/PowerSupply/FB*%
X139550000Y-52050000D03*
%TO.P,U4,8,GND*%
%TO.N,Earth_Clean*%
X139550000Y-51550000D03*
%TO.P,U4,9,EXTVCC*%
%TO.N,Net-(C9-Pad1)*%
X139550000Y-51050000D03*
%TO.P,U4,10,BST*%
%TO.N,Net-(C10-Pad1)*%
X139550000Y-50550000D03*
%TO.P,U4,11,LX*%
%TO.N,Net-(C10-Pad2)*%
X139550000Y-50050000D03*
%TO.P,U4,12,PGND*%
%TO.N,Earth_Clean*%
X139550000Y-49550000D03*
D55*
%TO.P,U4,13,Pad*%
X141000000Y-50800000D03*
%TD*%
D23*
%TO.P,TP2,1,1*%
%TO.N,+5*%
X223406460Y-44000000D03*
%TD*%
D56*
%TO.P,R14,1*%
%TO.N,Net-(C15-Pad1)*%
X116000000Y-82400000D03*
%TO.P,R14,2*%
%TO.N,Net-(C14-Pad1)*%
X111200000Y-82400000D03*
%TD*%
D57*
%TO.P,U9,1,NC*%
%TO.N,unconnected-(U9-Pad1)*%
X128562500Y-129950000D03*
%TO.P,U9,2,COL16*%
%TO.N,unconnected-(U9-Pad2)*%
X128562500Y-129450000D03*
%TO.P,U9,3,COL17*%
%TO.N,unconnected-(U9-Pad3)*%
X128562500Y-128950000D03*
%TO.P,U9,4,ROW7*%
%TO.N,row7*%
X128562500Y-128450000D03*
%TO.P,U9,5,ROW6*%
%TO.N,row6*%
X128562500Y-127950000D03*
%TO.P,U9,6,ROW5*%
%TO.N,row5*%
X128562500Y-127450000D03*
%TO.P,U9,7,ROW4*%
%TO.N,row4*%
X128562500Y-126950000D03*
%TO.P,U9,8,ROW3*%
%TO.N,row3*%
X128562500Y-126450000D03*
%TO.P,U9,9,ROW2*%
%TO.N,row2*%
X128562500Y-125950000D03*
%TO.P,U9,10,ROW1*%
%TO.N,row1*%
X128562500Y-125450000D03*
%TO.P,U9,11,ROW0*%
%TO.N,row0*%
X128562500Y-124950000D03*
%TO.P,U9,12,VMOD*%
%TO.N,unconnected-(U9-Pad12)*%
X128562500Y-124450000D03*
D58*
%TO.P,U9,13,GPO1/BLPWM*%
%TO.N,KB_BACKLIGHT_PWM*%
X129250000Y-123762500D03*
%TO.P,U9,14,NC1*%
%TO.N,unconnected-(U9-Pad14)*%
X129750000Y-123762500D03*
%TO.P,U9,15,NC2*%
%TO.N,unconnected-(U9-Pad15)*%
X130250000Y-123762500D03*
%TO.P,U9,16,GPO0*%
%TO.N,unconnected-(U9-Pad16)*%
X130750000Y-123762500D03*
%TO.P,U9,17,COL00/PRGC*%
%TO.N,col0*%
X131250000Y-123762500D03*
%TO.P,U9,18,VSS*%
%TO.N,Earth_Clean*%
X131750000Y-123762500D03*
%TO.P,U9,19,D+/PS2CLK*%
%TO.N,Net-(JP2-Pad1)*%
X132250000Y-123762500D03*
%TO.P,U9,20,D-/BS2DAT*%
%TO.N,Net-(JP3-Pad2)*%
X132750000Y-123762500D03*
%TO.P,U9,21,VDD*%
%TO.N,+5*%
X133250000Y-123762500D03*
%TO.P,U9,22,COL01/PRGD*%
%TO.N,col1*%
X133750000Y-123762500D03*
%TO.P,U9,23,USBEN*%
%TO.N,unconnected-(U9-Pad23)*%
X134250000Y-123762500D03*
%TO.P,U9,24,XPS2D*%
%TO.N,unconnected-(U9-Pad24)*%
X134750000Y-123762500D03*
D57*
%TO.P,U9,25,XPS2C*%
%TO.N,unconnected-(U9-Pad25)*%
X135437500Y-124450000D03*
%TO.P,U9,26,XRES*%
%TO.N,unconnected-(U9-Pad26)*%
X135437500Y-124950000D03*
%TO.P,U9,27,COL02*%
%TO.N,col2*%
X135437500Y-125450000D03*
%TO.P,U9,28,COL03*%
%TO.N,col3*%
X135437500Y-125950000D03*
%TO.P,U9,29,COL04*%
%TO.N,col4*%
X135437500Y-126450000D03*
%TO.P,U9,30,COL05*%
%TO.N,col5*%
X135437500Y-126950000D03*
%TO.P,U9,31,COL06*%
%TO.N,col6*%
X135437500Y-127450000D03*
%TO.P,U9,32,COL07*%
%TO.N,col7*%
X135437500Y-127950000D03*
%TO.P,U9,33,COL08*%
%TO.N,col8*%
X135437500Y-128450000D03*
%TO.P,U9,34,COL09*%
%TO.N,col9*%
X135437500Y-128950000D03*
%TO.P,U9,35,COL10*%
%TO.N,unconnected-(U9-Pad35)*%
X135437500Y-129450000D03*
%TO.P,U9,36,COL11*%
%TO.N,unconnected-(U9-Pad36)*%
X135437500Y-129950000D03*
D58*
%TO.P,U9,37,COL12*%
%TO.N,unconnected-(U9-Pad37)*%
X134750000Y-130637500D03*
%TO.P,U9,38,COL13*%
%TO.N,unconnected-(U9-Pad38)*%
X134250000Y-130637500D03*
%TO.P,U9,39,nLEDSCROLL*%
%TO.N,unconnected-(U9-Pad39)*%
X133750000Y-130637500D03*
%TO.P,U9,40,nLEDCAPS*%
%TO.N,Net-(R20-Pad1)*%
X133250000Y-130637500D03*
%TO.P,U9,41,VDD1*%
%TO.N,+5*%
X132750000Y-130637500D03*
%TO.P,U9,42,NC3*%
%TO.N,unconnected-(U9-Pad42)*%
X132250000Y-130637500D03*
%TO.P,U9,43,NC4*%
%TO.N,unconnected-(U9-Pad43)*%
X131750000Y-130637500D03*
%TO.P,U9,44,nLEDNUM*%
%TO.N,unconnected-(U9-Pad44)*%
X131250000Y-130637500D03*
%TO.P,U9,45,nLEDFN*%
%TO.N,Net-(R18-Pad1)*%
X130750000Y-130637500D03*
%TO.P,U9,46,COL14*%
%TO.N,unconnected-(U9-Pad46)*%
X130250000Y-130637500D03*
%TO.P,U9,47,VSS*%
%TO.N,Earth_Clean*%
X129750000Y-130637500D03*
%TO.P,U9,48,COL15*%
%TO.N,unconnected-(U9-Pad48)*%
X129250000Y-130637500D03*
D59*
%TO.P,U9,49,GND*%
%TO.N,Earth_Clean*%
X132000000Y-127200000D03*
%TD*%
D40*
%TO.P,J4,1,VBUS*%
%TO.N,+5*%
X94900000Y-45590000D03*
D41*
%TO.P,J4,2,D-*%
%TO.N,Net-(J4-Pad2)*%
X97400000Y-45590000D03*
%TO.P,J4,3,D+*%
%TO.N,Net-(J4-Pad3)*%
X99400000Y-45590000D03*
%TO.P,J4,4,GND*%
%TO.N,Earth_Clean*%
X101900000Y-45590000D03*
D60*
%TO.P,J4,5,Shield*%
X91830000Y-42880000D03*
X104970000Y-42880000D03*
%TD*%
D32*
%TO.P,C17,1*%
%TO.N,Earth_Clean*%
X84075000Y-61530952D03*
%TO.P,C17,2*%
%TO.N,+1*%
X87025000Y-61530952D03*
%TD*%
D23*
%TO.P,TP26,1,1*%
%TO.N,Earth_Clean*%
X198400000Y-63600000D03*
%TD*%
D28*
%TO.P,C14,1*%
%TO.N,Net-(C14-Pad1)*%
X111075000Y-74000000D03*
%TO.P,C14,2*%
%TO.N,Earth_Clean*%
X108125000Y-74000000D03*
%TD*%
D61*
%TO.P,JP3,1,A*%
%TO.N,/USB and Keyboard connections/KEYBOARD_USB_DN*%
X133600000Y-118100000D03*
D62*
%TO.P,JP3,2,B*%
%TO.N,Net-(JP3-Pad2)*%
X133600000Y-116800000D03*
%TD*%
D23*
%TO.P,TP8,1,1*%
%TO.N,SerialPin14*%
X198500000Y-70600000D03*
%TD*%
D24*
%TO.P,R1,1*%
%TO.N,Earth_Clean*%
X139400000Y-104662500D03*
%TO.P,R1,2*%
%TO.N,Net-(R1-Pad2)*%
X139400000Y-101737500D03*
%TD*%
D63*
%TO.P,U1,1,GND*%
%TO.N,Earth_Clean*%
X195100000Y-57900000D03*
%TO.P,U1,2,GND*%
X192020000Y-57900000D03*
%TO.P,U1,3,Ethernet_Pair3_P*%
%TO.N,unconnected-(U1-Pad3)*%
X195100000Y-58300000D03*
%TO.P,U1,4,Ethernet_Pair1_P*%
%TO.N,unconnected-(U1-Pad4)*%
X192020000Y-58300000D03*
%TO.P,U1,5,Ethernet_Pair3_N*%
%TO.N,unconnected-(U1-Pad5)*%
X195100000Y-58700000D03*
%TO.P,U1,6,Ethernet_Pair1_N*%
%TO.N,unconnected-(U1-Pad6)*%
X192020000Y-58700000D03*
%TO.P,U1,7,GND*%
%TO.N,Earth_Clean*%
X195100000Y-59100000D03*
%TO.P,U1,8,GND*%
X192020000Y-59100000D03*
%TO.P,U1,9,Ethernet_Pair2_N*%
%TO.N,unconnected-(U1-Pad9)*%
X195100000Y-59500000D03*
%TO.P,U1,10,Ethernet_Pair0_N*%
%TO.N,unconnected-(U1-Pad10)*%
X192020000Y-59500000D03*
%TO.P,U1,11,Ethernet_Pair2_P*%
%TO.N,unconnected-(U1-Pad11)*%
X195100000Y-59900000D03*
%TO.P,U1,12,Ethernet_Pair0_P*%
%TO.N,unconnected-(U1-Pad12)*%
X192020000Y-59900000D03*
%TO.P,U1,13,GND*%
%TO.N,Earth_Clean*%
X195100000Y-60300000D03*
%TO.P,U1,14,GND*%
X192020000Y-60300000D03*
%TO.P,U1,15,~Ethernet_nLED3*%
%TO.N,unconnected-(U1-Pad15)*%
X195100000Y-60700000D03*
%TO.P,U1,16,Ethernet_SYNC_IN*%
%TO.N,unconnected-(U1-Pad16)*%
X192020000Y-60700000D03*
%TO.P,U1,17,~Ethernet_nLED2*%
%TO.N,unconnected-(U1-Pad17)*%
X195100000Y-61100000D03*
%TO.P,U1,18,Ethernet_SYNC_OUT*%
%TO.N,unconnected-(U1-Pad18)*%
X192020000Y-61100000D03*
%TO.P,U1,19,~Ethernet_nLED1*%
%TO.N,unconnected-(U1-Pad19)*%
X195100000Y-61500000D03*
%TO.P,U1,20,EEPROM_nWP*%
%TO.N,unconnected-(U1-Pad20)*%
X192020000Y-61500000D03*
%TO.P,U1,21,~Pi_nLED_Activity*%
%TO.N,Net-(R12-Pad2)*%
X195100000Y-61900000D03*
%TO.P,U1,22,GND*%
%TO.N,Earth_Clean*%
X192020000Y-61900000D03*
%TO.P,U1,23,GND*%
X195100000Y-62300000D03*
%TO.P,U1,24,GPIO26*%
%TO.N,unconnected-(U1-Pad24)*%
X192020000Y-62300000D03*
%TO.P,U1,25,GPIO21*%
%TO.N,unconnected-(U1-Pad25)*%
X195100000Y-62700000D03*
%TO.P,U1,26,GPIO19*%
%TO.N,BacklightEnablePin*%
X192020000Y-62700000D03*
%TO.P,U1,27,GPIO20*%
%TO.N,unconnected-(U1-Pad27)*%
X195100000Y-63100000D03*
%TO.P,U1,28,GPIO13*%
%TO.N,unconnected-(U1-Pad28)*%
X192020000Y-63100000D03*
%TO.P,U1,29,GPIO16*%
%TO.N,unconnected-(U1-Pad29)*%
X195100000Y-63500000D03*
%TO.P,U1,30,GPIO6*%
%TO.N,unconnected-(U1-Pad30)*%
X192020000Y-63500000D03*
%TO.P,U1,31,GPIO12*%
%TO.N,unconnected-(U1-Pad31)*%
X195100000Y-63900000D03*
%TO.P,U1,32,GND*%
%TO.N,Earth_Clean*%
X192020000Y-63900000D03*
%TO.P,U1,33,GND*%
X195100000Y-64300000D03*
%TO.P,U1,34,GPIO5*%
%TO.N,unconnected-(U1-Pad34)*%
X192020000Y-64300000D03*
%TO.P,U1,35,ID_SC*%
%TO.N,unconnected-(U1-Pad35)*%
X195100000Y-64700000D03*
%TO.P,U1,36,ID_SD*%
%TO.N,unconnected-(U1-Pad36)*%
X192020000Y-64700000D03*
%TO.P,U1,37,GPIO7*%
%TO.N,unconnected-(U1-Pad37)*%
X195100000Y-65100000D03*
%TO.P,U1,38,GPIO11*%
%TO.N,unconnected-(U1-Pad38)*%
X192020000Y-65100000D03*
%TO.P,U1,39,GPIO8*%
%TO.N,unconnected-(U1-Pad39)*%
X195100000Y-65500000D03*
%TO.P,U1,40,GPIO9*%
%TO.N,piWatchDogPin*%
X192020000Y-65500000D03*
%TO.P,U1,41,GPIO25*%
%TO.N,unconnected-(U1-Pad41)*%
X195100000Y-65900000D03*
%TO.P,U1,42,GND*%
%TO.N,Earth_Clean*%
X192020000Y-65900000D03*
%TO.P,U1,43,GND*%
X195100000Y-66300000D03*
%TO.P,U1,44,GPIO10*%
%TO.N,unconnected-(U1-Pad44)*%
X192020000Y-66300000D03*
%TO.P,U1,45,GPIO24*%
%TO.N,unconnected-(U1-Pad45)*%
X195100000Y-66700000D03*
%TO.P,U1,46,GPIO22*%
%TO.N,unconnected-(U1-Pad46)*%
X192020000Y-66700000D03*
%TO.P,U1,47,GPIO23*%
%TO.N,unconnected-(U1-Pad47)*%
X195100000Y-67100000D03*
%TO.P,U1,48,GPIO27*%
%TO.N,unconnected-(U1-Pad48)*%
X192020000Y-67100000D03*
%TO.P,U1,49,GPIO18*%
%TO.N,unconnected-(U1-Pad49)*%
X195100000Y-67500000D03*
%TO.P,U1,50,GPIO17*%
%TO.N,unconnected-(U1-Pad50)*%
X192020000Y-67500000D03*
%TO.P,U1,51,GPIO15*%
%TO.N,SerialPin15*%
X195100000Y-67900000D03*
%TO.P,U1,52,GND*%
%TO.N,Earth_Clean*%
X192020000Y-67900000D03*
%TO.P,U1,53,GND*%
X195100000Y-68300000D03*
%TO.P,U1,54,GPIO4*%
%TO.N,unconnected-(U1-Pad54)*%
X192020000Y-68300000D03*
%TO.P,U1,55,GPIO14*%
%TO.N,SerialPin14*%
X195100000Y-68700000D03*
%TO.P,U1,56,GPIO3*%
%TO.N,unconnected-(U1-Pad56)*%
X192020000Y-68700000D03*
%TO.P,U1,57,SD_CLK*%
%TO.N,SD_CLK*%
X195100000Y-69100000D03*
%TO.P,U1,58,GPIO2*%
%TO.N,unconnected-(U1-Pad58)*%
X192020000Y-69100000D03*
%TO.P,U1,59,GND*%
%TO.N,Earth_Clean*%
X195100000Y-69500000D03*
%TO.P,U1,60,GND*%
X192020000Y-69500000D03*
%TO.P,U1,61,SD_DAT3*%
%TO.N,SD_DAT3*%
X195100000Y-69900000D03*
%TO.P,U1,62,SD_CMD*%
%TO.N,SD_CMD*%
X192020000Y-69900000D03*
%TO.P,U1,63,SD_DAT0*%
%TO.N,SD_DAT0*%
X195100000Y-70300000D03*
%TO.P,U1,64,SD_DAT5*%
%TO.N,SD_DAT5*%
X192020000Y-70300000D03*
%TO.P,U1,65,GND*%
%TO.N,Earth_Clean*%
X195100000Y-70700000D03*
%TO.P,U1,66,GND*%
X192020000Y-70700000D03*
%TO.P,U1,67,SD_DAT1*%
%TO.N,SD_DAT1*%
X195100000Y-71100000D03*
%TO.P,U1,68,SD_DAT4*%
%TO.N,SD_DAT4*%
X192020000Y-71100000D03*
%TO.P,U1,69,SD_DAT2*%
%TO.N,SD_DAT2*%
X195100000Y-71500000D03*
%TO.P,U1,70,SD_DAT7*%
%TO.N,SD_DAT7*%
X192020000Y-71500000D03*
%TO.P,U1,71,GND*%
%TO.N,Earth_Clean*%
X195100000Y-71900000D03*
%TO.P,U1,72,SD_DAT6*%
%TO.N,SD_DAT6*%
X192020000Y-71900000D03*
%TO.P,U1,73,SD_VDD_Override*%
%TO.N,unconnected-(U1-Pad73)*%
X195100000Y-72300000D03*
%TO.P,U1,74,GND*%
%TO.N,Earth_Clean*%
X192020000Y-72300000D03*
%TO.P,U1,75,SD_PWR_ON*%
%TO.N,SD_PWR_ON*%
X195100000Y-72700000D03*
%TO.P,U1,76,Reserved*%
%TO.N,unconnected-(U1-Pad76)*%
X192020000Y-72700000D03*
%TO.P,U1,77,+5V*%
%TO.N,+5*%
X195100000Y-73100000D03*
%TO.P,U1,78,GPIO_VREF*%
%TO.N,Earth_Clean*%
X192020000Y-73100000D03*
%TO.P,U1,79,+5V*%
%TO.N,+5*%
X195100000Y-73500000D03*
%TO.P,U1,80,I2C_SCL0*%
%TO.N,SCL*%
X192020000Y-73500000D03*
%TO.P,U1,81,+5V*%
%TO.N,+5*%
X195100000Y-73900000D03*
%TO.P,U1,82,I2C_SDA0*%
%TO.N,SDA*%
X192020000Y-73900000D03*
%TO.P,U1,83,+5V*%
%TO.N,+5*%
X195100000Y-74300000D03*
%TO.P,U1,84,CM4_3.3V_Out*%
%TO.N,+3.3*%
X192020000Y-74300000D03*
%TO.P,U1,85,+5V*%
%TO.N,+5*%
X195100000Y-74700000D03*
%TO.P,U1,86,CM4_3.3V_Out*%
%TO.N,+3.3*%
X192020000Y-74700000D03*
%TO.P,U1,87,+5V*%
%TO.N,+5*%
X195100000Y-75100000D03*
%TO.P,U1,88,CM4_1.8V_Out*%
%TO.N,+1.8*%
X192020000Y-75100000D03*
%TO.P,U1,89,~WL_nDisable*%
%TO.N,unconnected-(U1-Pad89)*%
X195100000Y-75500000D03*
%TO.P,U1,90,CM4_1.8V_Out*%
%TO.N,+1.8*%
X192020000Y-75500000D03*
%TO.P,U1,91,~BT_nDisable*%
%TO.N,unconnected-(U1-Pad91)*%
X195100000Y-75900000D03*
%TO.P,U1,92,RUN_PG*%
%TO.N,unconnected-(U1-Pad92)*%
X192020000Y-75900000D03*
%TO.P,U1,93,~nRPIBOOT*%
%TO.N,Net-(JP4-Pad2)*%
X195100000Y-76300000D03*
%TO.P,U1,94,AnalogIP1*%
%TO.N,unconnected-(U1-Pad94)*%
X192020000Y-76300000D03*
%TO.P,U1,95,~PI_LED_nPWR*%
%TO.N,unconnected-(U1-Pad95)*%
X195100000Y-76700000D03*
%TO.P,U1,96,AnalogIP0*%
%TO.N,unconnected-(U1-Pad96)*%
X192020000Y-76700000D03*
%TO.P,U1,97,Camera_GPIO*%
%TO.N,unconnected-(U1-Pad97)*%
X195100000Y-77100000D03*
%TO.P,U1,98,GND*%
%TO.N,Earth_Clean*%
X192020000Y-77100000D03*
%TO.P,U1,99,GLOBAL_EN*%
%TO.N,unconnected-(U1-Pad99)*%
X195100000Y-77500000D03*
%TO.P,U1,100,~nEXTRST*%
%TO.N,unconnected-(U1-Pad100)*%
X192020000Y-77500000D03*
%TO.P,U1,101,USB_OTG_ID*%
%TO.N,usbOTG_ID*%
X161180000Y-57900000D03*
%TO.P,U1,102,~PCIe_CLK_nREQ*%
%TO.N,unconnected-(U1-Pad102)*%
X158100000Y-57900000D03*
%TO.P,U1,103,USB_N*%
%TO.N,USB_HOST_N*%
X161180000Y-58300000D03*
%TO.P,U1,104,Reserved*%
%TO.N,unconnected-(U1-Pad104)*%
X158100000Y-58300000D03*
%TO.P,U1,105,USB_P*%
%TO.N,USB_HOST_P*%
X161180000Y-58700000D03*
%TO.P,U1,106,Reserved*%
%TO.N,unconnected-(U1-Pad106)*%
X158100000Y-58700000D03*
%TO.P,U1,107,GND*%
%TO.N,Earth_Clean*%
X161180000Y-59100000D03*
%TO.P,U1,108,GND*%
X158100000Y-59100000D03*
%TO.P,U1,109,~PCIe_nRST*%
%TO.N,unconnected-(U1-Pad109)*%
X161180000Y-59500000D03*
%TO.P,U1,110,PCIe_CLK_P*%
%TO.N,unconnected-(U1-Pad110)*%
X158100000Y-59500000D03*
%TO.P,U1,111,VDAC_COMP*%
%TO.N,unconnected-(U1-Pad111)*%
X161180000Y-59900000D03*
%TO.P,U1,112,PCIe_CLK_N*%
%TO.N,unconnected-(U1-Pad112)*%
X158100000Y-59900000D03*
%TO.P,U1,113,GND*%
%TO.N,Earth_Clean*%
X161180000Y-60300000D03*
%TO.P,U1,114,GND*%
X158100000Y-60300000D03*
%TO.P,U1,115,CAM1_D0_N*%
%TO.N,unconnected-(U1-Pad115)*%
X161180000Y-60700000D03*
%TO.P,U1,116,PCIe_RX_P*%
%TO.N,unconnected-(U1-Pad116)*%
X158100000Y-60700000D03*
%TO.P,U1,117,CAM1_D0_P*%
%TO.N,unconnected-(U1-Pad117)*%
X161180000Y-61100000D03*
%TO.P,U1,118,PCIe_RX_N*%
%TO.N,unconnected-(U1-Pad118)*%
X158100000Y-61100000D03*
%TO.P,U1,119,GND*%
%TO.N,Earth_Clean*%
X161180000Y-61500000D03*
%TO.P,U1,120,GND*%
X158100000Y-61500000D03*
%TO.P,U1,121,CAM1_D1_N*%
%TO.N,unconnected-(U1-Pad121)*%
X161180000Y-61900000D03*
%TO.P,U1,122,PCIe_TX_P*%
%TO.N,unconnected-(U1-Pad122)*%
X158100000Y-61900000D03*
%TO.P,U1,123,CAM1_D1_P*%
%TO.N,unconnected-(U1-Pad123)*%
X161180000Y-62300000D03*
%TO.P,U1,124,PCIe_TX_N*%
%TO.N,unconnected-(U1-Pad124)*%
X158100000Y-62300000D03*
%TO.P,U1,125,GND*%
%TO.N,Earth_Clean*%
X161180000Y-62700000D03*
%TO.P,U1,126,GND*%
X158100000Y-62700000D03*
%TO.P,U1,127,CAM1_C_N*%
%TO.N,unconnected-(U1-Pad127)*%
X161180000Y-63100000D03*
%TO.P,U1,128,CAM0_D0_N*%
%TO.N,unconnected-(U1-Pad128)*%
X158100000Y-63100000D03*
%TO.P,U1,129,CAM1_C_P*%
%TO.N,unconnected-(U1-Pad129)*%
X161180000Y-63500000D03*
%TO.P,U1,130,CAM0_D0_P*%
%TO.N,unconnected-(U1-Pad130)*%
X158100000Y-63500000D03*
%TO.P,U1,131,GND*%
%TO.N,Earth_Clean*%
X161180000Y-63900000D03*
%TO.P,U1,132,GND*%
X158100000Y-63900000D03*
%TO.P,U1,133,CAM1_D2_N*%
%TO.N,unconnected-(U1-Pad133)*%
X161180000Y-64300000D03*
%TO.P,U1,134,CAM0_D1_N*%
%TO.N,unconnected-(U1-Pad134)*%
X158100000Y-64300000D03*
%TO.P,U1,135,CAM1_D2_P*%
%TO.N,unconnected-(U1-Pad135)*%
X161180000Y-64700000D03*
%TO.P,U1,136,CAM0_D1_P*%
%TO.N,unconnected-(U1-Pad136)*%
X158100000Y-64700000D03*
%TO.P,U1,137,GND*%
%TO.N,Earth_Clean*%
X161180000Y-65100000D03*
%TO.P,U1,138,GND*%
X158100000Y-65100000D03*
%TO.P,U1,139,CAM1_D3_N*%
%TO.N,unconnected-(U1-Pad139)*%
X161180000Y-65500000D03*
%TO.P,U1,140,CAM0_C_N*%
%TO.N,unconnected-(U1-Pad140)*%
X158100000Y-65500000D03*
%TO.P,U1,141,CAM1_D3_P*%
%TO.N,unconnected-(U1-Pad141)*%
X161180000Y-65900000D03*
%TO.P,U1,142,CAM0_C_P*%
%TO.N,unconnected-(U1-Pad142)*%
X158100000Y-65900000D03*
%TO.P,U1,143,HDMI1_HOTPLUG*%
%TO.N,unconnected-(U1-Pad143)*%
X161180000Y-66300000D03*
%TO.P,U1,144,GND*%
%TO.N,Earth_Clean*%
X158100000Y-66300000D03*
%TO.P,U1,145,HDMI1_SDA*%
%TO.N,unconnected-(U1-Pad145)*%
X161180000Y-66700000D03*
%TO.P,U1,146,HDMI1_TX2_P*%
%TO.N,unconnected-(U1-Pad146)*%
X158100000Y-66700000D03*
%TO.P,U1,147,HDMI1_SCL*%
%TO.N,unconnected-(U1-Pad147)*%
X161180000Y-67100000D03*
%TO.P,U1,148,HDMI1_TX2_N*%
%TO.N,unconnected-(U1-Pad148)*%
X158100000Y-67100000D03*
%TO.P,U1,149,HDMI1_CEC*%
%TO.N,unconnected-(U1-Pad149)*%
X161180000Y-67500000D03*
%TO.P,U1,150,GND*%
%TO.N,Earth_Clean*%
X158100000Y-67500000D03*
%TO.P,U1,151,HDMI0_CEC*%
%TO.N,HDMI0_CEC*%
X161180000Y-67900000D03*
%TO.P,U1,152,HDMI1_TX1_P*%
%TO.N,unconnected-(U1-Pad152)*%
X158100000Y-67900000D03*
%TO.P,U1,153,HDMI0_HOTPLUG*%
%TO.N,HDMI0_HOTPLUG*%
X161180000Y-68300000D03*
%TO.P,U1,154,HDMI1_TX1_N*%
%TO.N,unconnected-(U1-Pad154)*%
X158100000Y-68300000D03*
%TO.P,U1,155,GND*%
%TO.N,Earth_Clean*%
X161180000Y-68700000D03*
%TO.P,U1,156,GND*%
X158100000Y-68700000D03*
%TO.P,U1,157,DSI0_D0_N*%
%TO.N,unconnected-(U1-Pad157)*%
X161180000Y-69100000D03*
%TO.P,U1,158,HDMI1_TX0_P*%
%TO.N,unconnected-(U1-Pad158)*%
X158100000Y-69100000D03*
%TO.P,U1,159,DSI0_D0_P*%
%TO.N,unconnected-(U1-Pad159)*%
X161180000Y-69500000D03*
%TO.P,U1,160,HDMI1_TX0_N*%
%TO.N,unconnected-(U1-Pad160)*%
X158100000Y-69500000D03*
%TO.P,U1,161,GND*%
%TO.N,Earth_Clean*%
X161180000Y-69900000D03*
%TO.P,U1,162,GND*%
X158100000Y-69900000D03*
%TO.P,U1,163,DSI0_D1_N*%
%TO.N,unconnected-(U1-Pad163)*%
X161180000Y-70300000D03*
%TO.P,U1,164,HDMI1_CLK_P*%
%TO.N,unconnected-(U1-Pad164)*%
X158100000Y-70300000D03*
%TO.P,U1,165,DSI0_D1_P*%
%TO.N,unconnected-(U1-Pad165)*%
X161180000Y-70700000D03*
%TO.P,U1,166,HDMI1_CLK_N*%
%TO.N,unconnected-(U1-Pad166)*%
X158100000Y-70700000D03*
%TO.P,U1,167,GND*%
%TO.N,Earth_Clean*%
X161180000Y-71100000D03*
%TO.P,U1,168,GND*%
X158100000Y-71100000D03*
%TO.P,U1,169,DSI0_C_N*%
%TO.N,unconnected-(U1-Pad169)*%
X161180000Y-71500000D03*
%TO.P,U1,170,HDMI0_TX2_P*%
%TO.N,HDMI0_TX2_P*%
X158100000Y-71500000D03*
%TO.P,U1,171,DSI0_C_P*%
%TO.N,unconnected-(U1-Pad171)*%
X161180000Y-71900000D03*
%TO.P,U1,172,HDMI0_TX2_N*%
%TO.N,HDMI0_TX2_N*%
X158100000Y-71900000D03*
%TO.P,U1,173,GND*%
%TO.N,Earth_Clean*%
X161180000Y-72300000D03*
%TO.P,U1,174,GND*%
X158100000Y-72300000D03*
%TO.P,U1,175,DSI1_D0_N*%
%TO.N,unconnected-(U1-Pad175)*%
X161180000Y-72700000D03*
%TO.P,U1,176,HDMI0_TX1_P*%
%TO.N,HDMI0_TX1_P*%
X158100000Y-72700000D03*
%TO.P,U1,177,DSI1_D0_P*%
%TO.N,unconnected-(U1-Pad177)*%
X161180000Y-73100000D03*
%TO.P,U1,178,HDMI0_TX1_N*%
%TO.N,HDMI0_TX1_N*%
X158100000Y-73100000D03*
%TO.P,U1,179,GND*%
%TO.N,Earth_Clean*%
X161180000Y-73500000D03*
%TO.P,U1,180,GND*%
X158100000Y-73500000D03*
%TO.P,U1,181,DSI1_D1_N*%
%TO.N,unconnected-(U1-Pad181)*%
X161180000Y-73900000D03*
%TO.P,U1,182,HDMI0_TX0_P*%
%TO.N,HDMI0_TX0_P*%
X158100000Y-73900000D03*
%TO.P,U1,183,DSI1_D1_P*%
%TO.N,unconnected-(U1-Pad183)*%
X161180000Y-74300000D03*
%TO.P,U1,184,HDMI0_TX0_N*%
%TO.N,HDMI0_TX0_N*%
X158100000Y-74300000D03*
%TO.P,U1,185,GND*%
%TO.N,Earth_Clean*%
X161180000Y-74700000D03*
%TO.P,U1,186,GND*%
X158100000Y-74700000D03*
%TO.P,U1,187,DSI1_C_N*%
%TO.N,unconnected-(U1-Pad187)*%
X161180000Y-75100000D03*
%TO.P,U1,188,HDMI0_CLK_P*%
%TO.N,HDMI0_CK_P*%
X158100000Y-75100000D03*
%TO.P,U1,189,DSI1_C_P*%
%TO.N,unconnected-(U1-Pad189)*%
X161180000Y-75500000D03*
%TO.P,U1,190,HDMI0_CLK_N*%
%TO.N,HDMI0_CK_N*%
X158100000Y-75500000D03*
%TO.P,U1,191,GND*%
%TO.N,Earth_Clean*%
X161180000Y-75900000D03*
%TO.P,U1,192,GND*%
X158100000Y-75900000D03*
%TO.P,U1,193,DSI1_D2_N*%
%TO.N,unconnected-(U1-Pad193)*%
X161180000Y-76300000D03*
%TO.P,U1,194,DSI1_D3_N*%
%TO.N,unconnected-(U1-Pad194)*%
X158100000Y-76300000D03*
%TO.P,U1,195,DSI1_D2_P*%
%TO.N,unconnected-(U1-Pad195)*%
X161180000Y-76700000D03*
%TO.P,U1,196,DSI1_D3_P*%
%TO.N,unconnected-(U1-Pad196)*%
X158100000Y-76700000D03*
%TO.P,U1,197,GND*%
%TO.N,Earth_Clean*%
X161180000Y-77100000D03*
%TO.P,U1,198,GND*%
X158100000Y-77100000D03*
%TO.P,U1,199,HDMI0_SDA*%
%TO.N,HDMI0_SDA*%
X161180000Y-77500000D03*
%TO.P,U1,200,HDMI0_SCL*%
%TO.N,HDMI0_SCL*%
X158100000Y-77500000D03*
%TD*%
D64*
%TO.P,TP12,1,1*%
%TO.N,usbOTG_ID*%
X165400000Y-57400000D03*
%TD*%
D44*
%TO.P,R16,1*%
%TO.N,+5*%
X127600000Y-72210000D03*
%TO.P,R16,2*%
%TO.N,Net-(R16-Pad2)*%
X132400000Y-72210000D03*
%TD*%
D21*
%TO.P,R19,1*%
%TO.N,Earth_Clean*%
X224737500Y-66400000D03*
%TO.P,R19,2*%
%TO.N,Net-(JP4-Pad1)*%
X227662500Y-66400000D03*
%TD*%
D18*
%TO.P,TP24,1,1*%
%TO.N,Net-(JP3-Pad2)*%
X137800000Y-117400000D03*
%TD*%
D65*
%TO.P,U7,1,PWRCTL3/BATEN3*%
%TO.N,unconnected-(U7-Pad1)*%
X119700000Y-60250000D03*
%TO.P,U7,2,VDD33*%
%TO.N,+3.3 High Current*%
X119700000Y-60750000D03*
%TO.P,U7,3,PWRCTL2/BATEN2*%
%TO.N,unconnected-(U7-Pad3)*%
X119700000Y-61250000D03*
%TO.P,U7,4,PWRCTL1/BATEN1*%
%TO.N,unconnected-(U7-Pad4)*%
X119700000Y-61750000D03*
%TO.P,U7,5,SDA/SMBDAT*%
%TO.N,Net-(TP21-Pad1)*%
X119700000Y-62250000D03*
%TO.P,U7,6,SCL/SMBCLK*%
%TO.N,Net-(TP20-Pad1)*%
X119700000Y-62750000D03*
%TO.P,U7,7,SMBUSz*%
%TO.N,Net-(TP22-Pad1)*%
X119700000Y-63250000D03*
%TO.P,U7,8,FULLPWRMGMTz/SMBA1*%
%TO.N,Net-(TP16-Pad1)*%
X119700000Y-63750000D03*
%TO.P,U7,9,PWRCTL_POL*%
%TO.N,Net-(TP17-Pad1)*%
X119700000Y-64250000D03*
%TO.P,U7,10,GANGED/SMBA2/HS_UP*%
%TO.N,Net-(TP18-Pad1)*%
X119700000Y-64750000D03*
%TO.P,U7,11,OVERCUR4z*%
%TO.N,unconnected-(U7-Pad11)*%
X119700000Y-65250000D03*
%TO.P,U7,12,OVERCUR3z*%
%TO.N,unconnected-(U7-Pad12)*%
X119700000Y-65750000D03*
%TO.P,U7,13,AUTOENz/HS_SUSPEND*%
%TO.N,Net-(TP19-Pad1)*%
X119700000Y-66250000D03*
%TO.P,U7,14,OVERCUR1z*%
%TO.N,unconnected-(U7-Pad14)*%
X119700000Y-66750000D03*
%TO.P,U7,15,OVERCUR2z*%
%TO.N,unconnected-(U7-Pad15)*%
X119700000Y-67250000D03*
%TO.P,U7,16,USB_VBUS*%
%TO.N,Net-(R16-Pad2)*%
X119700000Y-67750000D03*
D66*
%TO.P,U7,17,TEST*%
%TO.N,unconnected-(U7-Pad17)*%
X117750000Y-69700000D03*
%TO.P,U7,18,GRSTz*%
%TO.N,Net-(TP13-Pad1)*%
X117250000Y-69700000D03*
%TO.P,U7,19,VDD*%
%TO.N,+1*%
X116750000Y-69700000D03*
%TO.P,U7,20,VDD33*%
%TO.N,+3.3 High Current*%
X116250000Y-69700000D03*
%TO.P,U7,21,USB_DP_UP*%
%TO.N,USB_HOST_P*%
X115750000Y-69700000D03*
%TO.P,U7,22,USB_DM_UP*%
%TO.N,USB_HOST_N*%
X115250000Y-69700000D03*
%TO.P,U7,23,RSVD*%
%TO.N,unconnected-(U7-Pad23)*%
X114750000Y-69700000D03*
%TO.P,U7,24,RSVD*%
%TO.N,unconnected-(U7-Pad24)*%
X114250000Y-69700000D03*
%TO.P,U7,25,VDD*%
%TO.N,+1*%
X113750000Y-69700000D03*
%TO.P,U7,26,RSVD*%
%TO.N,unconnected-(U7-Pad26)*%
X113250000Y-69700000D03*
%TO.P,U7,27,RSVD*%
%TO.N,unconnected-(U7-Pad27)*%
X112750000Y-69700000D03*
%TO.P,U7,28,NC*%
%TO.N,unconnected-(U7-Pad28)*%
X112250000Y-69700000D03*
%TO.P,U7,29,XO*%
%TO.N,Net-(C15-Pad1)*%
X111750000Y-69700000D03*
%TO.P,U7,30,XI*%
%TO.N,Net-(C14-Pad1)*%
X111250000Y-69700000D03*
%TO.P,U7,31,VDD33*%
%TO.N,+3.3 High Current*%
X110750000Y-69700000D03*
%TO.P,U7,32,USB_R1*%
%TO.N,Net-(R15-Pad1)*%
X110250000Y-69700000D03*
D65*
%TO.P,U7,33,USB_DP_DN1*%
%TO.N,Net-(J4-Pad3)*%
X108300000Y-67750000D03*
%TO.P,U7,34,USB_DM_DN1*%
%TO.N,Net-(J4-Pad2)*%
X108300000Y-67250000D03*
%TO.P,U7,35,RSVD*%
%TO.N,unconnected-(U7-Pad35)*%
X108300000Y-66750000D03*
%TO.P,U7,36,RSVD*%
%TO.N,unconnected-(U7-Pad36)*%
X108300000Y-66250000D03*
%TO.P,U7,37,VDD*%
%TO.N,+1*%
X108300000Y-65750000D03*
%TO.P,U7,38,RSVD*%
%TO.N,unconnected-(U7-Pad38)*%
X108300000Y-65250000D03*
%TO.P,U7,39,RSVD*%
%TO.N,unconnected-(U7-Pad39)*%
X108300000Y-64750000D03*
%TO.P,U7,40,NC*%
%TO.N,unconnected-(U7-Pad40)*%
X108300000Y-64250000D03*
%TO.P,U7,41,USB_DP_DN2*%
%TO.N,Net-(J5-Pad3)*%
X108300000Y-63750000D03*
%TO.P,U7,42,USB_DM_DN2*%
%TO.N,Net-(J5-Pad2)*%
X108300000Y-63250000D03*
%TO.P,U7,43,RSVD*%
%TO.N,unconnected-(U7-Pad43)*%
X108300000Y-62750000D03*
%TO.P,U7,44,RSVD*%
%TO.N,unconnected-(U7-Pad44)*%
X108300000Y-62250000D03*
%TO.P,U7,45,VDD*%
%TO.N,+1*%
X108300000Y-61750000D03*
%TO.P,U7,46,RSVD*%
%TO.N,Earth_Clean*%
X108300000Y-61250000D03*
%TO.P,U7,47,RSVD*%
%TO.N,unconnected-(U7-Pad47)*%
X108300000Y-60750000D03*
%TO.P,U7,48,VDD33*%
%TO.N,+3.3 High Current*%
X108300000Y-60250000D03*
D66*
%TO.P,U7,49,USB_DP_DN3*%
%TO.N,/USB and Keyboard connections/KEYBOARD_USB_DP*%
X110250000Y-58300000D03*
%TO.P,U7,50,USB_DM_DN3*%
%TO.N,/USB and Keyboard connections/KEYBOARD_USB_DN*%
X110750000Y-58300000D03*
%TO.P,U7,51,RSVD*%
%TO.N,unconnected-(U7-Pad51)*%
X111250000Y-58300000D03*
%TO.P,U7,52,RSVD*%
%TO.N,unconnected-(U7-Pad52)*%
X111750000Y-58300000D03*
%TO.P,U7,53,VDD*%
%TO.N,+1*%
X112250000Y-58300000D03*
%TO.P,U7,54,RSVD*%
%TO.N,unconnected-(U7-Pad54)*%
X112750000Y-58300000D03*
%TO.P,U7,55,RSVD*%
%TO.N,unconnected-(U7-Pad55)*%
X113250000Y-58300000D03*
%TO.P,U7,56,USB_DP_DN4*%
%TO.N,Net-(TP14-Pad1)*%
X113750000Y-58300000D03*
%TO.P,U7,57,USB_DM_DN4*%
%TO.N,Net-(TP15-Pad1)*%
X114250000Y-58300000D03*
%TO.P,U7,58,RSVD*%
%TO.N,unconnected-(U7-Pad58)*%
X114750000Y-58300000D03*
%TO.P,U7,59,RSVD*%
%TO.N,unconnected-(U7-Pad59)*%
X115250000Y-58300000D03*
%TO.P,U7,60,VDD*%
%TO.N,+1*%
X115750000Y-58300000D03*
%TO.P,U7,61,RSVD*%
%TO.N,unconnected-(U7-Pad61)*%
X116250000Y-58300000D03*
%TO.P,U7,62,RSVD*%
%TO.N,unconnected-(U7-Pad62)*%
X116750000Y-58300000D03*
%TO.P,U7,63,VDD*%
%TO.N,+1*%
X117250000Y-58300000D03*
%TO.P,U7,64,PWRCTL4/BATEN4*%
%TO.N,unconnected-(U7-Pad64)*%
X117750000Y-58300000D03*
D52*
%TO.P,U7,65,VSS*%
%TO.N,Earth_Clean*%
X111500000Y-60500000D03*
X117500000Y-61500000D03*
X116500000Y-64500000D03*
X112500000Y-60500000D03*
X112500000Y-65500000D03*
X111500000Y-61500000D03*
X115500000Y-67500000D03*
X116500000Y-63500000D03*
X112500000Y-61500000D03*
X113500000Y-64500000D03*
X113500000Y-67500000D03*
X117500000Y-62500000D03*
X115500000Y-63500000D03*
X110500000Y-62500000D03*
X116500000Y-61500000D03*
X111500000Y-64500000D03*
X114500000Y-60500000D03*
X111500000Y-66500000D03*
X111500000Y-63500000D03*
X116500000Y-67500000D03*
X113500000Y-63500000D03*
X115500000Y-66500000D03*
X110500000Y-66500000D03*
X117500000Y-64500000D03*
X112500000Y-63500000D03*
X112500000Y-67500000D03*
X116500000Y-66500000D03*
X115500000Y-60500000D03*
X113500000Y-65500000D03*
X111500000Y-65500000D03*
X110500000Y-67500000D03*
X112500000Y-62500000D03*
X113500000Y-61500000D03*
X115500000Y-65500000D03*
X110500000Y-63500000D03*
X113500000Y-60500000D03*
X114500000Y-66500000D03*
X117500000Y-66500000D03*
X114500000Y-65500000D03*
X111500000Y-67500000D03*
X110500000Y-61500000D03*
X113500000Y-62500000D03*
X114500000Y-64500000D03*
X117500000Y-60500000D03*
D67*
X114000000Y-64000000D03*
D52*
X114500000Y-63500000D03*
X114500000Y-67500000D03*
X112500000Y-64500000D03*
X112500000Y-66500000D03*
X114500000Y-61500000D03*
X113500000Y-66500000D03*
X115500000Y-62500000D03*
X110500000Y-64500000D03*
X115500000Y-61500000D03*
X110500000Y-65500000D03*
X116500000Y-60500000D03*
X111500000Y-62500000D03*
X116500000Y-65500000D03*
X117500000Y-67500000D03*
X117500000Y-63500000D03*
X114500000Y-62500000D03*
X116500000Y-62500000D03*
X115500000Y-64500000D03*
X117500000Y-65500000D03*
X110500000Y-60500000D03*
%TD*%
D29*
%TO.P,J3,1,Pin_1*%
%TO.N,BAT+*%
X247200000Y-75600000D03*
D30*
%TO.P,J3,2,Pin_2*%
%TO.N,batCell+*%
X244660000Y-75600000D03*
%TD*%
D23*
%TO.P,TP4,1,1*%
%TO.N,SDA*%
X220125168Y-44000000D03*
%TD*%
D40*
%TO.P,J5,1,VBUS*%
%TO.N,+5*%
X112400000Y-45590000D03*
D41*
%TO.P,J5,2,D-*%
%TO.N,Net-(J5-Pad2)*%
X114900000Y-45590000D03*
%TO.P,J5,3,D+*%
%TO.N,Net-(J5-Pad3)*%
X116900000Y-45590000D03*
%TO.P,J5,4,GND*%
%TO.N,Earth_Clean*%
X119400000Y-45590000D03*
D60*
%TO.P,J5,5,Shield*%
X122470000Y-42880000D03*
X109330000Y-42880000D03*
%TD*%
D20*
%TO.P,R3,1*%
%TO.N,Earth_Clean*%
X143062500Y-96000000D03*
%TO.P,R3,2*%
%TO.N,Net-(R3-Pad2)*%
X140137500Y-96000000D03*
%TD*%
D31*
%TO.P,C5,1*%
%TO.N,Earth_Clean*%
X127200000Y-84475000D03*
%TO.P,C5,2*%
%TO.N,BAT+*%
X127200000Y-81525000D03*
%TD*%
D28*
%TO.P,C10,1*%
%TO.N,Net-(C10-Pad1)*%
X142675000Y-43600000D03*
%TO.P,C10,2*%
%TO.N,Net-(C10-Pad2)*%
X139725000Y-43600000D03*
%TD*%
D27*
%TO.P,D84,1,K*%
%TO.N,batCell+*%
X99350000Y-77100000D03*
%TO.P,D84,2,A*%
%TO.N,Net-(D84-Pad2)*%
X102650000Y-77100000D03*
%TD*%
D22*
%TO.P,R7,1*%
%TO.N,Net-(D81-Pad2)*%
X249000000Y-42737500D03*
%TO.P,R7,2*%
%TO.N,CCVref*%
X249000000Y-45662500D03*
%TD*%
D28*
%TO.P,C8,1*%
%TO.N,Earth_Clean*%
X149800000Y-59000000D03*
%TO.P,C8,2*%
%TO.N,Net-(C8-Pad2)*%
X146850000Y-59000000D03*
%TD*%
D32*
%TO.P,C9,1*%
%TO.N,Net-(C9-Pad1)*%
X146725000Y-43600000D03*
%TO.P,C9,2*%
%TO.N,Earth_Clean*%
X149675000Y-43600000D03*
%TD*%
D31*
%TO.P,C2,1*%
%TO.N,Net-(C2-Pad1)*%
X132200000Y-84275000D03*
%TO.P,C2,2*%
%TO.N,Earth_Clean*%
X132200000Y-81325000D03*
%TD*%
D18*
%TO.P,TP20,1,1*%
%TO.N,Net-(TP20-Pad1)*%
X123600000Y-63000000D03*
%TD*%
D68*
%TO.P,U8,1,IN*%
%TO.N,+5*%
X84200000Y-65680952D03*
%TO.P,U8,2,GND*%
%TO.N,Earth_Clean*%
X84200000Y-64730952D03*
%TO.P,U8,3,EN*%
%TO.N,+5*%
X84200000Y-63780952D03*
%TO.P,U8,4,NC*%
%TO.N,unconnected-(U8-Pad4)*%
X86900000Y-63780952D03*
%TO.P,U8,5,OUT*%
%TO.N,+1*%
X86900000Y-65680952D03*
%TD*%
D22*
%TO.P,R22,1*%
%TO.N,SCL*%
X224800000Y-46737500D03*
%TO.P,R22,2*%
%TO.N,+3.3*%
X224800000Y-49662500D03*
%TD*%
D20*
%TO.P,R5,1*%
%TO.N,!ChargeStatus*%
X143662500Y-91200000D03*
%TO.P,R5,2*%
%TO.N,CCVref*%
X140737500Y-91200000D03*
%TD*%
D47*
%TO.P,TP0,1,1*%
%TO.N,Earth_Clean*%
X229969048Y-44000000D03*
%TD*%
D24*
%TO.P,R8,1*%
%TO.N,batCell+*%
X134400000Y-104462500D03*
%TO.P,R8,2*%
%TO.N,Net-(R8-Pad2)*%
X134400000Y-101537500D03*
%TD*%
D21*
%TO.P,R6,1*%
%TO.N,!PowerGood*%
X140737500Y-86600000D03*
%TO.P,R6,2*%
%TO.N,CCVref*%
X143662500Y-86600000D03*
%TD*%
D18*
%TO.P,TP14,1,1*%
%TO.N,Net-(TP14-Pad1)*%
X112800000Y-53200000D03*
%TD*%
D69*
%TO.N,Earth_Clean*%
X187200000Y-104200000D03*
X187155000Y-107762500D03*
X169854288Y-98145712D03*
X171600000Y-96600000D03*
D70*
%TO.N,relay_no_b*%
X96000000Y-69800000D03*
%TO.N,HDMI0_CK_N*%
X139570000Y-76200000D03*
%TO.N,HDMI0_CK_P*%
X140460000Y-75110000D03*
%TO.N,HDMI0_TX0_N*%
X141171212Y-74341212D03*
%TO.N,HDMI0_TX0_P*%
X142150000Y-73940000D03*
%TO.N,HDMI0_TX1_N*%
X143280000Y-73110000D03*
%TO.N,HDMI0_TX1_P*%
X144070000Y-72390000D03*
%TO.N,HDMI0_TX2_N*%
X145000000Y-71590000D03*
%TO.N,col9*%
X227600000Y-85800000D03*
X125600000Y-145400000D03*
X225000000Y-108000000D03*
X153600000Y-136200000D03*
X183800000Y-134200000D03*
X183800000Y-137000000D03*
X225200000Y-74800000D03*
X207800000Y-126400000D03*
X224600000Y-125600000D03*
X156800000Y-136200000D03*
X153600000Y-141725010D03*
X199200000Y-121400000D03*
X226200000Y-119200000D03*
X194250933Y-120450924D03*
%TO.N,col7*%
X226400000Y-106000000D03*
X75600000Y-114200000D03*
X163800000Y-118600000D03*
X214200000Y-105600000D03*
X123800000Y-124000000D03*
X143600000Y-127400000D03*
X223600000Y-133400000D03*
X221200000Y-135000000D03*
X75200000Y-99200000D03*
X210439402Y-105391393D03*
X237000000Y-104200000D03*
X79400000Y-117200000D03*
X154400000Y-130600000D03*
X157200000Y-109000000D03*
%TO.N,col8*%
X170777895Y-106325010D03*
X170200000Y-109074990D03*
X235600000Y-104400000D03*
X175000000Y-119600000D03*
X75600000Y-98200000D03*
X214325010Y-95002163D03*
X113000000Y-106400000D03*
X170601017Y-114674990D03*
X163887340Y-134687340D03*
X156159327Y-129725010D03*
X151200000Y-128200000D03*
%TO.N,col0*%
X123400000Y-117600000D03*
X149000000Y-125400000D03*
X72200000Y-124600000D03*
X238800000Y-91400000D03*
X121000000Y-120000000D03*
X251274990Y-89800000D03*
X247194454Y-133994454D03*
X156600000Y-128800000D03*
X147000000Y-121400000D03*
X137200000Y-114000000D03*
X200000000Y-133200000D03*
X101800000Y-141000000D03*
%TO.N,Net-(D84-Pad2)*%
X101800000Y-78400000D03*
X99912660Y-79687340D03*
%TO.N,Net-(R12-Pad2)*%
X252200000Y-47800000D03*
X208718838Y-53871126D03*
%TO.N,+5*%
X133600000Y-121800000D03*
X129612660Y-71187340D03*
X136680578Y-57874990D03*
X134600000Y-48400000D03*
X130200000Y-67525010D03*
X143462500Y-63400000D03*
X223587340Y-42587340D03*
X187200000Y-53600000D03*
X194200000Y-73600000D03*
X131600000Y-134000000D03*
%TO.N,Earth_Clean*%
X159600925Y-80820729D03*
X131624959Y-122600000D03*
X247000000Y-41600000D03*
X115400000Y-76200000D03*
X135404116Y-85800000D03*
X87200000Y-51400000D03*
X99500000Y-100500000D03*
X72000000Y-142200000D03*
X86200000Y-81000000D03*
X147420000Y-85020000D03*
X137400000Y-104200000D03*
X108200000Y-75800000D03*
X134194796Y-87050779D03*
X131149990Y-100600000D03*
X141000000Y-54000000D03*
X128000000Y-42800000D03*
X129800000Y-132000000D03*
X149605546Y-51205546D03*
X132950000Y-51550000D03*
X134400000Y-68200000D03*
X146000000Y-96000000D03*
X159800000Y-53400000D03*
%TO.N,SDA*%
X211800000Y-47200000D03*
X138800000Y-90000000D03*
X220000000Y-42400000D03*
X188205582Y-74205582D03*
%TO.N,SCL*%
X215700010Y-44021732D03*
X189331890Y-73360297D03*
X138800000Y-91000000D03*
X224400000Y-45600000D03*
%TO.N,+3.3*%
X225000000Y-43400000D03*
X192809313Y-74408664D03*
X254400000Y-41800000D03*
D69*
X186140000Y-86590000D03*
X190860000Y-76060000D03*
X190080000Y-76090000D03*
D70*
%TO.N,+3.3 High Current*%
X107200000Y-71800000D03*
X105000000Y-68800000D03*
X125600000Y-67000000D03*
X104400000Y-60250000D03*
X88800000Y-59600000D03*
X98400000Y-60200000D03*
X114137536Y-72337531D03*
%TO.N,5vRegulator*%
X140400000Y-63000000D03*
X144400000Y-49200000D03*
%TO.N,Net-(J4-Pad2)*%
X100000000Y-50600000D03*
X105600000Y-67200000D03*
%TO.N,Net-(J5-Pad2)*%
X105674990Y-62800000D03*
%TO.N,row0*%
X87600000Y-94400000D03*
X211600000Y-118400000D03*
X226800000Y-124200000D03*
X202400000Y-117200000D03*
%TO.N,Net-(J5-Pad3)*%
X106400000Y-63800000D03*
%TO.N,Net-(JP4-Pad2)*%
X236200000Y-77000000D03*
X200000000Y-76200000D03*
%TO.N,row4*%
X213686179Y-125274990D03*
X242000000Y-69400000D03*
X210800000Y-133600000D03*
X164400000Y-144200000D03*
X117587340Y-143412660D03*
X225125010Y-116400000D03*
X220800000Y-123400000D03*
X164400000Y-146800000D03*
X210800000Y-141074990D03*
%TO.N,row5*%
X219800000Y-55600000D03*
X125397997Y-127625021D03*
X220800000Y-72400000D03*
X115527796Y-106753116D03*
X200400000Y-95000000D03*
X120200000Y-121400000D03*
X209600000Y-80000000D03*
X221800000Y-86000000D03*
X220800000Y-76274990D03*
X122200000Y-125000000D03*
X197800000Y-94200000D03*
X234000000Y-88600000D03*
X221800000Y-51600000D03*
X207800000Y-75000000D03*
X237000000Y-88400000D03*
X122000000Y-116600000D03*
X210000000Y-92000000D03*
%TO.N,row6*%
X240200000Y-116000000D03*
X246600000Y-112400000D03*
X208200000Y-104800000D03*
X222000000Y-100400000D03*
X247200000Y-103200000D03*
X233800000Y-98600000D03*
X209800000Y-110800000D03*
X209600000Y-132600000D03*
X246200000Y-106800000D03*
X221800000Y-112000000D03*
X221000000Y-107800000D03*
X208000000Y-118800000D03*
X225200000Y-114200000D03*
X234000000Y-111600000D03*
%TO.N,row7*%
X220000000Y-135000000D03*
X127125010Y-129000000D03*
X226000000Y-135400000D03*
X101125010Y-132324835D03*
X223000000Y-135200000D03*
X208000000Y-138600000D03*
X208400000Y-132600000D03*
X220400000Y-138125010D03*
X125224978Y-129942949D03*
%TO.N,Net-(TP14-Pad1)*%
X113400000Y-56400000D03*
X113400000Y-54600000D03*
%TO.N,Net-(D1-Pad2)*%
X252600000Y-37200000D03*
%TO.N,Net-(TP15-Pad1)*%
X114600000Y-56400000D03*
X114600000Y-54600000D03*
%TO.N,BAT+*%
X132200000Y-91000000D03*
X126725010Y-93600000D03*
X112600000Y-87000000D03*
X193000000Y-84600000D03*
X99600000Y-68400000D03*
%TO.N,Net-(C3-Pad1)*%
X132850010Y-88800000D03*
X128400000Y-90000000D03*
%TO.N,piWatchDogPin*%
X188800000Y-65600000D03*
X133400000Y-98600000D03*
%TO.N,+1.8*%
X81200000Y-58600000D03*
X177200000Y-75200000D03*
X174400000Y-60200000D03*
%TO.N,Net-(D81-Pad2)*%
X249000000Y-38600000D03*
%TO.N,Net-(D81-Pad1)*%
X250600000Y-41600000D03*
X148800000Y-88400000D03*
X197200000Y-84600000D03*
X139630377Y-89274990D03*
%TO.N,Net-(R1-Pad2)*%
X135512660Y-97874990D03*
X138909085Y-94916235D03*
X129800000Y-97800000D03*
X87400000Y-84000000D03*
%TO.N,CCVref*%
X195949845Y-85624835D03*
X249000000Y-47400000D03*
%TO.N,!PowerGood*%
X138947414Y-88524990D03*
X140800000Y-88000000D03*
%TO.N,Net-(R4-Pad2)*%
X134600000Y-95000000D03*
X129600000Y-99649990D03*
%TO.N,Net-(R8-Pad2)*%
X135800000Y-95200000D03*
X134450010Y-99587340D03*
%TO.N,Net-(D82-Pad2)*%
X223000000Y-55400000D03*
X228000000Y-39200000D03*
X107400000Y-102800000D03*
X222000000Y-58800000D03*
%TO.N,Net-(C9-Pad1)*%
X145400000Y-45000000D03*
X136200000Y-50400000D03*
%TO.N,Net-(C10-Pad2)*%
X140073726Y-54499990D03*
X141600000Y-58600000D03*
X140200000Y-47200000D03*
X138800000Y-45600000D03*
X141600000Y-48400000D03*
%TO.N,batCell+*%
X97400000Y-57200000D03*
%TO.N,Net-(TP16-Pad1)*%
X122600000Y-64074990D03*
%TO.N,SetPowerOFF*%
X98400000Y-79800000D03*
%TO.N,Net-(U5-Pad5)*%
X96000000Y-104800000D03*
X62000000Y-111000000D03*
%TO.N,col1*%
X200600000Y-101400000D03*
X212000000Y-130600000D03*
X150578453Y-107181604D03*
X198512660Y-113474990D03*
X135187340Y-120987340D03*
X210200000Y-58600000D03*
X204541310Y-115775021D03*
X119600000Y-116000000D03*
X96600000Y-115800000D03*
X214000000Y-50600000D03*
%TO.N,+1*%
X110032191Y-72725010D03*
X113200000Y-72800000D03*
X98600000Y-61400000D03*
X96000000Y-63800000D03*
%TO.N,Net-(TP17-Pad1)*%
X121800000Y-64800000D03*
%TO.N,Net-(TP18-Pad1)*%
X122800000Y-65600000D03*
%TO.N,Net-(TP19-Pad1)*%
X122800000Y-66600000D03*
%TO.N,Net-(TP13-Pad1)*%
X117690000Y-71720000D03*
%TO.N,USB_HOST_N*%
X163800000Y-57949980D03*
X114600000Y-71050002D03*
%TO.N,USB_HOST_P*%
X115624943Y-71400000D03*
X166400000Y-58649990D03*
%TO.N,Net-(TP22-Pad1)*%
X121942937Y-63281277D03*
%TO.N,Net-(D2-Pad1)*%
X243600000Y-41600000D03*
%TO.N,Net-(D4-Pad1)*%
X240000000Y-41400000D03*
%TO.N,Net-(R18-Pad1)*%
X131000000Y-141000000D03*
X131000000Y-138200000D03*
%TO.N,Net-(R20-Pad1)*%
X207000000Y-137800000D03*
X223000000Y-138000000D03*
%TO.N,Net-(R15-Pad1)*%
X88571438Y-75607436D03*
X109000000Y-69800000D03*
%TO.N,Net-(J4-Pad3)*%
X106600000Y-67800000D03*
X100800000Y-49600000D03*
%TO.N,/USB and Keyboard connections/KEYBOARD_USB_DN*%
X133400000Y-119600000D03*
X102600000Y-59400000D03*
%TO.N,/USB and Keyboard connections/KEYBOARD_USB_DP*%
X131400000Y-119600000D03*
X103800000Y-59400000D03*
%TO.N,col3*%
X226499216Y-94274990D03*
X224224979Y-94274990D03*
X236800000Y-131000000D03*
X113200000Y-131200000D03*
X112400000Y-127725010D03*
X152143539Y-135518191D03*
X102600000Y-111600000D03*
X101400000Y-109600000D03*
%TO.N,col5*%
X116000000Y-114200000D03*
X144400000Y-126600000D03*
X162200000Y-115400000D03*
X149200000Y-116800000D03*
X73037423Y-100000000D03*
X213400000Y-75000000D03*
X140200000Y-130600000D03*
X137000000Y-134200000D03*
X119000000Y-114600000D03*
X212000000Y-140600000D03*
X212400000Y-104200000D03*
X212400000Y-120200000D03*
X130800000Y-109200000D03*
X207725010Y-114200000D03*
X142200000Y-128600000D03*
X211600000Y-128800000D03*
X213600000Y-78400000D03*
X138200000Y-114725010D03*
X212000000Y-133600000D03*
X117366633Y-116987759D03*
%TO.N,row1*%
X100400000Y-110600000D03*
X86600000Y-110600000D03*
X73487435Y-110630377D03*
%TO.N,col2*%
X226200000Y-128600000D03*
X138408764Y-125470496D03*
X95800000Y-126000000D03*
X95800000Y-123200000D03*
X200257446Y-59352589D03*
X212400000Y-102000000D03*
%TO.N,col4*%
X222149845Y-136775165D03*
X153812660Y-128787340D03*
X217800000Y-84400000D03*
X114200000Y-108800000D03*
X226400000Y-84400000D03*
X116000000Y-110600000D03*
X239000000Y-104000000D03*
X118800000Y-124600000D03*
X116906349Y-128189075D03*
%TO.N,col6*%
X82600000Y-119000000D03*
X108400000Y-127000000D03*
X74474990Y-110400000D03*
X74200000Y-99400000D03*
X141513348Y-127175010D03*
%TO.N,row3*%
X154600000Y-133200000D03*
X114000000Y-128400000D03*
X191000000Y-135000000D03*
X178000000Y-132600000D03*
X92200000Y-136000000D03*
X164800000Y-132200000D03*
X190948000Y-137074990D03*
X118800000Y-134400000D03*
X111400000Y-139000000D03*
X88200000Y-132000000D03*
X118200000Y-126400000D03*
X111400000Y-133400000D03*
%TO.N,row2*%
X145600000Y-119800000D03*
X124800000Y-125000000D03*
X136600000Y-119400000D03*
X119005850Y-125674990D03*
X181400000Y-130200000D03*
X92667809Y-122725010D03*
X173000000Y-123600000D03*
X80000000Y-120800000D03*
X181400000Y-128024979D03*
X146000000Y-122200000D03*
X150800000Y-124400000D03*
X181200000Y-137074990D03*
D69*
%TO.N,SD_DAT1*%
X184160000Y-86550000D03*
X193830000Y-71500000D03*
%TO.N,SD_DAT0*%
X196030000Y-70310000D03*
X184730000Y-86580000D03*
%TO.N,SD_CLK*%
X185520000Y-86580000D03*
X194150000Y-68750000D03*
%TO.N,SD_CMD*%
X186700000Y-86600000D03*
X192900000Y-70010000D03*
%TO.N,SD_DAT3*%
X196780000Y-69920000D03*
X187230000Y-86630000D03*
%TO.N,SD_DAT2*%
X197138110Y-71500000D03*
X187860000Y-86700000D03*
D70*
%TO.N,HDMI0_CEC*%
X138910000Y-75030000D03*
D69*
X160280000Y-67700000D03*
D70*
%TO.N,HDMI0_HOTPLUG*%
X137540000Y-75890000D03*
D69*
X160170000Y-68220000D03*
D70*
%TO.N,HDMI0_TX2_P*%
X145940000Y-71110000D03*
%TO.N,HDMI0_SDA*%
X137370000Y-86370000D03*
D69*
X153490000Y-83200000D03*
D70*
%TO.N,HDMI0_SCL*%
X138120000Y-85450000D03*
D69*
X151360000Y-84710000D03*
%TD*%
D71*
%TO.N,Earth_Clean*%
X187255000Y-104145000D02*
X187200000Y-104200000D01*
X187255000Y-96432500D02*
X187255000Y-104145000D01*
X169854288Y-98145712D02*
X171541107Y-99832531D01*
X168483596Y-96775020D02*
X169854288Y-98145712D01*
%TO.N,+3.3*%
X176899989Y-99382511D02*
X179610000Y-96672500D01*
X171794089Y-99382511D02*
X176899989Y-99382511D01*
X168795000Y-95550000D02*
X168795000Y-96383422D01*
X168795000Y-96383422D02*
X171794089Y-99382511D01*
%TO.N,Earth_Clean*%
X171917500Y-96282500D02*
X171600000Y-96600000D01*
%TO.N,+3.3*%
X179610000Y-96672500D02*
X179610000Y-95802500D01*
%TO.N,Earth_Clean*%
X172865000Y-96282500D02*
X171917500Y-96282500D01*
X186828596Y-96858904D02*
X187255000Y-96432500D01*
X180060020Y-96858904D02*
X186828596Y-96858904D01*
X171541107Y-99832531D02*
X177086393Y-99832531D01*
X168231818Y-96775020D02*
X168483596Y-96775020D01*
X177086393Y-99832531D02*
X180060020Y-96858904D01*
X167894980Y-96438182D02*
X168231818Y-96775020D01*
X167894980Y-95550000D02*
X167894980Y-96438182D01*
X165845000Y-95550000D02*
X167894980Y-95550000D01*
%TO.N,relay_no_b*%
X95847300Y-69952700D02*
X92545400Y-69952700D01*
X96000000Y-69800000D02*
X95847300Y-69952700D01*
%TO.N,SD_DAT2*%
X182600000Y-95272500D02*
X182600000Y-91960000D01*
X182910000Y-95582500D02*
X182600000Y-95272500D01*
D72*
%TO.N,SD_DAT3*%
X181810000Y-95802500D02*
X181810000Y-92050000D01*
X181810000Y-92050000D02*
X187230000Y-86630000D01*
D71*
%TO.N,SD_DAT2*%
X182910000Y-95802500D02*
X182910000Y-95582500D01*
X182600000Y-91960000D02*
X187860000Y-86700000D01*
%TO.N,+5*%
X90802128Y-69155972D02*
X85300020Y-69155972D01*
X85300020Y-69155972D02*
X84075000Y-67930952D01*
X92545400Y-67412700D02*
X90802128Y-69155972D01*
D72*
%TO.N,HDMI0_CK_N*%
X141030000Y-76200000D02*
X139570000Y-76200000D01*
X158100000Y-75500000D02*
X141730000Y-75500000D01*
X141730000Y-75500000D02*
X141030000Y-76200000D01*
D71*
%TO.N,col9*%
X156800000Y-136200000D02*
X153600000Y-136200000D01*
X227600000Y-80400000D02*
X227600000Y-85800000D01*
X153600000Y-142000000D02*
X153600000Y-141725010D01*
X225200000Y-74800000D02*
X223600000Y-76400000D01*
X183800000Y-134200000D02*
X183800000Y-137000000D01*
X224200000Y-114200000D02*
X224200000Y-118000000D01*
X152534747Y-136200000D02*
X152491545Y-136243202D01*
X139950000Y-128950000D02*
X135437500Y-128950000D01*
X152491545Y-136243202D02*
X147243202Y-136243202D01*
X198600000Y-120600000D02*
X194400009Y-120600000D01*
X150200000Y-145400000D02*
X153600000Y-142000000D01*
X215400000Y-125600000D02*
X214600000Y-126400000D01*
X225000000Y-113326983D02*
X224474989Y-113851994D01*
X194400009Y-120600000D02*
X194250933Y-120450924D01*
X224474989Y-113851994D02*
X224474989Y-113925011D01*
X199200000Y-121200000D02*
X198600000Y-120600000D01*
X147243202Y-136243202D02*
X139950000Y-128950000D01*
X214600000Y-126400000D02*
X207800000Y-126400000D01*
X223600000Y-76400000D02*
X227600000Y-80400000D01*
X125600000Y-145400000D02*
X150200000Y-145400000D01*
X225000000Y-108000000D02*
X225000000Y-113326983D01*
X224600000Y-125600000D02*
X215400000Y-125600000D01*
X224200000Y-118000000D02*
X225400000Y-119200000D01*
X153600000Y-136200000D02*
X152534747Y-136200000D01*
X199200000Y-121400000D02*
X199200000Y-121200000D01*
X224474989Y-113925011D02*
X224200000Y-114200000D01*
X225400000Y-119200000D02*
X226200000Y-119200000D01*
%TO.N,Net-(D83-Pad2)*%
X94250000Y-79300000D02*
X94250000Y-78400000D01*
X92545400Y-76695400D02*
X92950000Y-77100000D01*
X92545400Y-72492700D02*
X92545400Y-76695400D01*
X94250000Y-78400000D02*
X92950000Y-77100000D01*
%TO.N,col7*%
X142548001Y-129325001D02*
X141851999Y-129325001D01*
X75000000Y-99400000D02*
X75000000Y-109851993D01*
X223600000Y-133400000D02*
X222800000Y-133400000D01*
X158000000Y-109000000D02*
X157200000Y-109000000D01*
X151925001Y-127851999D02*
X151925001Y-127925001D01*
X137269623Y-127950000D02*
X135437500Y-127950000D01*
X123800000Y-122163589D02*
X123800000Y-124000000D01*
X140522539Y-127995541D02*
X137315164Y-127995541D01*
X142925001Y-128948001D02*
X142548001Y-129325001D01*
X75200009Y-113800009D02*
X75600000Y-114200000D01*
X137315164Y-127995541D02*
X137269623Y-127950000D01*
X141851999Y-129325001D02*
X140522539Y-127995541D01*
X210648009Y-105600000D02*
X210439402Y-105391393D01*
X163800000Y-118600000D02*
X163800000Y-114800000D01*
X121725001Y-120088590D02*
X123800000Y-122163589D01*
X96438587Y-119274999D02*
X121348001Y-119274999D01*
X222800000Y-133400000D02*
X221200000Y-135000000D01*
X142925001Y-128074999D02*
X142925001Y-128948001D01*
X94363588Y-117200000D02*
X96438587Y-119274999D01*
X121348001Y-119274999D02*
X121725001Y-119651999D01*
X214200000Y-105600000D02*
X210648009Y-105600000D01*
X143600000Y-127400000D02*
X142925001Y-128074999D01*
X143600000Y-127400000D02*
X151473002Y-127400000D01*
X226400000Y-106000000D02*
X235200000Y-106000000D01*
X235200000Y-106000000D02*
X237000000Y-104200000D01*
X75200000Y-99200000D02*
X75000000Y-99400000D01*
X154400000Y-130400000D02*
X154400000Y-130600000D01*
X75200009Y-110052002D02*
X75200009Y-113800009D01*
X163800000Y-114800000D02*
X158000000Y-109000000D01*
X79400000Y-117200000D02*
X94363588Y-117200000D01*
X151925001Y-127925001D02*
X154400000Y-130400000D01*
X151473002Y-127400000D02*
X151925001Y-127851999D01*
X75000000Y-109851993D02*
X75200009Y-110052002D01*
X121725001Y-119651999D02*
X121725001Y-120088590D01*
%TO.N,col8*%
X156738601Y-129725010D02*
X156159327Y-129725010D01*
X140340585Y-128450000D02*
X141665599Y-129775012D01*
X83800000Y-106400000D02*
X113000000Y-106400000D01*
X75600000Y-98200000D02*
X83800000Y-106400000D01*
X231236412Y-95000000D02*
X214327173Y-95000000D01*
X170200000Y-106902905D02*
X170200000Y-109074990D01*
X175000000Y-119600000D02*
X174800000Y-119600000D01*
X141665599Y-129775012D02*
X149624988Y-129775012D01*
X158925001Y-129725001D02*
X156738610Y-129725001D01*
X170777895Y-106325010D02*
X170200000Y-106902905D01*
X235600000Y-104400000D02*
X235600000Y-99363588D01*
X214327173Y-95000000D02*
X214325010Y-95002163D01*
X170601017Y-115401017D02*
X170601017Y-114674990D01*
X163887340Y-134687340D02*
X158925001Y-129725001D01*
X156738610Y-129725001D02*
X156738601Y-129725010D01*
X135437500Y-128450000D02*
X140340585Y-128450000D01*
X174800000Y-119600000D02*
X170601017Y-115401017D01*
X235600000Y-99363588D02*
X231236412Y-95000000D01*
X149624988Y-129775012D02*
X151200000Y-128200000D01*
%TO.N,col0*%
X186000000Y-133600000D02*
X181600000Y-129200000D01*
X241677884Y-139122116D02*
X246805546Y-133994454D01*
X132213596Y-113949980D02*
X132163576Y-114000000D01*
X100400000Y-130200000D02*
X102600000Y-128000000D01*
X145600000Y-121400000D02*
X147000000Y-121400000D01*
X240400000Y-89800000D02*
X251274990Y-89800000D01*
X130973016Y-122999980D02*
X131250000Y-123276964D01*
X131250000Y-123276964D02*
X131250000Y-123762500D01*
X211474989Y-131874989D02*
X218722116Y-139122116D01*
X201000000Y-133600000D02*
X186000000Y-133600000D01*
X238800000Y-91400000D02*
X240400000Y-89800000D01*
X124400000Y-116000000D02*
X124200000Y-116200000D01*
X85400000Y-124600000D02*
X101800000Y-141000000D01*
X110400000Y-127800000D02*
X110400000Y-121800000D01*
X132163576Y-114000000D02*
X131000000Y-114000000D01*
X149000000Y-125400000D02*
X147400000Y-125400000D01*
X200400000Y-133600000D02*
X200000000Y-133200000D01*
X100400000Y-134200000D02*
X100400000Y-130200000D01*
X101800000Y-141000000D02*
X101800000Y-135600000D01*
X132636424Y-114000000D02*
X132586404Y-113949980D01*
X110200000Y-128000000D02*
X110400000Y-127800000D01*
X246805546Y-133994454D02*
X247194454Y-133994454D01*
X124200000Y-116200000D02*
X124200000Y-116985020D01*
X110400000Y-121800000D02*
X112200000Y-120000000D01*
X131000000Y-114000000D02*
X129800000Y-115200000D01*
X129800000Y-115200000D02*
X129800000Y-116000000D01*
X201000000Y-133600000D02*
X206326983Y-133600000D01*
X124200000Y-116985020D02*
X124014980Y-116985020D01*
X201000000Y-133600000D02*
X200400000Y-133600000D01*
X130214960Y-122999980D02*
X130973016Y-122999980D01*
X101800000Y-135600000D02*
X100400000Y-134200000D01*
X137200000Y-114000000D02*
X132636424Y-114000000D01*
X129800000Y-116000000D02*
X124400000Y-116000000D01*
X124014980Y-116985020D02*
X123400000Y-117600000D01*
X206326983Y-133600000D02*
X208051994Y-131874989D01*
X112200000Y-120000000D02*
X121000000Y-120000000D01*
X157000000Y-129200000D02*
X156600000Y-128800000D01*
X145200000Y-121800000D02*
X145600000Y-121400000D01*
X102600000Y-128000000D02*
X110200000Y-128000000D01*
X72200000Y-124600000D02*
X85400000Y-124600000D01*
X132586404Y-113949980D02*
X132213596Y-113949980D01*
X124200000Y-116985020D02*
X130214960Y-122999980D01*
X181600000Y-129200000D02*
X157000000Y-129200000D01*
X147400000Y-125400000D02*
X145200000Y-123200000D01*
X208051994Y-131874989D02*
X211474989Y-131874989D01*
X145200000Y-123200000D02*
X145200000Y-121800000D01*
X218722116Y-139122116D02*
X241677884Y-139122116D01*
%TO.N,Net-(D84-Pad2)*%
X95930000Y-80300000D02*
X96350000Y-80720000D01*
X102654600Y-72492700D02*
X102654600Y-77095400D01*
X101800000Y-77950000D02*
X102650000Y-77100000D01*
X98880000Y-80720000D02*
X99912660Y-79687340D01*
X101800000Y-78400000D02*
X101800000Y-77950000D01*
X95750000Y-80300000D02*
X95930000Y-80300000D01*
X102654600Y-77095400D02*
X102650000Y-77100000D01*
X96350000Y-80720000D02*
X98880000Y-80720000D01*
%TO.N,Net-(C14-Pad1)*%
X111075000Y-74000000D02*
X111250000Y-73825000D01*
X111250000Y-73825000D02*
X111250000Y-69700000D01*
X111200000Y-82400000D02*
X111200000Y-79741666D01*
X111200000Y-79741666D02*
X109658334Y-78200000D01*
X111075000Y-76783334D02*
X109658334Y-78200000D01*
X111075000Y-74000000D02*
X111075000Y-76783334D01*
%TO.N,Net-(C15-Pad1)*%
X116825020Y-73575014D02*
X118050014Y-73575014D01*
X116488182Y-73174980D02*
X116825020Y-73511818D01*
X115361818Y-73174980D02*
X116488182Y-73174980D01*
X118875000Y-77483334D02*
X118158334Y-78200000D01*
X116825020Y-73511818D02*
X116825020Y-73575014D01*
X118875000Y-74400000D02*
X118875000Y-77483334D01*
X112902012Y-73575014D02*
X115024980Y-73575014D01*
X118158334Y-78200000D02*
X118158334Y-80241666D01*
X111750000Y-72423002D02*
X112902012Y-73575014D01*
X115024980Y-73575014D02*
X115024980Y-73511818D01*
X118050014Y-73575014D02*
X118875000Y-74400000D01*
X118158334Y-80241666D02*
X116000000Y-82400000D01*
X111750000Y-69700000D02*
X111750000Y-72423002D01*
X115024980Y-73511818D02*
X115361818Y-73174980D01*
D73*
%TO.N,Net-(R12-Pad2)*%
X195100000Y-61900000D02*
X196035977Y-61900000D01*
X204135977Y-53800000D02*
X208647712Y-53800000D01*
X252200000Y-45662500D02*
X252200000Y-47800000D01*
X208647712Y-53800000D02*
X208718838Y-53871126D01*
X196035977Y-61900000D02*
X204135977Y-53800000D01*
%TO.N,usbOTG_ID*%
X162179999Y-56900001D02*
X161180000Y-57900000D01*
X165400000Y-57400000D02*
X164900001Y-56900001D01*
X164900001Y-56900001D02*
X162179999Y-56900001D01*
D71*
%TO.N,+5*%
X127600000Y-72210000D02*
X128622660Y-71187340D01*
D73*
X195100000Y-75100000D02*
X195100000Y-73100000D01*
D71*
X81925001Y-57511410D02*
X82400000Y-57036411D01*
X80474999Y-56687501D02*
X80474999Y-58948001D01*
X134600000Y-48400000D02*
X135537500Y-48400000D01*
X83780952Y-63780952D02*
X82400000Y-62400000D01*
X132750000Y-132850000D02*
X132750000Y-130637500D01*
X135787500Y-58650000D02*
X135937500Y-58800000D01*
X128622660Y-71187340D02*
X129612660Y-71187340D01*
X82640476Y-63780952D02*
X82440476Y-63980952D01*
X81925001Y-58948001D02*
X81925001Y-57511410D01*
X135787500Y-43687500D02*
X135875000Y-43600000D01*
X80851999Y-59325001D02*
X81548001Y-59325001D01*
D74*
X159391999Y-52549999D02*
X161008001Y-52549999D01*
D71*
X133250000Y-122150000D02*
X133600000Y-121800000D01*
X135537500Y-48400000D02*
X135787500Y-48650000D01*
X84200000Y-63780952D02*
X83780952Y-63780952D01*
X135787500Y-48650000D02*
X135787500Y-43687500D01*
X81548001Y-59325001D02*
X81925001Y-58948001D01*
X135787500Y-61937510D02*
X130200000Y-67525010D01*
X135937500Y-58800000D02*
X138862500Y-58800000D01*
X136562510Y-57874990D02*
X136680578Y-57874990D01*
D74*
X195100000Y-73500000D02*
X194300000Y-73500000D01*
D71*
X84125000Y-53037500D02*
X80474999Y-56687501D01*
X82440476Y-65930952D02*
X84075000Y-67565476D01*
D73*
X223406460Y-42793538D02*
X223600000Y-42599998D01*
X223406460Y-42768220D02*
X223587340Y-42587340D01*
D71*
X131600000Y-134000000D02*
X132750000Y-132850000D01*
D74*
X143462500Y-63400000D02*
X148541998Y-63400000D01*
D71*
X82400000Y-62400000D02*
X82400000Y-57037500D01*
X84200000Y-63780952D02*
X82640476Y-63780952D01*
X82440476Y-63980952D02*
X82440476Y-65930952D01*
X82400000Y-57037500D02*
X84040000Y-57037500D01*
X91572500Y-45590000D02*
X84125000Y-53037500D01*
X135787500Y-58650000D02*
X135787500Y-61937510D01*
D73*
X223406460Y-44000000D02*
X223406460Y-42768220D01*
D74*
X138862500Y-58800000D02*
X143462500Y-63400000D01*
D71*
X94900000Y-45590000D02*
X91572500Y-45590000D01*
X82440476Y-65930952D02*
X83950000Y-65930952D01*
D74*
X161008001Y-52549999D02*
X162058002Y-53600000D01*
D71*
X83950000Y-65930952D02*
X84200000Y-65680952D01*
X82400000Y-57036411D02*
X82400000Y-57037500D01*
D74*
X162058002Y-53600000D02*
X187200000Y-53600000D01*
X194300000Y-73500000D02*
X194200000Y-73600000D01*
D71*
X84040000Y-57037500D02*
X84090000Y-56987500D01*
D74*
X148541998Y-63400000D02*
X159391999Y-52549999D01*
D71*
X84075000Y-67565476D02*
X84075000Y-67930952D01*
X80474999Y-58948001D02*
X80851999Y-59325001D01*
X133250000Y-123762500D02*
X133250000Y-122150000D01*
X135787500Y-58650000D02*
X136562510Y-57874990D01*
D73*
%TO.N,Earth_Clean*%
X229969048Y-44000000D02*
X229190000Y-44000000D01*
D71*
X131800000Y-99275000D02*
X131149990Y-99925010D01*
X220365000Y-36965000D02*
X220025000Y-36965000D01*
X95144980Y-79300000D02*
X95000000Y-79444980D01*
X85440476Y-64730952D02*
X85440476Y-62896428D01*
D75*
X197700000Y-64300000D02*
X195100000Y-64300000D01*
D73*
X193300000Y-70700000D02*
X195100000Y-70700000D01*
D71*
X129050000Y-84475000D02*
X132200000Y-81325000D01*
D73*
X158100000Y-74700000D02*
X159700000Y-74700000D01*
X193500000Y-73100000D02*
X192020000Y-73100000D01*
D71*
X149800000Y-49200000D02*
X149800000Y-51011092D01*
D73*
X158100000Y-77100000D02*
X159700000Y-77100000D01*
X194276002Y-71900000D02*
X195100000Y-71900000D01*
X159700000Y-59100000D02*
X158100000Y-59100000D01*
X193500000Y-59100000D02*
X195100000Y-59100000D01*
D71*
X108125000Y-75725000D02*
X108200000Y-75800000D01*
D73*
X158100000Y-69900000D02*
X159700000Y-69900000D01*
X193500000Y-72300000D02*
X192020000Y-72300000D01*
X158100000Y-71100000D02*
X161180000Y-71100000D01*
X193683999Y-72030001D02*
X194146001Y-72030001D01*
X159700000Y-73500000D02*
X159700000Y-72300000D01*
D71*
X193500000Y-62300000D02*
X193500000Y-63900000D01*
X193500000Y-61900000D02*
X193500000Y-62300000D01*
X85440476Y-64730952D02*
X84200000Y-64730952D01*
X85600000Y-56037500D02*
X85600000Y-54512500D01*
D73*
X161180000Y-73500000D02*
X159700000Y-73500000D01*
X194146001Y-72030001D02*
X194276002Y-71900000D01*
D76*
X146000000Y-96000000D02*
X143062500Y-96000000D01*
D77*
X163125045Y-84874955D02*
X175820000Y-72180000D01*
D71*
X210800000Y-46758459D02*
X213562584Y-43995875D01*
X84125000Y-61480952D02*
X84075000Y-61530952D01*
D73*
X158100000Y-73500000D02*
X161180000Y-73500000D01*
X159700000Y-59300000D02*
X159900000Y-59100000D01*
D71*
X149800000Y-43725000D02*
X149675000Y-43600000D01*
D77*
X149898491Y-85705011D02*
X150578491Y-86385011D01*
D71*
X146450000Y-95550000D02*
X146000000Y-96000000D01*
X85440476Y-66346428D02*
X85440476Y-64730952D01*
D73*
X241077857Y-43574989D02*
X242522143Y-43574989D01*
X193500000Y-60300000D02*
X192020000Y-60300000D01*
X229969048Y-44000000D02*
X230443003Y-44000000D01*
X193500000Y-66300000D02*
X195100000Y-66300000D01*
D71*
X193500000Y-71126998D02*
X193354999Y-71271999D01*
D73*
X159700000Y-62700000D02*
X161180000Y-62700000D01*
X242747174Y-43800020D02*
X245399980Y-43800020D01*
D71*
X127200000Y-84475000D02*
X129050000Y-84475000D01*
D73*
X159700000Y-61500000D02*
X159700000Y-60300000D01*
D71*
X95000000Y-79444980D02*
X95000000Y-80600000D01*
D73*
X159700000Y-69900000D02*
X159700000Y-68700000D01*
D71*
X85600000Y-56037500D02*
X85600000Y-57562500D01*
D77*
X213724980Y-39875020D02*
X213562584Y-40037416D01*
D71*
X149800000Y-51400000D02*
X149605546Y-51205546D01*
X193500000Y-69500000D02*
X193500000Y-70700000D01*
X193500000Y-73226998D02*
X193474999Y-73251999D01*
D77*
X159800000Y-53400000D02*
X159800000Y-59000000D01*
D73*
X193500000Y-67900000D02*
X192020000Y-67900000D01*
D71*
X110250000Y-61250000D02*
X110500000Y-61500000D01*
D73*
X193300000Y-70700000D02*
X192020000Y-70700000D01*
X193500000Y-71900000D02*
X193553998Y-71900000D01*
X158100000Y-66300000D02*
X159700000Y-66300000D01*
D71*
X222275000Y-35865000D02*
X222375000Y-35765000D01*
D73*
X158100000Y-74700000D02*
X161180000Y-74700000D01*
D71*
X165845000Y-95550000D02*
X167070020Y-94324980D01*
D73*
X158100000Y-71100000D02*
X159700000Y-71100000D01*
X193500000Y-70700000D02*
X193300000Y-70700000D01*
D71*
X108300000Y-61250000D02*
X110250000Y-61250000D01*
X193474999Y-73251999D02*
X193474999Y-74001348D01*
X167070020Y-94324980D02*
X173167500Y-94324980D01*
X108125000Y-74000000D02*
X108125000Y-75725000D01*
X173765011Y-94922491D02*
X173765011Y-95962531D01*
D73*
X159700000Y-74700000D02*
X159700000Y-73500000D01*
X193500000Y-69500000D02*
X192020000Y-69500000D01*
D71*
X217845000Y-33815000D02*
X216645000Y-35015000D01*
D77*
X134150000Y-88012500D02*
X134150000Y-87095575D01*
X159700000Y-76700000D02*
X159700000Y-80721654D01*
D71*
X193500000Y-73100000D02*
X193500000Y-73226998D01*
D73*
X238922143Y-43574989D02*
X239147174Y-43800020D01*
D71*
X95750000Y-79300000D02*
X95144980Y-79300000D01*
X193500000Y-68300000D02*
X193500000Y-69500000D01*
X222275000Y-37085000D02*
X222275000Y-35865000D01*
D77*
X175850000Y-72150000D02*
X175850000Y-72180000D01*
D71*
X220675000Y-36965000D02*
X220365000Y-36965000D01*
D73*
X247000000Y-42200000D02*
X247000000Y-41600000D01*
X158100000Y-75900000D02*
X159700000Y-75900000D01*
X159700000Y-60300000D02*
X158100000Y-60300000D01*
X158100000Y-65100000D02*
X159700000Y-65100000D01*
X193500000Y-76900000D02*
X193300000Y-77100000D01*
D71*
X193500000Y-63900000D02*
X193500000Y-64300000D01*
D77*
X152721508Y-86385012D02*
X154231564Y-84874956D01*
D73*
X245399980Y-43800020D02*
X247000000Y-42200000D01*
X240852826Y-43800020D02*
X241077857Y-43574989D01*
X158100000Y-67500000D02*
X159700000Y-67500000D01*
D71*
X140950000Y-49550000D02*
X139550000Y-49550000D01*
X193500000Y-57900000D02*
X193500000Y-59100000D01*
X88400000Y-81000000D02*
X86200000Y-81000000D01*
D77*
X220365000Y-36965000D02*
X220365000Y-38035020D01*
D73*
X193300000Y-77100000D02*
X192020000Y-77100000D01*
D71*
X141000000Y-50800000D02*
X141000000Y-52800000D01*
X135125000Y-81325000D02*
X137750000Y-81325000D01*
D73*
X193500000Y-57900000D02*
X192020000Y-57900000D01*
D76*
X137400000Y-104200000D02*
X138937500Y-104200000D01*
D73*
X242522143Y-43574989D02*
X242747174Y-43800020D01*
D77*
X148105011Y-85705011D02*
X149898491Y-85705011D01*
D71*
X193534314Y-74060663D02*
X193534314Y-74756665D01*
D75*
X198400000Y-63600000D02*
X197700000Y-64300000D01*
D71*
X193500000Y-56900000D02*
X192300000Y-55700000D01*
D73*
X195100000Y-57900000D02*
X193500000Y-57900000D01*
D71*
X131149990Y-99925010D02*
X131149990Y-100600000D01*
X139550000Y-51550000D02*
X140250000Y-51550000D01*
X131750000Y-126950000D02*
X132000000Y-127200000D01*
X132800000Y-68200000D02*
X132400000Y-67800000D01*
X149800000Y-54000000D02*
X149800000Y-59000000D01*
D77*
X147420000Y-85020000D02*
X148105011Y-85705011D01*
D71*
X88400000Y-81000000D02*
X93550000Y-81000000D01*
X131750000Y-123762500D02*
X131750000Y-126950000D01*
D77*
X159700000Y-80721654D02*
X159600925Y-80820729D01*
D73*
X159700000Y-76700000D02*
X159700000Y-75900000D01*
X159700000Y-60300000D02*
X159700000Y-59300000D01*
D71*
X85600000Y-57562500D02*
X84125000Y-59037500D01*
D73*
X159700000Y-63900000D02*
X161180000Y-63900000D01*
X193500000Y-61900000D02*
X192020000Y-61900000D01*
X158100000Y-72300000D02*
X161180000Y-72300000D01*
D71*
X149800000Y-51011092D02*
X149605546Y-51205546D01*
X85440476Y-62896428D02*
X84075000Y-61530952D01*
D73*
X193500000Y-63900000D02*
X192020000Y-63900000D01*
D71*
X135125000Y-85520884D02*
X135404116Y-85800000D01*
X173167500Y-94324980D02*
X173765011Y-94922491D01*
D73*
X158100000Y-65100000D02*
X161180000Y-65100000D01*
D71*
X174549991Y-96747511D02*
X177334989Y-96747511D01*
X84125000Y-59037500D02*
X84125000Y-61480952D01*
D77*
X208124980Y-39875020D02*
X192300000Y-55700000D01*
D73*
X158100000Y-68700000D02*
X159700000Y-68700000D01*
D71*
X115400000Y-74925000D02*
X115925000Y-74400000D01*
X193500000Y-70700000D02*
X193500000Y-71126998D01*
X141000000Y-50800000D02*
X141000000Y-49600000D01*
X193500000Y-71883002D02*
X193500000Y-71900000D01*
D73*
X193500000Y-68300000D02*
X195100000Y-68300000D01*
D71*
X129750000Y-130637500D02*
X129750000Y-131950000D01*
D77*
X220365000Y-38035020D02*
X218525000Y-39875020D01*
D71*
X85600000Y-54512500D02*
X87075000Y-53037500D01*
D73*
X159700000Y-77100000D02*
X159700000Y-76700000D01*
D71*
X177334989Y-96747511D02*
X177410000Y-96672500D01*
X193500000Y-64300000D02*
X193500000Y-65900000D01*
X224737500Y-66400000D02*
X224737500Y-53137500D01*
D73*
X159700000Y-72300000D02*
X159700000Y-71100000D01*
X158100000Y-62700000D02*
X159700000Y-62700000D01*
D71*
X131750000Y-122725041D02*
X131624959Y-122600000D01*
D77*
X134150000Y-87095575D02*
X134194796Y-87050779D01*
D71*
X149800000Y-49200000D02*
X149800000Y-43725000D01*
D73*
X193500000Y-64300000D02*
X195100000Y-64300000D01*
D77*
X175820000Y-72180000D02*
X175850000Y-72180000D01*
D71*
X132125000Y-42800000D02*
X128000000Y-42800000D01*
X132925000Y-43600000D02*
X132125000Y-42800000D01*
D73*
X159900000Y-59100000D02*
X159700000Y-59100000D01*
D71*
X193500000Y-67900000D02*
X193500000Y-68300000D01*
D73*
X230443003Y-44000000D02*
X230868014Y-43574989D01*
X193553998Y-71900000D02*
X193683999Y-72030001D01*
D71*
X216645000Y-36945000D02*
X216525000Y-37065000D01*
D73*
X159700000Y-60300000D02*
X161180000Y-60300000D01*
D77*
X213724980Y-39875020D02*
X208124980Y-39875020D01*
D71*
X149800000Y-54000000D02*
X149800000Y-51400000D01*
X220335000Y-33815000D02*
X218415000Y-33815000D01*
X141000000Y-52800000D02*
X141000000Y-54000000D01*
X132850000Y-53637500D02*
X132862500Y-53650000D01*
D73*
X159700000Y-75900000D02*
X159700000Y-74700000D01*
D71*
X193500000Y-72300000D02*
X193500000Y-73100000D01*
X173765011Y-95962531D02*
X174549991Y-96747511D01*
X219600000Y-48000000D02*
X211200000Y-48000000D01*
X216645000Y-35015000D02*
X216645000Y-36945000D01*
X222155000Y-36965000D02*
X222275000Y-37085000D01*
X140250000Y-51550000D02*
X141000000Y-50800000D01*
D77*
X192300000Y-55700000D02*
X175850000Y-72150000D01*
D71*
X135125000Y-81325000D02*
X135125000Y-85520884D01*
D73*
X193500000Y-59100000D02*
X192020000Y-59100000D01*
D71*
X132950000Y-51550000D02*
X132850000Y-51550000D01*
D73*
X158100000Y-63900000D02*
X159700000Y-63900000D01*
D77*
X134150000Y-88012500D02*
X134449980Y-88012500D01*
D71*
X131750000Y-123762500D02*
X131750000Y-122725041D01*
D73*
X158100000Y-72300000D02*
X159700000Y-72300000D01*
D71*
X193500000Y-59100000D02*
X193500000Y-60300000D01*
X193500000Y-71900000D02*
X193500000Y-72300000D01*
D73*
X193500000Y-65900000D02*
X192020000Y-65900000D01*
X159700000Y-71100000D02*
X159700000Y-69900000D01*
X193500000Y-69500000D02*
X195100000Y-69500000D01*
X230868014Y-43574989D02*
X238922143Y-43574989D01*
D71*
X210800000Y-47600000D02*
X210800000Y-46758459D01*
X165845000Y-95550000D02*
X146450000Y-95550000D01*
D77*
X154231564Y-84874956D02*
X163125045Y-84874955D01*
D73*
X193500000Y-62300000D02*
X195100000Y-62300000D01*
D71*
X193500000Y-60300000D02*
X193500000Y-61900000D01*
D73*
X161180000Y-72300000D02*
X159700000Y-72300000D01*
D71*
X193500000Y-57900000D02*
X193500000Y-56900000D01*
X87025000Y-67930952D02*
X85440476Y-66346428D01*
X85600000Y-56037500D02*
X84090000Y-56037500D01*
D77*
X150578491Y-86385011D02*
X152721508Y-86385012D01*
D71*
X93550000Y-81000000D02*
X94250000Y-80300000D01*
D73*
X159700000Y-67500000D02*
X159700000Y-66300000D01*
D77*
X218525000Y-39875020D02*
X213724980Y-39875020D01*
X159800000Y-59000000D02*
X159700000Y-59100000D01*
D71*
X141000000Y-49600000D02*
X140950000Y-49550000D01*
X94600000Y-81000000D02*
X93550000Y-81000000D01*
D73*
X193500000Y-60300000D02*
X195100000Y-60300000D01*
D71*
X139550000Y-51550000D02*
X132950000Y-51550000D01*
X221535000Y-35015000D02*
X220335000Y-33815000D01*
X87075000Y-51525000D02*
X87200000Y-51400000D01*
D73*
X158100000Y-69900000D02*
X161180000Y-69900000D01*
D71*
X193500000Y-65900000D02*
X193500000Y-66300000D01*
X193354999Y-71271999D02*
X193354999Y-71738001D01*
X134400000Y-68200000D02*
X132800000Y-68200000D01*
X193354999Y-71738001D02*
X193500000Y-71883002D01*
D76*
X138937500Y-104200000D02*
X139400000Y-104662500D01*
D73*
X159700000Y-77100000D02*
X161180000Y-77100000D01*
D71*
X193500000Y-74790979D02*
X193500000Y-76900000D01*
X218415000Y-33815000D02*
X217845000Y-33815000D01*
D73*
X159700000Y-65100000D02*
X159700000Y-61500000D01*
D71*
X87075000Y-53037500D02*
X87075000Y-51525000D01*
D77*
X213562584Y-40037416D02*
X213562584Y-43995875D01*
D71*
X220675000Y-36965000D02*
X222155000Y-36965000D01*
X132850000Y-51550000D02*
X132850000Y-53637500D01*
X193474999Y-74001348D02*
X193534314Y-74060663D01*
X224737500Y-53137500D02*
X219600000Y-48000000D01*
X222125000Y-35015000D02*
X221535000Y-35015000D01*
D73*
X161180000Y-68700000D02*
X159700000Y-68700000D01*
X158100000Y-75900000D02*
X161180000Y-75900000D01*
D71*
X129750000Y-131950000D02*
X129800000Y-132000000D01*
X115400000Y-76200000D02*
X115400000Y-74925000D01*
D73*
X159700000Y-66300000D02*
X159700000Y-65100000D01*
D71*
X193500000Y-66300000D02*
X193500000Y-67900000D01*
D73*
X159900000Y-59100000D02*
X161180000Y-59100000D01*
X229190000Y-44000000D02*
X222275000Y-37085000D01*
X239147174Y-43800020D02*
X240852826Y-43800020D01*
X159700000Y-68700000D02*
X159700000Y-67500000D01*
X158100000Y-61500000D02*
X161180000Y-61500000D01*
D71*
X193534314Y-74756665D02*
X193500000Y-74790979D01*
X95000000Y-80600000D02*
X94600000Y-81000000D01*
D73*
X158100000Y-61500000D02*
X159700000Y-61500000D01*
D71*
X211200000Y-48000000D02*
X210800000Y-47600000D01*
X177410000Y-96672500D02*
X177410000Y-95802500D01*
X132200000Y-81325000D02*
X135125000Y-81325000D01*
D73*
%TO.N,SDA*%
X222600000Y-47200000D02*
X223400000Y-48000000D01*
X225737500Y-48000000D02*
X227000000Y-46737500D01*
X190700000Y-73900000D02*
X190394418Y-74205582D01*
D71*
X138550000Y-90250000D02*
X138800000Y-90000000D01*
D73*
X211800000Y-47200000D02*
X222600000Y-47200000D01*
X190394418Y-74205582D02*
X188205582Y-74205582D01*
X220000000Y-42400000D02*
X220000000Y-43874832D01*
X220000000Y-43874832D02*
X220125168Y-44000000D01*
D71*
X137387500Y-90250000D02*
X138550000Y-90250000D01*
D73*
X192020000Y-73900000D02*
X190700000Y-73900000D01*
X223400000Y-48000000D02*
X225737500Y-48000000D01*
%TO.N,SCL*%
X216843876Y-44000000D02*
X215721742Y-44000000D01*
D71*
X137387500Y-90750000D02*
X138550000Y-90750000D01*
D73*
X192020000Y-73500000D02*
X189471593Y-73500000D01*
X215721742Y-44000000D02*
X215700010Y-44021732D01*
D71*
X138550000Y-90750000D02*
X138800000Y-91000000D01*
D73*
X189471593Y-73500000D02*
X189331890Y-73360297D01*
X224400000Y-45600000D02*
X224400000Y-46337500D01*
X224400000Y-46337500D02*
X224800000Y-46737500D01*
D72*
%TO.N,+3.3*%
X190830000Y-76090000D02*
X190860000Y-76060000D01*
D71*
X238971129Y-44225031D02*
X241028871Y-44225031D01*
D73*
X226087752Y-43400000D02*
X226687752Y-44000000D01*
D71*
X241253902Y-44000000D02*
X242346098Y-44000000D01*
X224800000Y-49662500D02*
X227000000Y-49662500D01*
X238746098Y-44000000D02*
X238971129Y-44225031D01*
X241028871Y-44225031D02*
X241253902Y-44000000D01*
D73*
X192020000Y-74300000D02*
X192020000Y-74700000D01*
X192700649Y-74300000D02*
X192809313Y-74408664D01*
D71*
X254400000Y-44000000D02*
X254400000Y-41800000D01*
X226687752Y-44000000D02*
X227762763Y-45075011D01*
X231044059Y-44000000D02*
X238746098Y-44000000D01*
X227000000Y-49662500D02*
X229137500Y-49662500D01*
X229137500Y-49662500D02*
X231044059Y-47755941D01*
D73*
X192020000Y-74300000D02*
X192700649Y-74300000D01*
D71*
X231044059Y-47755941D02*
X231044059Y-45010009D01*
D72*
X190080000Y-76090000D02*
X190830000Y-76090000D01*
D71*
X230979057Y-45075011D02*
X231044059Y-45010009D01*
X227762763Y-45075011D02*
X230979057Y-45075011D01*
D73*
X225000000Y-43400000D02*
X226087752Y-43400000D01*
D72*
X179610000Y-93120000D02*
X186140000Y-86590000D01*
D71*
X231044059Y-45010009D02*
X231044059Y-44000000D01*
X242346098Y-44000000D02*
X242571129Y-44225031D01*
X254174969Y-44225031D02*
X254400000Y-44000000D01*
D72*
X179610000Y-95802500D02*
X179610000Y-93120000D01*
D71*
X242571129Y-44225031D02*
X254174969Y-44225031D01*
%TO.N,+3.3 High Current*%
X87075000Y-59037500D02*
X87075000Y-57422500D01*
X125600000Y-61364980D02*
X125600000Y-67000000D01*
X115972944Y-72125001D02*
X114738961Y-72125001D01*
X105000000Y-70000000D02*
X105000000Y-68800000D01*
X98400000Y-60200000D02*
X98450000Y-60250000D01*
X122214980Y-60750000D02*
X123164980Y-59800000D01*
X108300000Y-60250000D02*
X104650000Y-60250000D01*
X116250000Y-69700000D02*
X116250000Y-70752055D01*
X87075000Y-57422500D02*
X87510000Y-56987500D01*
X110750000Y-69700000D02*
X110750000Y-72000000D01*
X114738961Y-72125001D02*
X114526431Y-72337531D01*
X88800000Y-59600000D02*
X87637500Y-59600000D01*
X107000000Y-72000000D02*
X105000000Y-70000000D01*
X119700000Y-60750000D02*
X122214980Y-60750000D01*
X123164980Y-59800000D02*
X124035020Y-59800000D01*
X116349944Y-70851999D02*
X116349944Y-71748001D01*
X114526431Y-72337531D02*
X114137536Y-72337531D01*
X110750000Y-72000000D02*
X107000000Y-72000000D01*
X98450000Y-60250000D02*
X104400000Y-60250000D01*
X124035020Y-59800000D02*
X125600000Y-61364980D01*
X116250000Y-70752055D02*
X116349944Y-70851999D01*
X116349944Y-71748001D02*
X115972944Y-72125001D01*
X87637500Y-59600000D02*
X87075000Y-59037500D01*
X107000000Y-72000000D02*
X107200000Y-71800000D01*
X104650000Y-60250000D02*
X104400000Y-60250000D01*
%TO.N,5vRegulator*%
X146850000Y-49200000D02*
X146000000Y-50050000D01*
D77*
X102654600Y-69952700D02*
X103326323Y-69952700D01*
D71*
X142850000Y-49200000D02*
X142500000Y-49550000D01*
X142500000Y-50050000D02*
X143550000Y-50050000D01*
D77*
X133101756Y-74200000D02*
X140400000Y-66901756D01*
X109200000Y-85200000D02*
X119200000Y-85200000D01*
D71*
X146850000Y-49200000D02*
X144400000Y-49200000D01*
D77*
X103326323Y-69952700D02*
X105849978Y-72476354D01*
X111870000Y-90070000D02*
X113940000Y-90070000D01*
X109200000Y-85200000D02*
X109200000Y-87400000D01*
X105849978Y-81849978D02*
X109200000Y-85200000D01*
X105849978Y-72476354D02*
X105849978Y-81849978D01*
X140400000Y-66901756D02*
X140400000Y-63000000D01*
X109200000Y-87400000D02*
X111870000Y-90070000D01*
D71*
X144400000Y-49200000D02*
X142850000Y-49200000D01*
X143550000Y-50050000D02*
X144400000Y-49200000D01*
X142500000Y-49550000D02*
X142500000Y-50050000D01*
X146000000Y-50050000D02*
X143550000Y-50050000D01*
D77*
X119200000Y-85200000D02*
X130200000Y-74200000D01*
X130200000Y-74200000D02*
X133101756Y-74200000D01*
D71*
%TO.N,Net-(J4-Pad2)*%
X105650000Y-67250000D02*
X105600000Y-67200000D01*
X108300000Y-67250000D02*
X107300000Y-67250000D01*
X97400000Y-48200000D02*
X99800000Y-50600000D01*
X99800000Y-50600000D02*
X100000000Y-50600000D01*
X106076998Y-67250000D02*
X105650000Y-67250000D01*
X106251999Y-67074999D02*
X106076998Y-67250000D01*
X97400000Y-45590000D02*
X97400000Y-48200000D01*
X107300000Y-67250000D02*
X107124999Y-67074999D01*
X107124999Y-67074999D02*
X106251999Y-67074999D01*
%TO.N,Net-(J5-Pad2)*%
X105949989Y-63074999D02*
X105674990Y-62800000D01*
X106748001Y-63074999D02*
X105949989Y-63074999D01*
X108300000Y-63250000D02*
X106923002Y-63250000D01*
X106923002Y-63250000D02*
X106748001Y-63074999D01*
%TO.N,row0*%
X225400000Y-124200000D02*
X226800000Y-124200000D01*
X115077785Y-107404783D02*
X113148001Y-105474999D01*
X98674999Y-105474999D02*
X87600000Y-94400000D01*
X193400000Y-109800000D02*
X200800000Y-117200000D01*
X115274999Y-105474999D02*
X117600000Y-107800000D01*
X166650020Y-107850020D02*
X168600000Y-109800000D01*
X120325001Y-116979180D02*
X120325001Y-113561429D01*
X128562500Y-124950000D02*
X128023002Y-124950000D01*
X128023002Y-124950000D02*
X122625023Y-119552022D01*
X113148001Y-105474999D02*
X115274999Y-105474999D01*
X120325001Y-113561429D02*
X115077785Y-108314184D01*
X122625023Y-119279197D02*
X120325001Y-116979180D01*
X150230447Y-107906615D02*
X150926459Y-107906615D01*
X219600000Y-118400000D02*
X225400000Y-124200000D01*
X200800000Y-117200000D02*
X202400000Y-117200000D01*
X150123832Y-107800000D02*
X150230447Y-107906615D01*
X211600000Y-118400000D02*
X219600000Y-118400000D01*
X115077785Y-108314184D02*
X115077785Y-107404783D01*
X122625023Y-119552022D02*
X122625023Y-119279197D01*
X168600000Y-109800000D02*
X193400000Y-109800000D01*
X150926459Y-107906615D02*
X150983054Y-107850020D01*
X117600000Y-107800000D02*
X150123832Y-107800000D01*
X150983054Y-107850020D02*
X166650020Y-107850020D01*
X113148001Y-105474999D02*
X98674999Y-105474999D01*
%TO.N,Net-(J5-Pad3)*%
X106450000Y-63750000D02*
X106400000Y-63800000D01*
X108300000Y-63750000D02*
X106450000Y-63750000D01*
D73*
%TO.N,Net-(JP4-Pad2)*%
X195100000Y-76300000D02*
X199900000Y-76300000D01*
D71*
%TO.N,row4*%
X125823002Y-126950000D02*
X125773013Y-126900011D01*
X164400000Y-144400000D02*
X164400000Y-144200000D01*
X124936405Y-126900011D02*
X124650011Y-127186404D01*
X242000000Y-74000000D02*
X237800000Y-78200000D01*
X237800000Y-78200000D02*
X237800000Y-113400000D01*
X225525010Y-116000000D02*
X225125010Y-116400000D01*
X124650011Y-127186404D02*
X124650011Y-128086422D01*
X219850011Y-125149989D02*
X213811180Y-125149989D01*
X164400000Y-146800000D02*
X164400000Y-144400000D01*
X125949988Y-129386399D02*
X125949992Y-135050008D01*
X235200000Y-116000000D02*
X225525010Y-116000000D01*
X125949992Y-135050008D02*
X117587340Y-143412660D01*
X125773013Y-126900011D02*
X124936405Y-126900011D01*
X220800000Y-124200000D02*
X219850011Y-125149989D01*
X128562500Y-126950000D02*
X125823002Y-126950000D01*
X210800000Y-133600000D02*
X210800000Y-141074990D01*
X213811180Y-125149989D02*
X213686179Y-125274990D01*
X237800000Y-113400000D02*
X235200000Y-116000000D01*
X242000000Y-69400000D02*
X242000000Y-74000000D01*
X220800000Y-123400000D02*
X220800000Y-124200000D01*
X124650011Y-128086422D02*
X125949988Y-129386399D01*
%TO.N,row5*%
X237000000Y-88400000D02*
X235200000Y-88400000D01*
X220800000Y-72400000D02*
X220800000Y-76274990D01*
X220200000Y-53200000D02*
X220200000Y-55200000D01*
X199400000Y-94000000D02*
X198000000Y-94000000D01*
X121600000Y-124400000D02*
X122200000Y-125000000D01*
X227948001Y-86525001D02*
X227051999Y-86525001D01*
X210000000Y-89600000D02*
X210000000Y-92000000D01*
X208200000Y-83800000D02*
X208200000Y-87800000D01*
X209600000Y-76800000D02*
X209600000Y-80000000D01*
X120200000Y-121400000D02*
X120200000Y-123000000D01*
X228473002Y-86000000D02*
X227948001Y-86525001D01*
X122000000Y-116600000D02*
X120775021Y-115375021D01*
X235200000Y-88400000D02*
X234600000Y-88400000D01*
X220200000Y-55200000D02*
X219800000Y-55600000D01*
X209600000Y-80200000D02*
X209600000Y-82400000D01*
X120775021Y-113375009D02*
X115527796Y-108127784D01*
X209600000Y-82400000D02*
X208200000Y-83800000D01*
X128562500Y-127450000D02*
X125573018Y-127450000D01*
X234600000Y-88400000D02*
X234400000Y-88600000D01*
X120775021Y-115375021D02*
X120775021Y-113375009D01*
X120200000Y-123000000D02*
X121600000Y-124400000D01*
X221800000Y-51600000D02*
X220200000Y-53200000D01*
X115527796Y-108127784D02*
X115527796Y-106753116D01*
X234400000Y-88600000D02*
X234000000Y-88600000D01*
X227051999Y-86525001D02*
X226526998Y-86000000D01*
X235200000Y-88400000D02*
X235200000Y-86000000D01*
X235200000Y-86000000D02*
X228473002Y-86000000D01*
X209600000Y-80000000D02*
X209600000Y-80200000D01*
X198000000Y-94000000D02*
X197800000Y-94200000D01*
X226526998Y-86000000D02*
X221800000Y-86000000D01*
X207800000Y-75000000D02*
X209600000Y-76800000D01*
X125573018Y-127450000D02*
X125397997Y-127625021D01*
X208200000Y-87800000D02*
X210000000Y-89600000D01*
X200400000Y-95000000D02*
X199400000Y-94000000D01*
%TO.N,row6*%
X208700000Y-112100000D02*
X209400000Y-111400000D01*
X208700000Y-112100000D02*
X221500000Y-112100000D01*
X209400000Y-111400000D02*
X209800000Y-111000000D01*
X221000000Y-107800000D02*
X221000000Y-101400000D01*
X128413596Y-139450020D02*
X207274989Y-139450020D01*
X207274989Y-139473016D02*
X207651994Y-139850021D01*
X230600000Y-101400000D02*
X233400000Y-98600000D01*
X207000000Y-115600000D02*
X207000000Y-113800000D01*
X221600000Y-112000000D02*
X221800000Y-112000000D01*
X209400000Y-106000000D02*
X208200000Y-104800000D01*
X233400000Y-98600000D02*
X233800000Y-98600000D01*
X126850000Y-127950000D02*
X126600000Y-128200000D01*
X127363576Y-138400000D02*
X128413596Y-139450020D01*
X231600000Y-114200000D02*
X234000000Y-111800000D01*
X126600000Y-128200000D02*
X126600000Y-128451993D01*
X126399999Y-128651994D02*
X126400000Y-130400000D01*
X221000000Y-101400000D02*
X230600000Y-101400000D01*
X209600000Y-138598027D02*
X209600000Y-132600000D01*
X126400000Y-130400000D02*
X126400000Y-138000000D01*
X221500000Y-112100000D02*
X221600000Y-112000000D01*
X207274989Y-139450020D02*
X207274989Y-139473016D01*
X207651994Y-139850021D02*
X208348006Y-139850021D01*
X240200000Y-116000000D02*
X240800000Y-115400000D01*
X208348006Y-139850021D02*
X209000000Y-139198027D01*
X209400000Y-111400000D02*
X209400000Y-106000000D01*
X128562500Y-127950000D02*
X126850000Y-127950000D01*
X126400000Y-138000000D02*
X126800000Y-138400000D01*
X234000000Y-111800000D02*
X234000000Y-111600000D01*
X208000000Y-117000000D02*
X208000000Y-116600000D01*
X209000000Y-139198027D02*
X209600000Y-138598027D01*
X246200000Y-106800000D02*
X246200000Y-104000000D01*
X209800000Y-111000000D02*
X209800000Y-110800000D01*
X225200000Y-114200000D02*
X231600000Y-114200000D01*
X246600000Y-113200000D02*
X246600000Y-112400000D01*
X208000000Y-116600000D02*
X207000000Y-115600000D01*
X126800000Y-138400000D02*
X127363576Y-138400000D01*
X126600000Y-128451993D02*
X126399999Y-128651994D01*
X207000000Y-113800000D02*
X208700000Y-112100000D01*
X208000000Y-118800000D02*
X208000000Y-117000000D01*
X244400000Y-115400000D02*
X246600000Y-113200000D01*
X247000000Y-103200000D02*
X247200000Y-103200000D01*
X246200000Y-104000000D02*
X247000000Y-103200000D01*
X240800000Y-115400000D02*
X244400000Y-115400000D01*
X221000000Y-101400000D02*
X222000000Y-100400000D01*
%TO.N,row7*%
X223200000Y-135400000D02*
X223000000Y-135200000D01*
X127000000Y-137400000D02*
X127000000Y-129125010D01*
X220400000Y-135400000D02*
X220400000Y-138125010D01*
X207600000Y-139000000D02*
X208000000Y-138600000D01*
X127675010Y-128450000D02*
X127125010Y-129000000D01*
X111836412Y-127000000D02*
X110386400Y-128450011D01*
X125224978Y-129942949D02*
X125111488Y-129829459D01*
X128562500Y-128450000D02*
X127675010Y-128450000D01*
X117229459Y-129829459D02*
X114400000Y-127000000D01*
X102949989Y-128450011D02*
X101125010Y-130274990D01*
X208400000Y-138200000D02*
X208400000Y-132600000D01*
X220000000Y-135000000D02*
X220400000Y-135400000D01*
X127000000Y-129125010D02*
X127125010Y-129000000D01*
X207600000Y-139000000D02*
X208400000Y-138200000D01*
X226000000Y-135400000D02*
X223200000Y-135400000D01*
X114400000Y-127000000D02*
X111836412Y-127000000D01*
X125111488Y-129829459D02*
X117229459Y-129829459D01*
X101125010Y-130274990D02*
X101125010Y-132324835D01*
X110386400Y-128450011D02*
X102949989Y-128450011D01*
X207600000Y-139000000D02*
X128600000Y-139000000D01*
X128600000Y-139000000D02*
X127000000Y-137400000D01*
%TO.N,Net-(R16-Pad2)*%
X132400000Y-72210000D02*
X127990000Y-67800000D01*
X127550000Y-67750000D02*
X127600000Y-67800000D01*
X127990000Y-67800000D02*
X127600000Y-67800000D01*
X119700000Y-67750000D02*
X127550000Y-67750000D01*
%TO.N,Net-(TP14-Pad1)*%
X112800000Y-54000000D02*
X113400000Y-54600000D01*
X112800000Y-53200000D02*
X112800000Y-54000000D01*
X113750000Y-56750000D02*
X113750000Y-58300000D01*
X113400000Y-56400000D02*
X113750000Y-56750000D01*
D73*
%TO.N,Net-(D1-Pad2)*%
X252200000Y-37600000D02*
X252600000Y-37200000D01*
X252200000Y-42737500D02*
X252200000Y-37600000D01*
D71*
%TO.N,Net-(TP15-Pad1)*%
X114250000Y-56750000D02*
X114250000Y-58300000D01*
X114950000Y-54250000D02*
X114600000Y-54600000D01*
X114600000Y-56400000D02*
X114250000Y-56750000D01*
X114950000Y-53200000D02*
X114950000Y-54250000D01*
%TO.N,Net-(C1-Pad2)*%
X136600000Y-98000000D02*
X137000000Y-98400000D01*
X134650000Y-93475000D02*
X131800000Y-96325000D01*
X134650000Y-91987500D02*
X134650000Y-93475000D01*
X133400000Y-95000000D02*
X134937500Y-96537500D01*
X134650000Y-93750000D02*
X133400000Y-95000000D01*
X134937500Y-96537500D02*
X136600000Y-96537500D01*
X134650000Y-93475000D02*
X134650000Y-93750000D01*
X136600000Y-96537500D02*
X136600000Y-98000000D01*
X141800000Y-98400000D02*
X143600000Y-100200000D01*
X137000000Y-98400000D02*
X141800000Y-98400000D01*
D74*
%TO.N,Net-(C2-Pad1)*%
X130737500Y-90000000D02*
X131400000Y-89337500D01*
X132621114Y-84275000D02*
X135400000Y-87053886D01*
X135400000Y-87762500D02*
X135400000Y-88012500D01*
X135400000Y-87053886D02*
X135400000Y-87762500D01*
X132200000Y-84275000D02*
X132621114Y-84275000D01*
X131400000Y-85000000D02*
X132125000Y-84275000D01*
X131400000Y-89337500D02*
X131400000Y-85000000D01*
D71*
X132125000Y-84275000D02*
X132200000Y-84275000D01*
X135400000Y-87762500D02*
X135150000Y-88012500D01*
X135650000Y-88012500D02*
X135650000Y-87725000D01*
D77*
%TO.N,BAT+*%
X133412500Y-91012500D02*
X133412500Y-91250000D01*
X100587300Y-67412700D02*
X99600000Y-68400000D01*
X132200000Y-91000000D02*
X133400000Y-91000000D01*
X102654600Y-67412700D02*
X100587300Y-67412700D01*
X119955000Y-88770000D02*
X120370000Y-88770000D01*
X112600000Y-87430000D02*
X113940000Y-88770000D01*
X119955000Y-88770000D02*
X127200000Y-81525000D01*
X133400000Y-91000000D02*
X133412500Y-91012500D01*
X113940000Y-88770000D02*
X119955000Y-88770000D01*
X120370000Y-88770000D02*
X125200000Y-93600000D01*
X125200000Y-93600000D02*
X126725010Y-93600000D01*
X112600000Y-87000000D02*
X112600000Y-87430000D01*
D74*
%TO.N,Net-(C3-Pad1)*%
X128400000Y-90000000D02*
X126462500Y-90000000D01*
D71*
X133412500Y-88750000D02*
X133412500Y-88812500D01*
D74*
X133412500Y-88812500D02*
X133412500Y-89250000D01*
D71*
X132225000Y-88800000D02*
X132850010Y-88800000D01*
X128400000Y-94800000D02*
X128400000Y-90000000D01*
D74*
X133412500Y-88812500D02*
X132212500Y-88812500D01*
D71*
X132212500Y-88812500D02*
X132225000Y-88800000D01*
X126800000Y-96400000D02*
X128400000Y-94800000D01*
D73*
%TO.N,piWatchDogPin*%
X192020000Y-65500000D02*
X188900000Y-65500000D01*
X188900000Y-65500000D02*
X188800000Y-65600000D01*
D75*
%TO.N,SerialPin15*%
X197650000Y-67900000D02*
X195100000Y-67900000D01*
X198500000Y-67050000D02*
X198500000Y-67700000D01*
X198500000Y-67050000D02*
X197650000Y-67900000D01*
D71*
%TO.N,+1.8*%
X191920000Y-75200000D02*
X191994989Y-75125011D01*
X177200000Y-75200000D02*
X190800000Y-75200000D01*
X82840000Y-55087500D02*
X81200000Y-56727500D01*
X191720000Y-75200000D02*
X191994989Y-75474989D01*
X190800000Y-75200000D02*
X191920000Y-75200000D01*
X190800000Y-75200000D02*
X191720000Y-75200000D01*
X81200000Y-56727500D02*
X81200000Y-58600000D01*
X84090000Y-55087500D02*
X82840000Y-55087500D01*
%TO.N,Net-(C3-Pad2)*%
X126800000Y-99337500D02*
X126800000Y-99350000D01*
X134150000Y-91987500D02*
X126800000Y-99337500D01*
%TO.N,Net-(D81-Pad2)*%
X249000000Y-42737500D02*
X249000000Y-38600000D01*
D77*
%TO.N,Net-(C4-Pad2)*%
X207210251Y-38925000D02*
X162210306Y-83924945D01*
X153838056Y-83924946D02*
X152328001Y-85435001D01*
X218075000Y-38925000D02*
X207210251Y-38925000D01*
X162210306Y-83924945D02*
X153838056Y-83924946D01*
X151011998Y-85435000D02*
X148491997Y-82914999D01*
X152328001Y-85435001D02*
X151011998Y-85435000D01*
X148491997Y-82914999D02*
X139110001Y-82914999D01*
D74*
X218075000Y-38925000D02*
X218075000Y-36965000D01*
D71*
X136150000Y-84975000D02*
X136150000Y-88012500D01*
X136850000Y-84275000D02*
X136150000Y-84975000D01*
X137750000Y-84275000D02*
X136850000Y-84275000D01*
D77*
X139110001Y-82914999D02*
X137750000Y-84275000D01*
D71*
%TO.N,Net-(C6-Pad2)*%
X146850000Y-54000000D02*
X143900000Y-51050000D01*
X143900000Y-51050000D02*
X142500000Y-51050000D01*
%TO.N,Net-(D81-Pad1)*%
X139605387Y-89250000D02*
X139630377Y-89274990D01*
X148800000Y-88400000D02*
X149664969Y-87535033D01*
X196200000Y-86400000D02*
X197200000Y-85400000D01*
X137387500Y-89250000D02*
X139605387Y-89250000D01*
X154707919Y-86024979D02*
X194624011Y-86024979D01*
X194999033Y-86400000D02*
X196200000Y-86400000D01*
X197200000Y-85400000D02*
X197200000Y-84600000D01*
X194624011Y-86024979D02*
X194999033Y-86400000D01*
X153197864Y-87535034D02*
X154707919Y-86024979D01*
X149664969Y-87535033D02*
X153197864Y-87535034D01*
%TO.N,Net-(R1-Pad2)*%
X71400000Y-68000000D02*
X68800000Y-68000000D01*
X142262500Y-104600000D02*
X139400000Y-101737500D01*
X135512660Y-98375160D02*
X135512660Y-97874990D01*
X135512660Y-97874990D02*
X129874990Y-97874990D01*
X136650000Y-91987500D02*
X136650000Y-92657150D01*
X87400000Y-84000000D02*
X71400000Y-68000000D01*
X136650000Y-92657150D02*
X138909085Y-94916235D01*
X139400000Y-101737500D02*
X138875000Y-101737500D01*
X129874990Y-97874990D02*
X129800000Y-97800000D01*
X143600000Y-104600000D02*
X142262500Y-104600000D01*
X138875000Y-101737500D02*
X136600000Y-99462500D01*
X136600000Y-99462500D02*
X135512660Y-98375160D01*
%TO.N,CCVref*%
X153011463Y-87085023D02*
X154521518Y-85574968D01*
X143662500Y-86600000D02*
X149803515Y-86600000D01*
X195185433Y-85949989D02*
X195624691Y-85949989D01*
X140355378Y-88859952D02*
X139295415Y-87799989D01*
X195624691Y-85949989D02*
X195949845Y-85624835D01*
X149803515Y-86600000D02*
X150288537Y-87085022D01*
X140737500Y-91200000D02*
X140737500Y-89525000D01*
X136862511Y-87799989D02*
X136650000Y-88012500D01*
X249000000Y-47400000D02*
X249000000Y-45662500D01*
X139295415Y-87799989D02*
X136862511Y-87799989D01*
X194810412Y-85574968D02*
X195185433Y-85949989D01*
X140737500Y-89525000D02*
X143662500Y-86600000D01*
X140737500Y-89525000D02*
X140355378Y-89142878D01*
X150288537Y-87085022D02*
X153011463Y-87085023D01*
X154521518Y-85574968D02*
X194810412Y-85574968D01*
X140355378Y-89142878D02*
X140355378Y-88859952D01*
%TO.N,!ChargeStatus*%
X138537500Y-92400000D02*
X137387500Y-91250000D01*
X143662500Y-91200000D02*
X142462500Y-92400000D01*
X142462500Y-92400000D02*
X138537500Y-92400000D01*
%TO.N,!PowerGood*%
X140737500Y-87937500D02*
X140800000Y-88000000D01*
X138722404Y-88750000D02*
X138947414Y-88524990D01*
X140737500Y-86600000D02*
X140737500Y-87937500D01*
X137387500Y-88750000D02*
X138722404Y-88750000D01*
%TO.N,Net-(R3-Pad2)*%
X140137500Y-96000000D02*
X140000000Y-96000000D01*
X136150000Y-93750000D02*
X138400000Y-96000000D01*
X136150000Y-91987500D02*
X136150000Y-93750000D01*
X138400000Y-96000000D02*
X140137500Y-96000000D01*
%TO.N,Net-(R4-Pad2)*%
X135150000Y-94450000D02*
X135150000Y-91987500D01*
X134600000Y-95000000D02*
X135150000Y-94450000D01*
X129200000Y-101537500D02*
X129200000Y-100049990D01*
X129200000Y-100049990D02*
X129600000Y-99649990D01*
%TO.N,Net-(R8-Pad2)*%
X134400000Y-101537500D02*
X134400000Y-99637350D01*
X135650000Y-95050000D02*
X135800000Y-95200000D01*
X135650000Y-91987500D02*
X135650000Y-95050000D01*
X134400000Y-99637350D02*
X134450010Y-99587340D01*
%TO.N,Net-(D82-Pad2)*%
X107340000Y-102740000D02*
X107400000Y-102800000D01*
X107340000Y-101482500D02*
X107340000Y-102740000D01*
%TO.N,Net-(C8-Pad2)*%
X145600000Y-53400000D02*
X143750000Y-51550000D01*
X143750000Y-51550000D02*
X142500000Y-51550000D01*
X145600000Y-54800000D02*
X145600000Y-53400000D01*
X146850000Y-59000000D02*
X146850000Y-56050000D01*
X146850000Y-56050000D02*
X145600000Y-54800000D01*
%TO.N,Net-(C9-Pad1)*%
X135262500Y-51050000D02*
X139550000Y-51050000D01*
X145400000Y-45000000D02*
X145400000Y-44925000D01*
X145400000Y-44925000D02*
X146725000Y-43600000D01*
X132862500Y-48650000D02*
X134706250Y-50493750D01*
X136200000Y-50400000D02*
X136106250Y-50493750D01*
X134706250Y-50493750D02*
X135262500Y-51050000D01*
X136106250Y-50493750D02*
X134706250Y-50493750D01*
%TO.N,Net-(C10-Pad1)*%
X139550000Y-50550000D02*
X137050000Y-50550000D01*
X137050000Y-49225000D02*
X142675000Y-43600000D01*
X137050000Y-50550000D02*
X137050000Y-49225000D01*
%TO.N,Net-(C10-Pad2)*%
X141400000Y-48400000D02*
X140200000Y-47200000D01*
X141600000Y-58600000D02*
X142937500Y-58600000D01*
X142937500Y-58600000D02*
X143137500Y-58800000D01*
X141600000Y-56026264D02*
X140073726Y-54499990D01*
X140200000Y-47200000D02*
X140000000Y-47200000D01*
X141600000Y-58600000D02*
X141600000Y-56026264D01*
X140000000Y-47200000D02*
X137600000Y-49600000D01*
X137600000Y-50050000D02*
X139550000Y-50050000D01*
X138800000Y-44525000D02*
X138800000Y-45600000D01*
X141600000Y-48400000D02*
X141400000Y-48400000D01*
X137600000Y-49600000D02*
X137600000Y-50050000D01*
X139725000Y-43600000D02*
X138800000Y-44525000D01*
%TO.N,batCell+*%
X112130000Y-93620000D02*
X112130000Y-91519965D01*
D74*
X97467300Y-57267300D02*
X97400000Y-57200000D01*
X97467300Y-62332700D02*
X97467300Y-76667300D01*
D71*
X99350000Y-77250000D02*
X99350000Y-77100000D01*
D74*
X97900000Y-77100000D02*
X96250000Y-77100000D01*
X97467300Y-62332700D02*
X102654600Y-62332700D01*
X97467300Y-76667300D02*
X97900000Y-77100000D01*
X92545400Y-62332700D02*
X97467300Y-62332700D01*
D71*
X105299989Y-83199989D02*
X99350000Y-77250000D01*
X113255011Y-94745011D02*
X113255011Y-96410028D01*
X134400000Y-104462500D02*
X129200000Y-104462500D01*
D74*
X97467300Y-62332700D02*
X97467300Y-57267300D01*
D71*
X112130000Y-93620000D02*
X113255011Y-94745011D01*
D74*
X96250000Y-76750000D02*
X96250000Y-77100000D01*
D71*
X113255011Y-96410028D02*
X121307483Y-104462500D01*
X121307483Y-104462500D02*
X129200000Y-104462500D01*
D74*
X99350000Y-77100000D02*
X97900000Y-77100000D01*
D71*
X105299989Y-84689954D02*
X105299989Y-83199989D01*
X112130000Y-91519965D02*
X105299989Y-84689954D01*
%TO.N,Net-(TP16-Pad1)*%
X121352292Y-63799989D02*
X121436401Y-63799989D01*
X119700000Y-63750000D02*
X121302303Y-63750000D01*
X121302303Y-63750000D02*
X121352292Y-63799989D01*
X121436401Y-63799989D02*
X121661086Y-64024674D01*
X122549684Y-64024674D02*
X122600000Y-64074990D01*
X121661086Y-64024674D02*
X122549684Y-64024674D01*
%TO.N,SetPowerOFF*%
X95750000Y-79800000D02*
X98400000Y-79800000D01*
%TO.N,Net-(U5-Pad5)*%
X75200000Y-97400000D02*
X75274989Y-97474989D01*
X72312413Y-97887587D02*
X72800000Y-97400000D01*
X75274989Y-97474989D02*
X75948006Y-97474989D01*
X75948006Y-97474989D02*
X76325011Y-97851994D01*
X76325011Y-97851994D02*
X76325011Y-98288587D01*
X83836424Y-105800000D02*
X95000000Y-105800000D01*
X95000000Y-105800000D02*
X96000000Y-104800000D01*
X72800000Y-97400000D02*
X75200000Y-97400000D01*
X76325011Y-98288587D02*
X83836424Y-105800000D01*
X62000000Y-111000000D02*
X72312413Y-100687587D01*
X72312413Y-100687587D02*
X72312413Y-97887587D01*
%TO.N,Net-(R13-Pad1)*%
X112130000Y-98700000D02*
X107482500Y-98700000D01*
X107482500Y-98700000D02*
X107340000Y-98557500D01*
%TO.N,SetPowerON*%
X97995020Y-82025020D02*
X86152003Y-82025020D01*
X85474989Y-81348006D02*
X85474989Y-80651994D01*
X112130000Y-96160000D02*
X97995020Y-82025020D01*
X86326983Y-79800000D02*
X94250000Y-79800000D01*
X86152003Y-82025020D02*
X85474989Y-81348006D01*
X85474989Y-80651994D02*
X86326983Y-79800000D01*
%TO.N,col1*%
X197000000Y-105000000D02*
X170600000Y-105000000D01*
X170600000Y-105000000D02*
X168200000Y-107400000D01*
X197000000Y-105000000D02*
X197000000Y-112563588D01*
X209800000Y-130600000D02*
X206200000Y-127000000D01*
X199532445Y-59700590D02*
X199532445Y-59004588D01*
X150796849Y-107400000D02*
X150578453Y-107181604D01*
X134325001Y-122148001D02*
X134325001Y-121849679D01*
X197074999Y-94548001D02*
X197074999Y-87361412D01*
X212000000Y-130600000D02*
X209800000Y-130600000D01*
X199937033Y-58600000D02*
X209400000Y-58600000D01*
X200400000Y-101600000D02*
X200600000Y-101400000D01*
X206200000Y-127000000D02*
X206200000Y-117433711D01*
X133750000Y-123762500D02*
X133750000Y-122723002D01*
X168200000Y-107400000D02*
X150796849Y-107400000D01*
X134325001Y-121849679D02*
X135187340Y-120987340D01*
X133750000Y-122723002D02*
X134325001Y-122148001D01*
X197074999Y-87361412D02*
X200725001Y-83711410D01*
X118624988Y-115624988D02*
X119000000Y-116000000D01*
X197911402Y-113474990D02*
X198512660Y-113474990D01*
X96600000Y-115800000D02*
X115290586Y-115800000D01*
X197000000Y-105000000D02*
X198000000Y-104000000D01*
X198000000Y-104000000D02*
X198000000Y-95473002D01*
X214000000Y-50800000D02*
X214000000Y-50600000D01*
X209400000Y-58600000D02*
X209400000Y-55400000D01*
X200725001Y-60893146D02*
X199532445Y-59700590D01*
X115465599Y-115624988D02*
X118624988Y-115624988D01*
X115290586Y-115800000D02*
X115465599Y-115624988D01*
X119000000Y-116000000D02*
X119600000Y-116000000D01*
X209400000Y-58600000D02*
X210200000Y-58600000D01*
X199532445Y-59004588D02*
X199937033Y-58600000D01*
X209400000Y-55400000D02*
X214000000Y-50800000D01*
X206200000Y-117433711D02*
X204541310Y-115775021D01*
X198000000Y-104000000D02*
X200400000Y-101600000D01*
X198000000Y-95473002D02*
X197074999Y-94548001D01*
X197000000Y-112563588D02*
X197911402Y-113474990D01*
X200725001Y-83711410D02*
X200725001Y-60893146D01*
%TO.N,+1*%
X88640476Y-63146428D02*
X87025000Y-61530952D01*
X95959524Y-63759524D02*
X96000000Y-63800000D01*
X116750000Y-69700000D02*
X116750000Y-70565597D01*
X117250000Y-57050000D02*
X117250000Y-58300000D01*
X113403018Y-72596982D02*
X113200000Y-72800000D01*
X112400000Y-55600000D02*
X112250000Y-55750000D01*
X88640476Y-63759524D02*
X88640476Y-63146428D01*
X104750000Y-65550000D02*
X104750000Y-67976998D01*
X113750000Y-71652061D02*
X113403018Y-71999043D01*
X86900000Y-65671428D02*
X88640476Y-63930952D01*
X109832182Y-72525001D02*
X110032191Y-72725010D01*
X88640476Y-63930952D02*
X88640476Y-63759524D01*
X113750000Y-69700000D02*
X113750000Y-71652061D01*
X113403018Y-71999043D02*
X113403018Y-72596982D01*
X88640476Y-60832526D02*
X93873002Y-55600000D01*
X104750000Y-61750000D02*
X98950000Y-61750000D01*
X86900000Y-65680952D02*
X86900000Y-65671428D01*
X105623002Y-65750000D02*
X108300000Y-65750000D01*
X88640476Y-63146428D02*
X88640476Y-60832526D01*
X104750000Y-67976998D02*
X104274999Y-68451999D01*
X88640476Y-63759524D02*
X95959524Y-63759524D01*
X104750000Y-61750000D02*
X104750000Y-65550000D01*
X112200000Y-55600000D02*
X115800000Y-55600000D01*
X115750000Y-55650000D02*
X115750000Y-58300000D01*
X116799980Y-70615577D02*
X116799980Y-71934379D01*
X116799980Y-71934379D02*
X116159344Y-72575012D01*
X113852001Y-73125003D02*
X113526998Y-72800000D01*
X112250000Y-55750000D02*
X112250000Y-58300000D01*
X116750000Y-70565597D02*
X116799980Y-70615577D01*
X113526998Y-72800000D02*
X113200000Y-72800000D01*
X104874999Y-65674999D02*
X105548001Y-65674999D01*
X114925362Y-72575012D02*
X114375371Y-73125003D01*
X115800000Y-55600000D02*
X117250000Y-57050000D01*
X93873002Y-55600000D02*
X112200000Y-55600000D01*
X116159344Y-72575012D02*
X114925362Y-72575012D01*
X108300000Y-61750000D02*
X104750000Y-61750000D01*
X105548001Y-65674999D02*
X105623002Y-65750000D01*
X104274999Y-69911411D02*
X106888590Y-72525001D01*
X104274999Y-68451999D02*
X104274999Y-69911411D01*
X115800000Y-55600000D02*
X115750000Y-55650000D01*
X98950000Y-61750000D02*
X98600000Y-61400000D01*
X104750000Y-65550000D02*
X104874999Y-65674999D01*
X112200000Y-55600000D02*
X112400000Y-55600000D01*
X114375371Y-73125003D02*
X113852001Y-73125003D01*
X106888590Y-72525001D02*
X109832182Y-72525001D01*
%TO.N,Net-(TP17-Pad1)*%
X121250000Y-64250000D02*
X121800000Y-64800000D01*
X119700000Y-64250000D02*
X121250000Y-64250000D01*
X122000000Y-64800000D02*
X121800000Y-64800000D01*
%TO.N,Net-(TP18-Pad1)*%
X120700000Y-64750000D02*
X121550000Y-65600000D01*
X119700000Y-64750000D02*
X120700000Y-64750000D01*
X121550000Y-65600000D02*
X122800000Y-65600000D01*
%TO.N,Net-(TP19-Pad1)*%
X121450000Y-66250000D02*
X121800000Y-66600000D01*
X119700000Y-66250000D02*
X121450000Y-66250000D01*
X121800000Y-66600000D02*
X122800000Y-66600000D01*
%TO.N,Net-(TP20-Pad1)*%
X121401212Y-62750000D02*
X121594936Y-62556276D01*
X123156276Y-62556276D02*
X123600000Y-63000000D01*
X119700000Y-62750000D02*
X121401212Y-62750000D01*
X121594936Y-62556276D02*
X123156276Y-62556276D01*
%TO.N,Net-(TP13-Pad1)*%
X117250000Y-69700000D02*
X117250000Y-71280000D01*
X117250000Y-71280000D02*
X117690000Y-71720000D01*
D75*
%TO.N,USB_HOST_N*%
X163449980Y-58300000D02*
X163800000Y-57949980D01*
D73*
X114749998Y-71050002D02*
X114600000Y-71050002D01*
X115250000Y-69700000D02*
X115250000Y-70550000D01*
X115250000Y-70550000D02*
X114749998Y-71050002D01*
D75*
X161180000Y-58300000D02*
X163449980Y-58300000D01*
%TO.N,USB_HOST_P*%
X161799980Y-58700000D02*
X161849990Y-58649990D01*
X166400000Y-58649990D02*
X161820030Y-58649990D01*
D73*
X115750000Y-69700000D02*
X115750000Y-71274943D01*
D78*
X166249990Y-58800000D02*
X166400000Y-58649990D01*
D75*
X161180000Y-58700000D02*
X161799980Y-58700000D01*
D73*
X115750000Y-71274943D02*
X115624943Y-71400000D01*
D71*
%TO.N,Net-(TP21-Pad1)*%
X121584321Y-62106265D02*
X122740586Y-60950000D01*
X122740586Y-60950000D02*
X123600000Y-60950000D01*
X119700000Y-62250000D02*
X121264800Y-62250000D01*
X121408536Y-62106265D02*
X121584321Y-62106265D01*
X121264800Y-62250000D02*
X121408536Y-62106265D01*
%TO.N,Net-(TP22-Pad1)*%
X119700000Y-63250000D02*
X121911660Y-63250000D01*
X121911660Y-63250000D02*
X121942937Y-63281277D01*
%TO.N,Net-(D2-Pad1)*%
X243600000Y-42937500D02*
X243600000Y-41600000D01*
%TO.N,/PowerSupply/FB*%
X135787500Y-53650000D02*
X135950000Y-53650000D01*
X132862500Y-56575000D02*
X135787500Y-53650000D01*
X132862500Y-58650000D02*
X132862500Y-56575000D01*
X137650000Y-52050000D02*
X139550000Y-52050000D01*
X135950000Y-53650000D02*
X137600000Y-52000000D01*
X137600000Y-52000000D02*
X137650000Y-52050000D01*
%TO.N,Net-(D4-Pad1)*%
X240000000Y-42937500D02*
X240000000Y-41400000D01*
%TO.N,Net-(JP2-Pad1)*%
X126800000Y-116800000D02*
X126200000Y-117400000D01*
X131000000Y-116800000D02*
X128800000Y-116800000D01*
X132250000Y-123223002D02*
X132250000Y-123762500D01*
X132349969Y-122076967D02*
X132349969Y-123123033D01*
X128800000Y-116800000D02*
X126800000Y-116800000D01*
X128800000Y-118526998D02*
X132349969Y-122076967D01*
X128800000Y-116800000D02*
X128800000Y-118526998D01*
X132349969Y-123123033D02*
X132250000Y-123223002D01*
%TO.N,Net-(JP3-Pad2)*%
X132750000Y-123359414D02*
X132750000Y-123762500D01*
X132799980Y-121527018D02*
X132799980Y-123309434D01*
X135600000Y-116800000D02*
X135745788Y-116800000D01*
X135775130Y-116770658D02*
X137170658Y-116770658D01*
X137170658Y-116770658D02*
X137800000Y-117400000D01*
X132799980Y-123309434D02*
X132750000Y-123359414D01*
X133600000Y-116800000D02*
X135600000Y-116800000D01*
X135600000Y-118726998D02*
X132799980Y-121527018D01*
X135745788Y-116800000D02*
X135775130Y-116770658D01*
X135600000Y-116800000D02*
X135600000Y-118726998D01*
%TO.N,Net-(R18-Pad1)*%
X130750000Y-135550000D02*
X130750000Y-130637500D01*
X243400000Y-141800000D02*
X166400000Y-141800000D01*
X165600000Y-141000000D02*
X131000000Y-141000000D01*
X253000000Y-55262500D02*
X253000000Y-132200000D01*
X131000000Y-138200000D02*
X131000000Y-135800000D01*
X243600000Y-45862500D02*
X253000000Y-55262500D01*
X253000000Y-132200000D02*
X243400000Y-141800000D01*
X131000000Y-135800000D02*
X130750000Y-135550000D01*
X166400000Y-141800000D02*
X165600000Y-141000000D01*
%TO.N,Net-(JP4-Pad1)*%
X227662500Y-66400000D02*
X244600000Y-66400000D01*
X244600000Y-66400000D02*
X247000000Y-68800000D01*
%TO.N,Net-(R20-Pad1)*%
X133800000Y-137800000D02*
X207000000Y-137800000D01*
X241662500Y-45862500D02*
X240000000Y-45862500D01*
X248200000Y-131963588D02*
X248636412Y-131963588D01*
X252000000Y-56200000D02*
X241662500Y-45862500D01*
X133250000Y-137250000D02*
X133800000Y-137800000D01*
X133250000Y-130637500D02*
X133250000Y-137250000D01*
X248636412Y-131963588D02*
X252000000Y-128600000D01*
X241963588Y-138200000D02*
X248200000Y-131963588D01*
X223200000Y-138200000D02*
X241963588Y-138200000D01*
X252000000Y-128600000D02*
X252000000Y-56200000D01*
X223000000Y-138000000D02*
X223200000Y-138200000D01*
%TO.N,Net-(R15-Pad1)*%
X88400000Y-76200000D02*
X88400000Y-75778874D01*
X110250000Y-69700000D02*
X109100000Y-69700000D01*
X109100000Y-69700000D02*
X109000000Y-69800000D01*
X88400000Y-75778874D02*
X88571438Y-75607436D01*
%TO.N,Net-(J4-Pad3)*%
X106650000Y-67750000D02*
X106600000Y-67800000D01*
X108300000Y-67750000D02*
X106650000Y-67750000D01*
X99400000Y-48200000D02*
X100800000Y-49600000D01*
X99400000Y-45590000D02*
X99400000Y-48200000D01*
D73*
%TO.N,/USB and Keyboard connections/KEYBOARD_USB_DN*%
X104400000Y-56600000D02*
X102600000Y-58400000D01*
X133400000Y-118300000D02*
X133600000Y-118100000D01*
X110750000Y-57350000D02*
X110000000Y-56600000D01*
X102600000Y-58400000D02*
X102600000Y-59400000D01*
X133400000Y-119600000D02*
X133400000Y-118300000D01*
X110750000Y-58300000D02*
X110750000Y-57350000D01*
X110000000Y-56600000D02*
X104400000Y-56600000D01*
%TO.N,/USB and Keyboard connections/KEYBOARD_USB_DP*%
X103800000Y-58400000D02*
X103800000Y-59400000D01*
X110250000Y-57700000D02*
X109550011Y-57000011D01*
X131000000Y-119200000D02*
X131400000Y-119600000D01*
X131000000Y-118100000D02*
X131000000Y-119200000D01*
X110250000Y-58300000D02*
X110250000Y-57700000D01*
X109550011Y-57000011D02*
X105199989Y-57000011D01*
X105199989Y-57000011D02*
X103800000Y-58400000D01*
D71*
%TO.N,col3*%
X151950000Y-125950000D02*
X154062339Y-128062339D01*
X146788576Y-125424988D02*
X147488591Y-126125001D01*
X113200000Y-131200000D02*
X113274999Y-131125001D01*
X140902191Y-125424988D02*
X146788576Y-125424988D01*
X135437500Y-125950000D02*
X137815266Y-125950000D01*
X209888596Y-131325001D02*
X236474999Y-131325001D01*
X154062339Y-128062339D02*
X154160661Y-128062339D01*
X140131678Y-126195497D02*
X140902191Y-125424988D01*
X113274999Y-131125001D02*
X113274999Y-128600009D01*
X147488591Y-126125001D02*
X149748001Y-126125001D01*
X154173321Y-128074999D02*
X157748001Y-128074999D01*
X153960661Y-128062339D02*
X154160661Y-128062339D01*
X155125001Y-129026679D02*
X155125001Y-131601997D01*
X102000000Y-111000000D02*
X102600000Y-111600000D01*
X113274999Y-128600009D02*
X112400000Y-127725010D01*
X151950000Y-125950000D02*
X151950000Y-126051678D01*
X154160661Y-128062339D02*
X154173321Y-128074999D01*
X155125001Y-131601997D02*
X152143539Y-134583459D01*
X137815266Y-125950000D02*
X138060763Y-126195497D01*
X102000000Y-110200000D02*
X102000000Y-111000000D01*
X151950000Y-126051678D02*
X153960661Y-128062339D01*
X138060763Y-126195497D02*
X140131678Y-126195497D01*
X149748001Y-126125001D02*
X149923002Y-125950000D01*
X157748001Y-128074999D02*
X158422991Y-128749989D01*
X207313527Y-128749989D02*
X209888596Y-131325001D01*
X158422991Y-128749989D02*
X207313527Y-128749989D01*
X226499216Y-94274990D02*
X224224979Y-94274990D01*
X149923002Y-125950000D02*
X151950000Y-125950000D01*
X152143539Y-134583459D02*
X152143539Y-135518191D01*
X101400000Y-109600000D02*
X102000000Y-110200000D01*
X154160661Y-128062339D02*
X155125001Y-129026679D01*
X236474999Y-131325001D02*
X236800000Y-131000000D01*
%TO.N,col5*%
X208450011Y-116450011D02*
X208450011Y-116413600D01*
X160800000Y-116800000D02*
X162200000Y-115400000D01*
X117354392Y-117000000D02*
X117366633Y-116987759D01*
X140504488Y-127095511D02*
X141200001Y-126400000D01*
X213600000Y-77800000D02*
X213600000Y-78400000D01*
X138200000Y-114000000D02*
X138200000Y-114725010D01*
X72762424Y-114762424D02*
X74200000Y-116200000D01*
X207074999Y-126911410D02*
X207413600Y-127250011D01*
X141811355Y-126400000D02*
X142238359Y-126827004D01*
X213600000Y-103000000D02*
X212400000Y-104200000D01*
X130800000Y-109200000D02*
X131000000Y-109000000D01*
X142238359Y-127523016D02*
X142200000Y-127561375D01*
X131000000Y-109000000D02*
X133273002Y-109000000D01*
X149200000Y-116800000D02*
X160800000Y-116800000D01*
X213400000Y-75000000D02*
X213600000Y-75200000D01*
X118800000Y-114600000D02*
X119000000Y-114600000D01*
X142200000Y-127561375D02*
X142200000Y-128600000D01*
X72762424Y-100274999D02*
X72762424Y-114762424D01*
X116000000Y-114200000D02*
X118400000Y-114200000D01*
X207413600Y-127250011D02*
X210213600Y-127250011D01*
X212200000Y-120200000D02*
X212400000Y-120200000D01*
X213600000Y-75200000D02*
X213600000Y-77800000D01*
X139600000Y-134200000D02*
X140200000Y-133600000D01*
X207074999Y-126051999D02*
X207074999Y-126911410D01*
X137687963Y-127095519D02*
X140504488Y-127095511D01*
X137000000Y-134200000D02*
X139600000Y-134200000D01*
X135437500Y-126950000D02*
X137542443Y-126950000D01*
X210213600Y-127250011D02*
X211600000Y-128636411D01*
X211600000Y-128636411D02*
X211600000Y-128800000D01*
X141200001Y-126400000D02*
X141811355Y-126400000D01*
X211600000Y-121526998D02*
X207074999Y-126051999D01*
X141811355Y-126400000D02*
X144200000Y-126400000D01*
X213600000Y-78400000D02*
X213600000Y-103000000D01*
X133273002Y-109000000D02*
X137925001Y-113651999D01*
X137925001Y-113651999D02*
X137925001Y-113725001D01*
X144200000Y-126400000D02*
X144400000Y-126600000D01*
X73037423Y-100000000D02*
X72762424Y-100274999D01*
X140200000Y-133600000D02*
X140200000Y-130600000D01*
X94800000Y-117000000D02*
X117354392Y-117000000D01*
X208450011Y-116413600D02*
X207725010Y-115688599D01*
X74200000Y-116200000D02*
X94000000Y-116200000D01*
X94000000Y-116200000D02*
X94800000Y-117000000D01*
X211600000Y-119600000D02*
X208450011Y-116450011D01*
X211600000Y-119600000D02*
X212200000Y-120200000D01*
X211600000Y-119600000D02*
X211600000Y-121526998D01*
X212000000Y-140600000D02*
X212000000Y-133600000D01*
X137542443Y-126950000D02*
X137687963Y-127095519D01*
X118400000Y-114200000D02*
X118800000Y-114600000D01*
X207725010Y-115688599D02*
X207725010Y-114200000D01*
X137925001Y-113725001D02*
X138200000Y-114000000D01*
X142238359Y-126827004D02*
X142238359Y-127523016D01*
%TO.N,row1*%
X100400000Y-110800000D02*
X100400000Y-110600000D01*
X88050011Y-112050011D02*
X80386400Y-112050011D01*
X121097809Y-118824988D02*
X118347815Y-116074999D01*
X127722834Y-125450000D02*
X122175012Y-119902188D01*
X88100000Y-112100000D02*
X86600000Y-110600000D01*
X97800000Y-113400000D02*
X100400000Y-110800000D01*
X122175012Y-119902188D02*
X122175012Y-119465598D01*
X88100000Y-112100000D02*
X88050011Y-112050011D01*
X74749989Y-111892931D02*
X73487435Y-110630377D01*
X115201997Y-116525001D02*
X94961413Y-116525001D01*
X89400000Y-113400000D02*
X88100000Y-112100000D01*
X75313578Y-115749989D02*
X74749989Y-115186400D01*
X74749989Y-115186400D02*
X74749989Y-111892931D01*
X80386400Y-112050011D02*
X76686422Y-115749989D01*
X76686422Y-115749989D02*
X75313578Y-115749989D01*
X91749989Y-115749989D02*
X89400000Y-113400000D01*
X115651999Y-116074999D02*
X115201997Y-116525001D01*
X89400000Y-113400000D02*
X97800000Y-113400000D01*
X94961413Y-116525001D02*
X94186400Y-115749989D01*
X121534401Y-118824988D02*
X121097809Y-118824988D01*
X94186400Y-115749989D02*
X91749989Y-115749989D01*
X122175012Y-119465598D02*
X121534401Y-118824988D01*
X118347815Y-116074999D02*
X115651999Y-116074999D01*
X128562500Y-125450000D02*
X127722834Y-125450000D01*
%TO.N,col2*%
X192961413Y-120674999D02*
X142925001Y-120674999D01*
X223749989Y-112876987D02*
X223749989Y-120076987D01*
X142925001Y-120674999D02*
X138408764Y-125191236D01*
X207851999Y-104074999D02*
X203125001Y-108801997D01*
X200352589Y-59352589D02*
X200257446Y-59352589D01*
X138388268Y-125450000D02*
X138408764Y-125470496D01*
X212674999Y-101525001D02*
X212674999Y-71674999D01*
X209850011Y-105813600D02*
X209850011Y-106013605D01*
X210125001Y-104074999D02*
X207851999Y-104074999D01*
X135437500Y-125450000D02*
X138388268Y-125450000D01*
X195711411Y-117925001D02*
X192961413Y-120674999D01*
X209474999Y-105438587D02*
X209850011Y-105813600D01*
X211200000Y-103000000D02*
X212674999Y-101525001D01*
X212674999Y-71674999D02*
X200352589Y-59352589D01*
X223749989Y-120076987D02*
X227525001Y-123851999D01*
X209850011Y-106013605D02*
X215111410Y-111274999D01*
X95800000Y-126000000D02*
X95800000Y-123200000D01*
X211200000Y-103526998D02*
X209474999Y-105251999D01*
X227525001Y-124548001D02*
X226200000Y-125873002D01*
X138408764Y-125191236D02*
X138408764Y-125470496D01*
X212200000Y-102000000D02*
X212400000Y-102000000D01*
X209474999Y-105251999D02*
X209474999Y-105438587D01*
X226200000Y-125873002D02*
X226200000Y-128600000D01*
X202748001Y-117925001D02*
X195711411Y-117925001D01*
X227525001Y-123851999D02*
X227525001Y-124548001D01*
X203125001Y-108801997D02*
X203125001Y-117548001D01*
X203125001Y-117548001D02*
X202748001Y-117925001D01*
X211200000Y-103000000D02*
X210125001Y-104074999D01*
X215111410Y-111274999D02*
X222148001Y-111274999D01*
X211200000Y-103000000D02*
X212200000Y-102000000D01*
X211200000Y-103000000D02*
X211200000Y-103526998D01*
X222148001Y-111274999D02*
X223749989Y-112876987D01*
%TO.N,col4*%
X222725010Y-136200000D02*
X222149845Y-136775165D01*
X140318080Y-126645508D02*
X141088591Y-125874999D01*
X235549989Y-137749989D02*
X234000000Y-136200000D01*
X144748001Y-125874999D02*
X145448014Y-126575012D01*
X145448014Y-126575012D02*
X151575012Y-126575012D01*
X137678854Y-126450000D02*
X137874363Y-126645508D01*
X117925001Y-125674999D02*
X117651999Y-125674999D01*
X135437500Y-126450000D02*
X137678854Y-126450000D01*
X153787340Y-128787340D02*
X153812660Y-128787340D01*
X218800000Y-84400000D02*
X217800000Y-84400000D01*
X239000000Y-104000000D02*
X239000000Y-135800000D01*
X115800000Y-110400000D02*
X116000000Y-110600000D01*
X137874363Y-126645508D02*
X140318080Y-126645508D01*
X117651999Y-125674999D02*
X116906349Y-126420649D01*
X234000000Y-136200000D02*
X222725010Y-136200000D01*
X114200000Y-108800000D02*
X115800000Y-110400000D01*
X237050011Y-137749989D02*
X235549989Y-137749989D01*
X226400000Y-84400000D02*
X218800000Y-84400000D01*
X118800000Y-124600000D02*
X118800000Y-124800000D01*
X118800000Y-124800000D02*
X117925001Y-125674999D01*
X141088591Y-125874999D02*
X144748001Y-125874999D01*
X239000000Y-135800000D02*
X237050011Y-137749989D01*
X116906349Y-126420649D02*
X116906349Y-128189075D01*
X151575012Y-126575012D02*
X153787340Y-128787340D01*
%TO.N,col6*%
X137501564Y-127545530D02*
X141142828Y-127545530D01*
X105800000Y-127000000D02*
X108400000Y-127000000D01*
X82600000Y-119000000D02*
X85149989Y-121549989D01*
X137406032Y-127450000D02*
X137501564Y-127545530D01*
X85149989Y-121549989D02*
X100349989Y-121549989D01*
X74200000Y-110200000D02*
X74400000Y-110400000D01*
X74400000Y-110400000D02*
X74474990Y-110400000D01*
X141142828Y-127545530D02*
X141513348Y-127175010D01*
X74200000Y-99400000D02*
X74200000Y-110200000D01*
X100349989Y-121549989D02*
X105800000Y-127000000D01*
X135437500Y-127450000D02*
X137406032Y-127450000D01*
%TO.N,row3*%
X154600000Y-133200000D02*
X155200000Y-133200000D01*
X111400000Y-134800000D02*
X111400000Y-133400000D01*
X164800000Y-134800000D02*
X164800000Y-132200000D01*
X88200000Y-132000000D02*
X92200000Y-136000000D01*
X114000000Y-128400000D02*
X114000000Y-133000000D01*
X114000000Y-133400000D02*
X117800000Y-133400000D01*
X128562500Y-126450000D02*
X118250000Y-126450000D01*
X157800000Y-135800000D02*
X163800000Y-135800000D01*
X163800000Y-135800000D02*
X164000000Y-135600000D01*
X155200000Y-133200000D02*
X157800000Y-135800000D01*
X178000000Y-134800000D02*
X178000000Y-132600000D01*
X117800000Y-133400000D02*
X118800000Y-134400000D01*
X118250000Y-126450000D02*
X118200000Y-126400000D01*
X191000000Y-135000000D02*
X190948000Y-135052000D01*
X111400000Y-134800000D02*
X111400000Y-139000000D01*
X177000000Y-135800000D02*
X178000000Y-134800000D01*
X190948000Y-135052000D02*
X190948000Y-137074990D01*
X164000000Y-135600000D02*
X164800000Y-134800000D01*
X114000000Y-133400000D02*
X114000000Y-134800000D01*
X114000000Y-134800000D02*
X111400000Y-134800000D01*
X163800000Y-135800000D02*
X177000000Y-135800000D01*
X114000000Y-133000000D02*
X114000000Y-133400000D01*
%TO.N,row2*%
X119080849Y-125749989D02*
X119005850Y-125674990D01*
X181224979Y-128200000D02*
X181400000Y-128024979D01*
X146000000Y-122600000D02*
X146000000Y-122200000D01*
X136600000Y-119400000D02*
X137000000Y-119800000D01*
X137000000Y-119800000D02*
X145600000Y-119800000D01*
X83763588Y-120800000D02*
X84963589Y-122000000D01*
X181400000Y-130200000D02*
X181400000Y-136874990D01*
X124949989Y-125149989D02*
X124949989Y-125749989D01*
X173000000Y-123600000D02*
X177600000Y-128200000D01*
X124949989Y-125749989D02*
X119080849Y-125749989D01*
X126186412Y-125950000D02*
X125986401Y-125749989D01*
X91942799Y-122000000D02*
X92667809Y-122725010D01*
X147800000Y-124400000D02*
X146000000Y-122600000D01*
X150800000Y-124400000D02*
X147800000Y-124400000D01*
X128562500Y-125950000D02*
X126186412Y-125950000D01*
X125986401Y-125749989D02*
X124949989Y-125749989D01*
X177600000Y-128200000D02*
X181224979Y-128200000D01*
X124800000Y-125000000D02*
X124949989Y-125149989D01*
X181400000Y-136874990D02*
X181200000Y-137074990D01*
X84963589Y-122000000D02*
X91942799Y-122000000D01*
X80000000Y-120800000D02*
X83763588Y-120800000D01*
D72*
%TO.N,SD_DAT1*%
X193830000Y-71500000D02*
X194230000Y-71100000D01*
X175210000Y-95802500D02*
X175210000Y-95500000D01*
X194230000Y-71100000D02*
X195100000Y-71100000D01*
X175210000Y-95500000D02*
X184160000Y-86550000D01*
D79*
%TO.N,SD_DAT0*%
X196020000Y-70300000D02*
X195100000Y-70300000D01*
D72*
X176310000Y-95802500D02*
X176310000Y-95000000D01*
X196030000Y-70310000D02*
X196020000Y-70300000D01*
X176310000Y-95000000D02*
X184730000Y-86580000D01*
%TO.N,SD_CLK*%
X178510000Y-93590000D02*
X185520000Y-86580000D01*
X194500000Y-69100000D02*
X195100000Y-69100000D01*
X194150000Y-68750000D02*
X194500000Y-69100000D01*
X178510000Y-95802500D02*
X178510000Y-93590000D01*
%TO.N,SD_CMD*%
X192790000Y-69900000D02*
X192020000Y-69900000D01*
X186730000Y-86630000D02*
X186700000Y-86600000D01*
X192900000Y-70010000D02*
X192790000Y-69900000D01*
X180710000Y-95802500D02*
X180710000Y-92680000D01*
X180710000Y-92680000D02*
X186760000Y-86630000D01*
X186760000Y-86630000D02*
X186730000Y-86630000D01*
D79*
%TO.N,SD_DAT3*%
X196760000Y-69900000D02*
X195100000Y-69900000D01*
D72*
X196780000Y-69920000D02*
X196760000Y-69900000D01*
D79*
%TO.N,SD_DAT2*%
X195100000Y-71500000D02*
X197138110Y-71500000D01*
D75*
%TO.N,SerialPin14*%
X196600000Y-68700000D02*
X195100000Y-68700000D01*
X198500000Y-70600000D02*
X196600000Y-68700000D01*
D72*
%TO.N,HDMI0_CEC*%
X160480000Y-67900000D02*
X160280000Y-67700000D01*
X161180000Y-67900000D02*
X160480000Y-67900000D01*
%TO.N,HDMI0_HOTPLUG*%
X160250000Y-68300000D02*
X160170000Y-68220000D01*
X161180000Y-68300000D02*
X160250000Y-68300000D01*
%TO.N,HDMI0_TX2_P*%
X146330000Y-71500000D02*
X145940000Y-71110000D01*
X158100000Y-71500000D02*
X146330000Y-71500000D01*
%TO.N,HDMI0_TX2_N*%
X145310000Y-71900000D02*
X145000000Y-71590000D01*
X158100000Y-71900000D02*
X145310000Y-71900000D01*
%TO.N,HDMI0_TX1_P*%
X158100000Y-72700000D02*
X144380000Y-72700000D01*
X144380000Y-72700000D02*
X144070000Y-72390000D01*
%TO.N,HDMI0_TX1_N*%
X158100000Y-73100000D02*
X143290000Y-73100000D01*
X143290000Y-73100000D02*
X143280000Y-73110000D01*
%TO.N,HDMI0_TX0_P*%
X158100000Y-73900000D02*
X142190000Y-73900000D01*
X142190000Y-73900000D02*
X142150000Y-73940000D01*
%TO.N,HDMI0_TX0_N*%
X141212424Y-74300000D02*
X141171212Y-74341212D01*
X141819711Y-74628101D02*
X141491610Y-74300000D01*
X142808390Y-74300000D02*
X142480289Y-74628101D01*
X142480289Y-74628101D02*
X141819711Y-74628101D01*
X158100000Y-74300000D02*
X142808390Y-74300000D01*
X141491610Y-74300000D02*
X141212424Y-74300000D01*
%TO.N,HDMI0_CK_P*%
X158100000Y-75100000D02*
X140470000Y-75100000D01*
X140470000Y-75100000D02*
X140460000Y-75110000D01*
D79*
%TO.N,HDMI0_SDA*%
X161180000Y-77500000D02*
X161180000Y-80180000D01*
X158160000Y-83200000D02*
X153490000Y-83200000D01*
X161180000Y-80180000D02*
X158160000Y-83200000D01*
%TO.N,HDMI0_SCL*%
X158100000Y-77970000D02*
X158100000Y-77500000D01*
X151360000Y-84710000D02*
X158100000Y-77970000D01*
%TD*%
M02*
