%TF.GenerationSoftware,KiCad,Pcbnew,(5.99.0-9972-g9020611657)*%
%TF.CreationDate,2021-05-31T19:12:41-05:00*%
%TF.ProjectId,ti92revive,74693932-7265-4766-9976-652e6b696361,rev?*%
%TF.SameCoordinates,Original*%
%TF.FileFunction,Copper,L2,Inr*%
%TF.FilePolarity,Positive*%
%FSLAX46Y46*%
G04 Gerber Fmt 4.6, Leading zero omitted, Abs format (unit mm)*
G04 Created by KiCad (PCBNEW (5.99.0-9972-g9020611657)) date 2021-05-31 19:12:41*
%MOMM*%
%LPD*%
G01*
G04 APERTURE LIST*
%TA.AperFunction,ComponentPad*%
%ADD10R,1.700000X1.700000*%
%TD*%
%TA.AperFunction,ComponentPad*%
%ADD11O,1.700000X1.700000*%
%TD*%
%TA.AperFunction,ComponentPad*%
%ADD12O,1.350000X1.700000*%
%TD*%
%TA.AperFunction,ComponentPad*%
%ADD13O,1.100000X1.500000*%
%TD*%
%TA.AperFunction,ComponentPad*%
%ADD14R,1.600000X1.600000*%
%TD*%
%TA.AperFunction,ComponentPad*%
%ADD15C,1.600000*%
%TD*%
%TA.AperFunction,ComponentPad*%
%ADD16C,0.500000*%
%TD*%
%TA.AperFunction,ComponentPad*%
%ADD17C,3.000000*%
%TD*%
%TA.AperFunction,ViaPad*%
%ADD18C,0.800000*%
%TD*%
%TA.AperFunction,ViaPad*%
%ADD19C,0.300000*%
%TD*%
%TA.AperFunction,Conductor*%
%ADD20C,0.750000*%
%TD*%
%TA.AperFunction,Conductor*%
%ADD21C,0.250000*%
%TD*%
%TA.AperFunction,Conductor*%
%ADD22C,0.500000*%
%TD*%
%TA.AperFunction,Conductor*%
%ADD23C,0.200000*%
%TD*%
%TA.AperFunction,Conductor*%
%ADD24C,0.700000*%
%TD*%
%TA.AperFunction,Conductor*%
%ADD25C,0.760000*%
%TD*%
G04 APERTURE END LIST*
D10*
%TO.N,Net-(JP4-Pad1)*%
%TO.C,JP4*%
X247000000Y-68800000D03*
D11*
%TO.N,Net-(JP4-Pad2)*%
X244460000Y-68800000D03*
%TD*%
D12*
%TO.N,Earth_Clean*%
%TO.C,J1*%
X222105000Y-34085000D03*
D13*
X221795000Y-37085000D03*
X216955000Y-37085000D03*
D12*
X216645000Y-34085000D03*
%TD*%
D10*
%TO.N,Net-(R1-Pad2)*%
%TO.C,TH1*%
X68800000Y-68000000D03*
D11*
%TO.N,Earth_Clean*%
X66260000Y-68000000D03*
%TD*%
D14*
%TO.N,Net-(TP25-Pad1)*%
%TO.C,U5*%
X119750000Y-93620000D03*
D15*
%TO.N,SetPowerOFF*%
X119750000Y-96160000D03*
%TO.N,piWatchDogPin*%
X119750000Y-98700000D03*
%TO.N,Earth_Clean*%
X119750000Y-101240000D03*
%TO.N,Net-(U5-Pad5)*%
X112130000Y-101240000D03*
%TO.N,Net-(R13-Pad1)*%
X112130000Y-98700000D03*
%TO.N,SetPowerON*%
X112130000Y-96160000D03*
%TO.N,batCell+*%
X112130000Y-93620000D03*
%TD*%
D10*
%TO.N,batCell+*%
%TO.C,J2*%
X69400000Y-57200000D03*
D11*
%TO.N,Earth_Clean*%
X66860000Y-57200000D03*
%TD*%
D16*
%TO.N,N/C*%
%TO.C,U3*%
X134425000Y-90000000D03*
X135400000Y-90000000D03*
X135400000Y-89025000D03*
X134425000Y-89025000D03*
X136375000Y-90975000D03*
X136375000Y-89025000D03*
X135400000Y-90975000D03*
X134425000Y-90975000D03*
X136375000Y-90000000D03*
%TD*%
D14*
%TO.N,+5*%
%TO.C,J4*%
X94900000Y-45590000D03*
D15*
%TO.N,Net-(J4-Pad2)*%
X97400000Y-45590000D03*
%TO.N,Net-(J4-Pad3)*%
X99400000Y-45590000D03*
%TO.N,Earth_Clean*%
X101900000Y-45590000D03*
D17*
X91830000Y-42880000D03*
X104970000Y-42880000D03*
%TD*%
D16*
%TO.N,Earth_Clean*%
%TO.C,U7*%
X111500000Y-60500000D03*
X117500000Y-61500000D03*
X116500000Y-64500000D03*
X112500000Y-60500000D03*
X112500000Y-65500000D03*
X111500000Y-61500000D03*
X115500000Y-67500000D03*
X116500000Y-63500000D03*
X112500000Y-61500000D03*
X113500000Y-64500000D03*
X113500000Y-67500000D03*
X117500000Y-62500000D03*
X115500000Y-63500000D03*
X110500000Y-62500000D03*
X116500000Y-61500000D03*
X111500000Y-64500000D03*
X114500000Y-60500000D03*
X111500000Y-66500000D03*
X111500000Y-63500000D03*
X116500000Y-67500000D03*
X113500000Y-63500000D03*
X115500000Y-66500000D03*
X110500000Y-66500000D03*
X117500000Y-64500000D03*
X112500000Y-63500000D03*
X112500000Y-67500000D03*
X116500000Y-66500000D03*
X115500000Y-60500000D03*
X113500000Y-65500000D03*
X111500000Y-65500000D03*
X110500000Y-67500000D03*
X112500000Y-62500000D03*
X113500000Y-61500000D03*
X115500000Y-65500000D03*
X110500000Y-63500000D03*
X113500000Y-60500000D03*
X114500000Y-66500000D03*
X117500000Y-66500000D03*
X114500000Y-65500000D03*
X111500000Y-67500000D03*
X110500000Y-61500000D03*
X113500000Y-62500000D03*
X114500000Y-64500000D03*
X117500000Y-60500000D03*
X114500000Y-63500000D03*
X114500000Y-67500000D03*
X112500000Y-64500000D03*
X112500000Y-66500000D03*
X114500000Y-61500000D03*
X113500000Y-66500000D03*
X115500000Y-62500000D03*
X110500000Y-64500000D03*
X115500000Y-61500000D03*
X110500000Y-65500000D03*
X116500000Y-60500000D03*
X111500000Y-62500000D03*
X116500000Y-65500000D03*
X117500000Y-67500000D03*
X117500000Y-63500000D03*
X114500000Y-62500000D03*
X116500000Y-62500000D03*
X115500000Y-64500000D03*
X117500000Y-65500000D03*
X110500000Y-60500000D03*
%TD*%
D10*
%TO.N,BAT+*%
%TO.C,J3*%
X247200000Y-75600000D03*
D11*
%TO.N,batCell+*%
X244660000Y-75600000D03*
%TD*%
D14*
%TO.N,+5*%
%TO.C,J5*%
X112400000Y-45590000D03*
D15*
%TO.N,Net-(J5-Pad2)*%
X114900000Y-45590000D03*
%TO.N,Net-(J5-Pad3)*%
X116900000Y-45590000D03*
%TO.N,Earth_Clean*%
X119400000Y-45590000D03*
D17*
X122470000Y-42880000D03*
X109330000Y-42880000D03*
%TD*%
D18*
%TO.N,Net-(TP13-Pad1)*%
X117690000Y-71720000D03*
D19*
%TO.N,Earth_Clean*%
X141450000Y-84280000D03*
X144450000Y-84360000D03*
X142960000Y-84350000D03*
X139960000Y-84210000D03*
D18*
%TO.N,HDMI0_HOTPLUG*%
X137540000Y-75890000D03*
%TO.N,HDMI0_CEC*%
X138910000Y-75030000D03*
%TO.N,HDMI0_TX2_P*%
X145940000Y-71110000D03*
%TO.N,HDMI0_TX2_N*%
X145000000Y-71590000D03*
%TO.N,HDMI0_TX1_P*%
X144070000Y-72390000D03*
%TO.N,HDMI0_TX1_N*%
X143280000Y-73110000D03*
%TO.N,HDMI0_TX0_P*%
X142150000Y-73940000D03*
%TO.N,HDMI0_TX0_N*%
X141171212Y-74341212D03*
%TO.N,HDMI0_CK_P*%
X140460000Y-75110000D03*
%TO.N,HDMI0_CK_N*%
X139570000Y-76200000D03*
%TO.N,HDMI0_SCL*%
X138120000Y-85450000D03*
%TO.N,HDMI0_SDA*%
X137370000Y-86370000D03*
%TO.N,col9*%
X227600000Y-85800000D03*
X125600000Y-145400000D03*
X225000000Y-108000000D03*
X153600000Y-136200000D03*
X183800000Y-134200000D03*
X183800000Y-137000000D03*
X225200000Y-74800000D03*
X207800000Y-126400000D03*
X224600000Y-125600000D03*
X156800000Y-136200000D03*
X153600000Y-141725010D03*
X199200000Y-121400000D03*
X226200000Y-119200000D03*
X194250933Y-120450924D03*
%TO.N,col7*%
X226400000Y-106000000D03*
X75600000Y-114200000D03*
X163800000Y-118600000D03*
X214200000Y-105600000D03*
X123800000Y-124000000D03*
X143600000Y-127400000D03*
X223600000Y-133400000D03*
X221200000Y-135000000D03*
X75200000Y-99200000D03*
X210439402Y-105391393D03*
X237000000Y-104200000D03*
X79400000Y-117200000D03*
X154400000Y-130600000D03*
X157200000Y-109000000D03*
%TO.N,col8*%
X170777895Y-106325010D03*
X170200000Y-109074990D03*
X235600000Y-104400000D03*
X175000000Y-119600000D03*
X75600000Y-98200000D03*
X214325010Y-95002163D03*
X113000000Y-106400000D03*
X170601017Y-114674990D03*
X163887340Y-134687340D03*
X156159327Y-129725010D03*
X151200000Y-128200000D03*
%TO.N,col0*%
X123400000Y-117600000D03*
X149000000Y-125400000D03*
X72200000Y-124600000D03*
X238800000Y-91400000D03*
X121000000Y-120000000D03*
X251274990Y-89800000D03*
X247194454Y-133994454D03*
X156600000Y-128800000D03*
X147000000Y-121400000D03*
X137200000Y-114000000D03*
X200000000Y-133200000D03*
X101800000Y-141000000D03*
%TO.N,Net-(D84-Pad2)*%
X101800000Y-78400000D03*
X99912660Y-79687340D03*
%TO.N,Net-(R12-Pad2)*%
X252200000Y-47800000D03*
X208718838Y-53871126D03*
%TO.N,+5*%
X133600000Y-121800000D03*
X129612660Y-71187340D03*
X136680578Y-57874990D03*
X134600000Y-48400000D03*
X130200000Y-67525010D03*
X143462500Y-63400000D03*
X223587340Y-42587340D03*
X187200000Y-53600000D03*
X194200000Y-73600000D03*
X131600000Y-134000000D03*
%TO.N,Earth_Clean*%
X159600925Y-80820729D03*
X131624959Y-122600000D03*
X247000000Y-41600000D03*
X115400000Y-76200000D03*
X135404116Y-85800000D03*
X87200000Y-51400000D03*
X99500000Y-100500000D03*
X72000000Y-142200000D03*
X86200000Y-81000000D03*
X147420000Y-85020000D03*
X137400000Y-104200000D03*
X108200000Y-75800000D03*
X134194796Y-87050779D03*
X131149990Y-100600000D03*
X141000000Y-54000000D03*
X128000000Y-42800000D03*
X129800000Y-132000000D03*
X149605546Y-51205546D03*
X132950000Y-51550000D03*
X134400000Y-68200000D03*
X146000000Y-96000000D03*
X159800000Y-53400000D03*
%TO.N,SDA*%
X211800000Y-47200000D03*
X138800000Y-90000000D03*
X220000000Y-42400000D03*
X188205582Y-74205582D03*
%TO.N,SCL*%
X215700010Y-44021732D03*
X189331890Y-73360297D03*
X138800000Y-91000000D03*
X224400000Y-45600000D03*
%TO.N,+3.3*%
X225000000Y-43400000D03*
X192809313Y-74408664D03*
X254400000Y-41800000D03*
%TO.N,+3.3 High Current*%
X107200000Y-71800000D03*
X105000000Y-68800000D03*
X125600000Y-67000000D03*
X104400000Y-60250000D03*
X88800000Y-59600000D03*
X98400000Y-60200000D03*
X114137536Y-72337531D03*
%TO.N,5vRegulator*%
X140400000Y-63000000D03*
X144400000Y-49200000D03*
%TO.N,Net-(J4-Pad2)*%
X100000000Y-50600000D03*
X105600000Y-67200000D03*
%TO.N,Net-(J5-Pad2)*%
X105674990Y-62800000D03*
%TO.N,row0*%
X87600000Y-94400000D03*
X211600000Y-118400000D03*
X226800000Y-124200000D03*
X202400000Y-117200000D03*
%TO.N,Net-(J5-Pad3)*%
X106400000Y-63800000D03*
%TO.N,Net-(JP4-Pad2)*%
X236200000Y-77000000D03*
X200000000Y-76200000D03*
%TO.N,row4*%
X213686179Y-125274990D03*
X242000000Y-69400000D03*
X210800000Y-133600000D03*
X164400000Y-144200000D03*
X117587340Y-143412660D03*
X225125010Y-116400000D03*
X220800000Y-123400000D03*
X164400000Y-146800000D03*
X210800000Y-141074990D03*
%TO.N,row5*%
X219800000Y-55600000D03*
X125397997Y-127625021D03*
X220800000Y-72400000D03*
X115527796Y-106753116D03*
X200400000Y-95000000D03*
X120200000Y-121400000D03*
X209600000Y-80000000D03*
X221800000Y-86000000D03*
X220800000Y-76274990D03*
X122200000Y-125000000D03*
X197800000Y-94200000D03*
X234000000Y-88600000D03*
X221800000Y-51600000D03*
X207800000Y-75000000D03*
X237000000Y-88400000D03*
X122000000Y-116600000D03*
X210000000Y-92000000D03*
%TO.N,row6*%
X240200000Y-116000000D03*
X246600000Y-112400000D03*
X208200000Y-104800000D03*
X222000000Y-100400000D03*
X247200000Y-103200000D03*
X233800000Y-98600000D03*
X209800000Y-110800000D03*
X209600000Y-132600000D03*
X246200000Y-106800000D03*
X221800000Y-112000000D03*
X221000000Y-107800000D03*
X208000000Y-118800000D03*
X225200000Y-114200000D03*
X234000000Y-111600000D03*
%TO.N,row7*%
X220000000Y-135000000D03*
X127125010Y-129000000D03*
X226000000Y-135400000D03*
X101125010Y-132324835D03*
X223000000Y-135200000D03*
X208000000Y-138600000D03*
X208400000Y-132600000D03*
X220400000Y-138125010D03*
X125224978Y-129942949D03*
%TO.N,Net-(TP14-Pad1)*%
X113400000Y-56400000D03*
X113400000Y-54600000D03*
%TO.N,Net-(D1-Pad2)*%
X252600000Y-37200000D03*
%TO.N,Net-(TP15-Pad1)*%
X114600000Y-56400000D03*
X114600000Y-54600000D03*
%TO.N,BAT+*%
X132200000Y-91000000D03*
X126725010Y-93600000D03*
X112600000Y-87000000D03*
X193000000Y-84600000D03*
X99600000Y-68400000D03*
%TO.N,Net-(C3-Pad1)*%
X132850010Y-88800000D03*
X128400000Y-90000000D03*
%TO.N,piWatchDogPin*%
X188800000Y-65600000D03*
X133400000Y-98600000D03*
%TO.N,+1.8*%
X81200000Y-58600000D03*
X177200000Y-75200000D03*
X174400000Y-60200000D03*
%TO.N,Net-(D81-Pad2)*%
X249000000Y-38600000D03*
%TO.N,Net-(D81-Pad1)*%
X250600000Y-41600000D03*
X148800000Y-88400000D03*
X197200000Y-84600000D03*
X139630377Y-89274990D03*
%TO.N,Net-(R1-Pad2)*%
X135512660Y-97874990D03*
X138909085Y-94916235D03*
X129800000Y-97800000D03*
X87400000Y-84000000D03*
%TO.N,CCVref*%
X195949845Y-85624835D03*
X249000000Y-47400000D03*
%TO.N,!PowerGood*%
X138947414Y-88524990D03*
X140800000Y-88000000D03*
%TO.N,Net-(R4-Pad2)*%
X134600000Y-95000000D03*
X129600000Y-99649990D03*
%TO.N,Net-(R8-Pad2)*%
X135800000Y-95200000D03*
X134450010Y-99587340D03*
%TO.N,Net-(D82-Pad2)*%
X223000000Y-55400000D03*
X228000000Y-39200000D03*
X107400000Y-102800000D03*
X222000000Y-58800000D03*
%TO.N,Net-(C9-Pad1)*%
X145400000Y-45000000D03*
X136200000Y-50400000D03*
%TO.N,Net-(C10-Pad2)*%
X140073726Y-54499990D03*
X141600000Y-58600000D03*
X140200000Y-47200000D03*
X138800000Y-45600000D03*
X141600000Y-48400000D03*
%TO.N,batCell+*%
X97400000Y-57200000D03*
%TO.N,Net-(TP16-Pad1)*%
X122600000Y-64074990D03*
%TO.N,SetPowerOFF*%
X98400000Y-79800000D03*
%TO.N,Net-(U5-Pad5)*%
X96000000Y-104800000D03*
X62000000Y-111000000D03*
%TO.N,col1*%
X200600000Y-101400000D03*
X212000000Y-130600000D03*
X150578453Y-107181604D03*
X198512660Y-113474990D03*
X135187340Y-120987340D03*
X210200000Y-58600000D03*
X204541310Y-115775021D03*
X119600000Y-116000000D03*
X96600000Y-115800000D03*
X214000000Y-50600000D03*
%TO.N,+1*%
X110032191Y-72725010D03*
X113200000Y-72800000D03*
X98600000Y-61400000D03*
X96000000Y-63800000D03*
%TO.N,Net-(TP17-Pad1)*%
X121800000Y-64800000D03*
%TO.N,Net-(TP18-Pad1)*%
X122800000Y-65600000D03*
%TO.N,Net-(TP19-Pad1)*%
X122800000Y-66600000D03*
%TO.N,USB_HOST_N*%
X163800000Y-57949980D03*
X114600000Y-71050002D03*
%TO.N,USB_HOST_P*%
X115624943Y-71400000D03*
X166400000Y-58649990D03*
%TO.N,Net-(TP22-Pad1)*%
X121942937Y-63281277D03*
%TO.N,Net-(D2-Pad1)*%
X243600000Y-41600000D03*
%TO.N,Net-(D4-Pad1)*%
X240000000Y-41400000D03*
%TO.N,Net-(R18-Pad1)*%
X131000000Y-141000000D03*
X131000000Y-138200000D03*
%TO.N,Net-(R20-Pad1)*%
X207000000Y-137800000D03*
X223000000Y-138000000D03*
%TO.N,Net-(R15-Pad1)*%
X88571438Y-75607436D03*
X109000000Y-69800000D03*
%TO.N,Net-(J4-Pad3)*%
X106600000Y-67800000D03*
X100800000Y-49600000D03*
%TO.N,/USB and Keyboard connections/KEYBOARD_USB_DN*%
X133400000Y-119600000D03*
X102600000Y-59400000D03*
%TO.N,/USB and Keyboard connections/KEYBOARD_USB_DP*%
X131400000Y-119600000D03*
X103800000Y-59400000D03*
%TO.N,col3*%
X226499216Y-94274990D03*
X224224979Y-94274990D03*
X236800000Y-131000000D03*
X113200000Y-131200000D03*
X112400000Y-127725010D03*
X152143539Y-135518191D03*
X102600000Y-111600000D03*
X101400000Y-109600000D03*
%TO.N,col5*%
X116000000Y-114200000D03*
X144400000Y-126600000D03*
X162200000Y-115400000D03*
X149200000Y-116800000D03*
X73037423Y-100000000D03*
X213400000Y-75000000D03*
X140200000Y-130600000D03*
X137000000Y-134200000D03*
X119000000Y-114600000D03*
X212000000Y-140600000D03*
X212400000Y-104200000D03*
X212400000Y-120200000D03*
X130800000Y-109200000D03*
X207725010Y-114200000D03*
X142200000Y-128600000D03*
X211600000Y-128800000D03*
X213600000Y-78400000D03*
X138200000Y-114725010D03*
X212000000Y-133600000D03*
X117366633Y-116987759D03*
%TO.N,row1*%
X100400000Y-110600000D03*
X86600000Y-110600000D03*
X73487435Y-110630377D03*
%TO.N,col2*%
X226200000Y-128600000D03*
X138408764Y-125470496D03*
X95800000Y-126000000D03*
X95800000Y-123200000D03*
X200257446Y-59352589D03*
X212400000Y-102000000D03*
%TO.N,col4*%
X222149845Y-136775165D03*
X153812660Y-128787340D03*
X217800000Y-84400000D03*
X114200000Y-108800000D03*
X226400000Y-84400000D03*
X116000000Y-110600000D03*
X239000000Y-104000000D03*
X118800000Y-124600000D03*
X116906349Y-128189075D03*
%TO.N,col6*%
X82600000Y-119000000D03*
X108400000Y-127000000D03*
X74474990Y-110400000D03*
X74200000Y-99400000D03*
X141513348Y-127175010D03*
%TO.N,row3*%
X154600000Y-133200000D03*
X114000000Y-128400000D03*
X191000000Y-135000000D03*
X178000000Y-132600000D03*
X92200000Y-136000000D03*
X164800000Y-132200000D03*
X190948000Y-137074990D03*
X118800000Y-134400000D03*
X111400000Y-139000000D03*
X88200000Y-132000000D03*
X118200000Y-126400000D03*
X111400000Y-133400000D03*
%TO.N,row2*%
X145600000Y-119800000D03*
X124800000Y-125000000D03*
X136600000Y-119400000D03*
X119005850Y-125674990D03*
X181400000Y-130200000D03*
X92667809Y-122725010D03*
X173000000Y-123600000D03*
X80000000Y-120800000D03*
X181400000Y-128024979D03*
X146000000Y-122200000D03*
X150800000Y-124400000D03*
X181200000Y-137074990D03*
%TD*%
D20*
%TO.N,Earth_Clean*%
X139770000Y-85800000D02*
X141450000Y-85800000D01*
X141450000Y-85800000D02*
X143180000Y-85800000D01*
D21*
X141450000Y-84280000D02*
X141450000Y-85800000D01*
D20*
X143180000Y-85800000D02*
X144620000Y-85800000D01*
D21*
X144450000Y-85630000D02*
X144620000Y-85800000D01*
X144450000Y-84360000D02*
X144450000Y-85630000D01*
D20*
X144620000Y-85800000D02*
X146640000Y-85800000D01*
D21*
X142960000Y-84350000D02*
X142960000Y-85580000D01*
X142960000Y-85580000D02*
X143180000Y-85800000D01*
X139960000Y-84210000D02*
X139960000Y-85610000D01*
D20*
X139383002Y-85800000D02*
X139770000Y-85800000D01*
D21*
X139960000Y-85610000D02*
X139770000Y-85800000D01*
D20*
X159750000Y-85250000D02*
X147650000Y-85250000D01*
X160380925Y-81600729D02*
X160380925Y-84619075D01*
X159600925Y-80820729D02*
X160380925Y-81600729D01*
X137838001Y-87345001D02*
X139383002Y-85800000D01*
X136961999Y-87345001D02*
X137838001Y-87345001D01*
X135416998Y-85800000D02*
X136961999Y-87345001D01*
X135404116Y-85800000D02*
X135416998Y-85800000D01*
X160380925Y-84619075D02*
X159750000Y-85250000D01*
X147650000Y-85250000D02*
X147420000Y-85020000D01*
X146640000Y-85800000D02*
X147420000Y-85020000D01*
D22*
%TO.N,+5*%
X133600000Y-121800000D02*
X132200000Y-120400000D01*
X131349999Y-91408001D02*
X131349999Y-75512501D01*
D21*
X133600000Y-121800000D02*
X133600000Y-132000000D01*
D23*
X187200000Y-53600000D02*
X194600000Y-46200000D01*
D22*
X132250001Y-120349999D02*
X132250001Y-92308003D01*
X132250001Y-92308003D02*
X131349999Y-91408001D01*
X131349999Y-75512501D02*
X143462500Y-63400000D01*
X132200000Y-120400000D02*
X132250001Y-120349999D01*
D21*
X133600000Y-132000000D02*
X131600000Y-134000000D01*
D23*
X219999998Y-46200000D02*
X223600000Y-42599998D01*
X194600000Y-46200000D02*
X219999998Y-46200000D01*
D24*
%TO.N,Earth_Clean*%
X109391983Y-100500000D02*
X111481994Y-102590011D01*
D21*
X92800000Y-75800000D02*
X89900000Y-72900000D01*
X72000000Y-142200000D02*
X129600000Y-142200000D01*
D24*
X118399989Y-102590011D02*
X119750000Y-101240000D01*
D21*
X108200000Y-75800000D02*
X92800000Y-75800000D01*
X129600000Y-142200000D02*
X129600000Y-132600000D01*
X129600000Y-129600000D02*
X131624959Y-127575041D01*
D24*
X111481994Y-102590011D02*
X118399989Y-102590011D01*
D21*
X129600000Y-132600000D02*
X129600000Y-132200000D01*
X129600000Y-132200000D02*
X129800000Y-132000000D01*
D20*
X89900000Y-72900000D02*
X86200000Y-76600000D01*
D21*
X131624959Y-127575041D02*
X131624959Y-122600000D01*
D24*
X99500000Y-100500000D02*
X109391983Y-100500000D01*
D20*
X110500000Y-61500000D02*
X101300000Y-61500000D01*
X101300000Y-61500000D02*
X89900000Y-72900000D01*
X86200000Y-76600000D02*
X86200000Y-81000000D01*
D21*
X129600000Y-132600000D02*
X129600000Y-129600000D01*
%TO.N,Net-(JP4-Pad2)*%
X200800000Y-77000000D02*
X200000000Y-76200000D01*
X236200000Y-77000000D02*
X200800000Y-77000000D01*
D20*
%TO.N,BAT+*%
X197356998Y-76000000D02*
X197356998Y-80243002D01*
X198131999Y-75224999D02*
X197356998Y-76000000D01*
X220331999Y-75299989D02*
X219631988Y-76000000D01*
X219631988Y-76000000D02*
X201243002Y-76000000D01*
X200468001Y-75224999D02*
X198131999Y-75224999D01*
X221968012Y-76000000D02*
X221268001Y-75299989D01*
X243975994Y-77025011D02*
X242950983Y-76000000D01*
X197356998Y-80243002D02*
X193000000Y-84600000D01*
X245774989Y-77025011D02*
X243975994Y-77025011D01*
X247200000Y-75600000D02*
X245774989Y-77025011D01*
X242950983Y-76000000D02*
X221968012Y-76000000D01*
X201243002Y-76000000D02*
X200468001Y-75224999D01*
X221268001Y-75299989D02*
X220331999Y-75299989D01*
D21*
%TO.N,piWatchDogPin*%
X159964988Y-86024979D02*
X180389940Y-65600000D01*
X133400000Y-98600000D02*
X146189971Y-98600000D01*
X180389940Y-65600000D02*
X188800000Y-65600000D01*
X158764986Y-86024979D02*
X159964988Y-86024979D01*
X146189971Y-98600000D02*
X158764986Y-86024979D01*
%TO.N,+1.8*%
X81200000Y-58600000D02*
X140200000Y-58600000D01*
X141800000Y-60200000D02*
X174400000Y-60200000D01*
X140200000Y-58600000D02*
X141800000Y-60200000D01*
%TO.N,Net-(D81-Pad1)*%
X197200000Y-84600000D02*
X198755369Y-83044631D01*
X248175011Y-47375011D02*
X247600000Y-46800000D01*
X248600000Y-76485020D02*
X248600000Y-68400000D01*
X241555369Y-83044631D02*
X242040389Y-83044631D01*
X198755369Y-83044631D02*
X241555369Y-83044631D01*
X250200000Y-44200000D02*
X250600000Y-43800000D01*
X248175011Y-67975011D02*
X248175011Y-47375011D01*
X247600000Y-44600000D02*
X248000000Y-44200000D01*
X242040389Y-83044631D02*
X248600000Y-76485020D01*
X247600000Y-46800000D02*
X247600000Y-44600000D01*
X250600000Y-43800000D02*
X250600000Y-41600000D01*
X248600000Y-68400000D02*
X248175011Y-67975011D01*
X248000000Y-44200000D02*
X250200000Y-44200000D01*
%TO.N,CCVref*%
X249000000Y-68163588D02*
X249050011Y-68213600D01*
X197380770Y-87055760D02*
X195949845Y-85624835D01*
X249050011Y-68213600D02*
X249050011Y-76949989D01*
X238944240Y-87055760D02*
X197380770Y-87055760D01*
X249000000Y-47400000D02*
X249000000Y-68163588D01*
X249050011Y-76949989D02*
X238944240Y-87055760D01*
%TO.N,Net-(D82-Pad2)*%
X223000000Y-44200000D02*
X228000000Y-39200000D01*
X219874999Y-60925001D02*
X222000000Y-58800000D01*
X223000000Y-55400000D02*
X223000000Y-44200000D01*
X119389995Y-103265022D02*
X126000000Y-96655017D01*
X126000000Y-96655017D02*
X126000000Y-67673002D01*
X132748001Y-60925001D02*
X219874999Y-60925001D01*
X110737373Y-102800000D02*
X111202396Y-103265022D01*
X107400000Y-102800000D02*
X110737373Y-102800000D01*
X126000000Y-67673002D02*
X132748001Y-60925001D01*
X111202396Y-103265022D02*
X119389995Y-103265022D01*
D25*
%TO.N,batCell+*%
X225879999Y-56819999D02*
X244660000Y-75600000D01*
X112929599Y-57380001D02*
X135725165Y-57380001D01*
X136285167Y-56819999D02*
X225879999Y-56819999D01*
X112749598Y-57200000D02*
X112929599Y-57380001D01*
X69400000Y-57200000D02*
X97400000Y-57200000D01*
X97400000Y-57200000D02*
X112749598Y-57200000D01*
X135725165Y-57380001D02*
X136285167Y-56819999D01*
%TD*%
M02*
