M48
; DRILL file {KiCad (5.99.0-9972-g9020611657)} date Tue Jun  1 21:32:12 2021
; FORMAT={-:-/ absolute / inch / decimal}
; #@! TF.CreationDate,2021-06-01T21:32:12-05:00
; #@! TF.GenerationSoftware,Kicad,Pcbnew,(5.99.0-9972-g9020611657)
; #@! TF.FileFunction,Plated,3,4,Blind
FMAT,2
INCH
; #@! TA.AperFunction,ViaDrill
T1C0.0039
%
G90
G05
T1
; via hole
X5.9591Y-3.335
X6.0429Y-3.2756
X6.3059Y-2.6858
X6.3102Y-2.6654
X6.6872Y-3.864
X6.7559Y-3.8031
X7.2504Y-3.4075
X7.2728Y-3.4087
X7.3039Y-3.4087
X7.3283Y-3.4091
X7.3504Y-3.4094
X7.3683Y-4.2426
X7.3701Y-4.1024
X7.3713Y-3.4106
X7.3961Y-3.4134
X7.4835Y-2.9957
X7.5142Y-2.9945
X7.5945Y-2.7563
X7.6311Y-2.815
X7.6437Y-2.7067
X7.7177Y-2.7681
X7.7472Y-2.7528
X7.7613Y-2.815
T0
M30
