%TF.GenerationSoftware,KiCad,Pcbnew,(5.99.0-9972-g9020611657)*%
%TF.CreationDate,2021-06-01T21:32:07-05:00*%
%TF.ProjectId,ti92revive,74693932-7265-4766-9976-652e6b696361,rev?*%
%TF.SameCoordinates,Original*%
%TF.FileFunction,Paste,Top*%
%TF.FilePolarity,Positive*%
%FSLAX46Y46*%
G04 Gerber Fmt 4.6, Leading zero omitted, Abs format (unit mm)*
G04 Created by KiCad (PCBNEW (5.99.0-9972-g9020611657)) date 2021-06-01 21:32:07*
%MOMM*%
%LPD*%
G01*
G04 APERTURE LIST*
G04 Aperture macros list*
%AMRoundRect*
0 Rectangle with rounded corners*
0 $1 Rounding radius*
0 $2 $3 $4 $5 $6 $7 $8 $9 X,Y pos of 4 corners*
0 Add a 4 corners polygon primitive as box body*
4,1,4,$2,$3,$4,$5,$6,$7,$8,$9,$2,$3,0*
0 Add four circle primitives for the rounded corners*
1,1,$1+$1,$2,$3*
1,1,$1+$1,$4,$5*
1,1,$1+$1,$6,$7*
1,1,$1+$1,$8,$9*
0 Add four rect primitives between the rounded corners*
20,1,$1+$1,$2,$3,$4,$5,0*
20,1,$1+$1,$4,$5,$6,$7,0*
20,1,$1+$1,$6,$7,$8,$9,0*
20,1,$1+$1,$8,$9,$2,$3,0*%
G04 Aperture macros list end*
%ADD10R,0.300000X1.600000*%
%ADD11R,2.240000X3.120000*%
%ADD12R,1.163750X0.608124*%
%ADD13R,1.133124X0.555624*%
%ADD14RoundRect,0.250001X0.624999X-0.462499X0.624999X0.462499X-0.624999X0.462499X-0.624999X-0.462499X0*%
G04 APERTURE END LIST*
D10*
%TO.C,J6*%
X135453000Y-82980000D03*
X135953000Y-82980000D03*
X136453000Y-82980000D03*
X136953000Y-82980000D03*
X137453000Y-82980000D03*
X137953000Y-82980000D03*
X138453000Y-82980000D03*
X138953000Y-82980000D03*
X139453000Y-82980000D03*
X139953000Y-82980000D03*
X140453000Y-82980000D03*
X140953000Y-82980000D03*
X141453000Y-82980000D03*
X141953000Y-82980000D03*
X142453000Y-82980000D03*
X142953000Y-82980000D03*
X143453000Y-82980000D03*
X143953000Y-82980000D03*
X144453000Y-82980000D03*
X144953000Y-82980000D03*
D11*
X133806000Y-81000000D03*
X146600000Y-81000000D03*
%TD*%
D12*
%TO.C,kbLBrack1*%
X200924875Y-100511062D03*
D13*
X208093000Y-100457000D03*
%TD*%
D12*
%TO.C,kbMode1*%
X200670875Y-59490062D03*
D13*
X207839000Y-59436000D03*
%TD*%
D12*
%TO.C,kbAPPS2*%
X213624875Y-80064062D03*
D13*
X220793000Y-80010000D03*
%TD*%
D12*
%TO.C,kbQ1*%
X64399875Y-110671062D03*
D13*
X71568000Y-110617000D03*
%TD*%
D12*
%TO.C,kbN7*%
X213751875Y-110544062D03*
D13*
X220920000Y-110490000D03*
%TD*%
D12*
%TO.C,kbALT1*%
X77734875Y-141151062D03*
D13*
X84903000Y-141097000D03*
%TD*%
D12*
%TO.C,kbA1*%
X71130875Y-120704062D03*
D13*
X78299000Y-120650000D03*
%TD*%
D12*
%TO.C,kbK1*%
X163840875Y-120704062D03*
D13*
X171009000Y-120650000D03*
%TD*%
D12*
%TO.C,kbV1*%
X117358875Y-130864062D03*
D13*
X124527000Y-130810000D03*
%TD*%
D12*
%TO.C,kbDot1*%
X213751875Y-141024062D03*
D13*
X220920000Y-140970000D03*
%TD*%
D12*
%TO.C,kbF1*%
X110754875Y-120704062D03*
D13*
X117923000Y-120650000D03*
%TD*%
D12*
%TO.C,kf5*%
X77607875Y-62538062D03*
D13*
X84776000Y-62484000D03*
%TD*%
D12*
%TO.C,kbLn1*%
X200797875Y-80064062D03*
D13*
X207966000Y-80010000D03*
%TD*%
D12*
%TO.C,kbTAN1*%
X226451875Y-90224062D03*
D13*
X233620000Y-90170000D03*
%TD*%
D12*
%TO.C,kbEnterNum1*%
X226705875Y-80064062D03*
D13*
X233874000Y-80010000D03*
%TD*%
D12*
%TO.C,kbALTG1*%
X157363875Y-141151062D03*
D13*
X164532000Y-141097000D03*
%TD*%
D12*
%TO.C,kbL1*%
X177048875Y-120704062D03*
D13*
X184217000Y-120650000D03*
%TD*%
D12*
%TO.C,kbDot2*%
X170571875Y-130864062D03*
D13*
X177740000Y-130810000D03*
%TD*%
D12*
%TO.C,kbS1*%
X84465875Y-120704062D03*
D13*
X91634000Y-120650000D03*
%TD*%
D14*
%TO.C,D2*%
X243600000Y-40087500D03*
X243600000Y-37112500D03*
%TD*%
D12*
%TO.C,kbY1*%
X130693875Y-110671062D03*
D13*
X137862000Y-110617000D03*
%TD*%
D12*
%TO.C,kf8*%
X77734875Y-94415062D03*
D13*
X84903000Y-94361000D03*
%TD*%
D12*
%TO.C,kbN2*%
X213751875Y-130737062D03*
D13*
X220920000Y-130683000D03*
%TD*%
D12*
%TO.C,kbP1*%
X183652875Y-110671062D03*
D13*
X190821000Y-110617000D03*
%TD*%
D12*
%TO.C,kf3*%
X64526875Y-83874062D03*
D13*
X71695000Y-83820000D03*
%TD*%
D12*
%TO.C,kbClear1*%
X200670875Y-70031062D03*
D13*
X207839000Y-69977000D03*
%TD*%
D14*
%TO.C,D82*%
X247200000Y-40087500D03*
X247200000Y-37112500D03*
%TD*%
D12*
%TO.C,kbJ1*%
X150632875Y-120704062D03*
D13*
X157801000Y-120650000D03*
%TD*%
D12*
%TO.C,kbSpace1*%
X120787875Y-141151062D03*
D13*
X127956000Y-141097000D03*
%TD*%
D12*
%TO.C,kN666*%
X226451875Y-120831062D03*
D13*
X233620000Y-120777000D03*
%TD*%
D12*
%TO.C,kbShiftL1*%
X64526875Y-130864062D03*
D13*
X71695000Y-130810000D03*
%TD*%
D12*
%TO.C,kbSpace2*%
X140726875Y-141151062D03*
D13*
X147895000Y-141097000D03*
%TD*%
D12*
%TO.C,arrwDWN1*%
X231912875Y-69523062D03*
D13*
X239081000Y-69469000D03*
%TD*%
D12*
%TO.C,kbMult1*%
X239151875Y-110544062D03*
D13*
X246320000Y-110490000D03*
%TD*%
D12*
%TO.C,klock1*%
X77480875Y-49838062D03*
D13*
X84649000Y-49784000D03*
%TD*%
D12*
%TO.C,kbT1*%
X117358875Y-110671062D03*
D13*
X124527000Y-110617000D03*
%TD*%
D12*
%TO.C,kbN3*%
X226451875Y-130737062D03*
D13*
X233620000Y-130683000D03*
%TD*%
D12*
%TO.C,kbM1*%
X157363875Y-130864062D03*
D13*
X164532000Y-130810000D03*
%TD*%
D12*
%TO.C,kbN8*%
X226451875Y-110544062D03*
D13*
X233620000Y-110490000D03*
%TD*%
D12*
%TO.C,kf2*%
X64399875Y-73333062D03*
D13*
X71568000Y-73279000D03*
%TD*%
D12*
%TO.C,kbSIN1*%
X200797875Y-90224062D03*
D13*
X207966000Y-90170000D03*
%TD*%
D12*
%TO.C,kbESC1*%
X214894875Y-48441062D03*
D13*
X222063000Y-48387000D03*
%TD*%
D12*
%TO.C,kb2nd1*%
X200670875Y-48568062D03*
D13*
X207839000Y-48514000D03*
%TD*%
D12*
%TO.C,kbN5*%
X200797875Y-110544062D03*
D13*
X207966000Y-110490000D03*
%TD*%
D12*
%TO.C,kbH1*%
X137297875Y-120704062D03*
D13*
X144466000Y-120650000D03*
%TD*%
D12*
%TO.C,kbO1*%
X170317875Y-110671062D03*
D13*
X177486000Y-110617000D03*
%TD*%
D12*
%TO.C,kbNeg1*%
X226578875Y-141024062D03*
D13*
X233747000Y-140970000D03*
%TD*%
D12*
%TO.C,kf6*%
X77734875Y-73333062D03*
D13*
X84903000Y-73279000D03*
%TD*%
D12*
%TO.C,kbN9*%
X200924875Y-120831062D03*
D13*
X208093000Y-120777000D03*
%TD*%
D12*
%TO.C,kbG1*%
X124089875Y-120704062D03*
D13*
X131258000Y-120650000D03*
%TD*%
D14*
%TO.C,D4*%
X239930000Y-40047500D03*
X239930000Y-37072500D03*
%TD*%
D12*
%TO.C,arrwRight1*%
X241056875Y-60379062D03*
D13*
X248225000Y-60325000D03*
%TD*%
D12*
%TO.C,kf7*%
X77607875Y-83747062D03*
D13*
X84776000Y-83693000D03*
%TD*%
D12*
%TO.C,kbPowerButton1*%
X64526875Y-141151062D03*
D13*
X71695000Y-141097000D03*
%TD*%
D12*
%TO.C,kbN1*%
X200924875Y-130864062D03*
D13*
X208093000Y-130810000D03*
%TD*%
D12*
%TO.C,kbAPPS1*%
X213497875Y-69904062D03*
D13*
X220666000Y-69850000D03*
%TD*%
D12*
%TO.C,kf4*%
X64526875Y-94415062D03*
D13*
X71695000Y-94361000D03*
%TD*%
D14*
%TO.C,D1*%
X254400000Y-40087500D03*
X254400000Y-37112500D03*
%TD*%
D12*
%TO.C,kbBKSP1*%
X170444875Y-141024062D03*
D13*
X177613000Y-140970000D03*
%TD*%
D12*
%TO.C,kbMinus1*%
X239278875Y-120704062D03*
D13*
X246447000Y-120650000D03*
%TD*%
D12*
%TO.C,kbX1*%
X91069875Y-130864062D03*
D13*
X98238000Y-130810000D03*
%TD*%
D12*
%TO.C,kbD1*%
X97673875Y-120704062D03*
D13*
X104842000Y-120650000D03*
%TD*%
D12*
%TO.C,kbI1*%
X157236875Y-110671062D03*
D13*
X164405000Y-110617000D03*
%TD*%
D12*
%TO.C,kbB1*%
X130693875Y-130864062D03*
D13*
X137862000Y-130810000D03*
%TD*%
D12*
%TO.C,arrwUP1*%
X231912875Y-51489062D03*
D13*
X239081000Y-51435000D03*
%TD*%
D12*
%TO.C,kf1*%
X64399875Y-62665062D03*
D13*
X71568000Y-62611000D03*
%TD*%
D12*
%TO.C,kbW1*%
X77734875Y-110671062D03*
D13*
X84903000Y-110617000D03*
%TD*%
D12*
%TO.C,kbTAB1*%
X104150875Y-141024062D03*
D13*
X111319000Y-140970000D03*
%TD*%
D12*
%TO.C,arrwLeft1*%
X222895875Y-60379062D03*
D13*
X230064000Y-60325000D03*
%TD*%
D12*
%TO.C,kbEnterNum66*%
X238516875Y-80064062D03*
D13*
X245685000Y-80010000D03*
%TD*%
D12*
%TO.C,kbENT1*%
X239278875Y-142040062D03*
D13*
X246447000Y-141986000D03*
%TD*%
D12*
%TO.C,kbN4*%
X200924875Y-141024062D03*
D13*
X208093000Y-140970000D03*
%TD*%
D14*
%TO.C,D81*%
X250800000Y-40087500D03*
X250800000Y-37112500D03*
%TD*%
D12*
%TO.C,kbR1*%
X104150875Y-110671062D03*
D13*
X111319000Y-110617000D03*
%TD*%
D12*
%TO.C,kbComa1*%
X226578875Y-100511062D03*
D13*
X233747000Y-100457000D03*
%TD*%
D12*
%TO.C,kbAnex2*%
X91069875Y-141024062D03*
D13*
X98238000Y-140970000D03*
%TD*%
D12*
%TO.C,kbESC55*%
X211973875Y-59109062D03*
D13*
X219142000Y-59055000D03*
%TD*%
D12*
%TO.C,kbCOS1*%
X213624875Y-90224062D03*
D13*
X220793000Y-90170000D03*
%TD*%
D12*
%TO.C,kbC1*%
X104150875Y-130864062D03*
D13*
X111319000Y-130810000D03*
%TD*%
D12*
%TO.C,kbU1*%
X143901875Y-110671062D03*
D13*
X151070000Y-110617000D03*
%TD*%
D12*
%TO.C,kbZ1*%
X77607875Y-130864062D03*
D13*
X84776000Y-130810000D03*
%TD*%
D12*
%TO.C,kbRET32*%
X183779875Y-141024062D03*
D13*
X190948000Y-140970000D03*
%TD*%
D12*
%TO.C,kbRBrack1*%
X213751875Y-100511062D03*
D13*
X220920000Y-100457000D03*
%TD*%
D12*
%TO.C,kbPI1*%
X239278875Y-90097062D03*
D13*
X246447000Y-90043000D03*
%TD*%
D12*
%TO.C,kbN521*%
X213624875Y-120831062D03*
D13*
X220793000Y-120777000D03*
%TD*%
D12*
%TO.C,kbRET1*%
X183779875Y-130864062D03*
D13*
X190948000Y-130810000D03*
%TD*%
D12*
%TO.C,kwE1*%
X91069875Y-110671062D03*
D13*
X98238000Y-110617000D03*
%TD*%
D12*
%TO.C,kbDiv1*%
X239151875Y-100511062D03*
D13*
X246320000Y-100457000D03*
%TD*%
D12*
%TO.C,kbN6*%
X143901875Y-130864062D03*
D13*
X151070000Y-130810000D03*
%TD*%
D12*
%TO.C,kbPLUS1*%
X239151875Y-130737062D03*
D13*
X246320000Y-130683000D03*
%TD*%
M02*
