%TF.GenerationSoftware,KiCad,Pcbnew,(5.99.0-9972-g9020611657)*%
%TF.CreationDate,2021-05-31T19:12:41-05:00*%
%TF.ProjectId,ti92revive,74693932-7265-4766-9976-652e6b696361,rev?*%
%TF.SameCoordinates,Original*%
%TF.FileFunction,AssemblyDrawing,Top*%
%FSLAX46Y46*%
G04 Gerber Fmt 4.6, Leading zero omitted, Abs format (unit mm)*
G04 Created by KiCad (PCBNEW (5.99.0-9972-g9020611657)) date 2021-05-31 19:12:41*
%MOMM*%
%LPD*%
G01*
G04 APERTURE LIST*
%ADD10C,0.150000*%
%ADD11C,0.015000*%
%ADD12C,0.120000*%
%ADD13C,0.075000*%
%ADD14C,0.200000*%
%ADD15C,0.100000*%
G04 APERTURE END LIST*
D10*
%TO.C,TP22*%
X124646666Y-64202380D02*
X125218095Y-64202380D01*
X124932380Y-65202380D02*
X124932380Y-64202380D01*
X125932380Y-65154761D02*
X125837142Y-65202380D01*
X125646666Y-65202380D01*
X125551428Y-65154761D01*
X125503809Y-65059523D01*
X125503809Y-64678571D01*
X125551428Y-64583333D01*
X125646666Y-64535714D01*
X125837142Y-64535714D01*
X125932380Y-64583333D01*
X125980000Y-64678571D01*
X125980000Y-64773809D01*
X125503809Y-64869047D01*
X126360952Y-65154761D02*
X126456190Y-65202380D01*
X126646666Y-65202380D01*
X126741904Y-65154761D01*
X126789523Y-65059523D01*
X126789523Y-65011904D01*
X126741904Y-64916666D01*
X126646666Y-64869047D01*
X126503809Y-64869047D01*
X126408571Y-64821428D01*
X126360952Y-64726190D01*
X126360952Y-64678571D01*
X126408571Y-64583333D01*
X126503809Y-64535714D01*
X126646666Y-64535714D01*
X126741904Y-64583333D01*
X127075238Y-64535714D02*
X127456190Y-64535714D01*
X127218095Y-64202380D02*
X127218095Y-65059523D01*
X127265714Y-65154761D01*
X127360952Y-65202380D01*
X127456190Y-65202380D01*
X127789523Y-65202380D02*
X127789523Y-64202380D01*
X128170476Y-64202380D01*
X128265714Y-64250000D01*
X128313333Y-64297619D01*
X128360952Y-64392857D01*
X128360952Y-64535714D01*
X128313333Y-64630952D01*
X128265714Y-64678571D01*
X128170476Y-64726190D01*
X127789523Y-64726190D01*
X128932380Y-65202380D02*
X128837142Y-65154761D01*
X128789523Y-65107142D01*
X128741904Y-65011904D01*
X128741904Y-64726190D01*
X128789523Y-64630952D01*
X128837142Y-64583333D01*
X128932380Y-64535714D01*
X129075238Y-64535714D01*
X129170476Y-64583333D01*
X129218095Y-64630952D01*
X129265714Y-64726190D01*
X129265714Y-65011904D01*
X129218095Y-65107142D01*
X129170476Y-65154761D01*
X129075238Y-65202380D01*
X128932380Y-65202380D01*
X129694285Y-65202380D02*
X129694285Y-64535714D01*
X129694285Y-64202380D02*
X129646666Y-64250000D01*
X129694285Y-64297619D01*
X129741904Y-64250000D01*
X129694285Y-64202380D01*
X129694285Y-64297619D01*
X130170476Y-64535714D02*
X130170476Y-65202380D01*
X130170476Y-64630952D02*
X130218095Y-64583333D01*
X130313333Y-64535714D01*
X130456190Y-64535714D01*
X130551428Y-64583333D01*
X130599047Y-64678571D01*
X130599047Y-65202380D01*
X130932380Y-64535714D02*
X131313333Y-64535714D01*
X131075238Y-64202380D02*
X131075238Y-65059523D01*
X131122857Y-65154761D01*
X131218095Y-65202380D01*
X131313333Y-65202380D01*
X126241904Y-61202380D02*
X126813333Y-61202380D01*
X126527619Y-62202380D02*
X126527619Y-61202380D01*
X127146666Y-62202380D02*
X127146666Y-61202380D01*
X127527619Y-61202380D01*
X127622857Y-61250000D01*
X127670476Y-61297619D01*
X127718095Y-61392857D01*
X127718095Y-61535714D01*
X127670476Y-61630952D01*
X127622857Y-61678571D01*
X127527619Y-61726190D01*
X127146666Y-61726190D01*
X128099047Y-61297619D02*
X128146666Y-61250000D01*
X128241904Y-61202380D01*
X128480000Y-61202380D01*
X128575238Y-61250000D01*
X128622857Y-61297619D01*
X128670476Y-61392857D01*
X128670476Y-61488095D01*
X128622857Y-61630952D01*
X128051428Y-62202380D01*
X128670476Y-62202380D01*
X129051428Y-61297619D02*
X129099047Y-61250000D01*
X129194285Y-61202380D01*
X129432380Y-61202380D01*
X129527619Y-61250000D01*
X129575238Y-61297619D01*
X129622857Y-61392857D01*
X129622857Y-61488095D01*
X129575238Y-61630952D01*
X129003809Y-62202380D01*
X129622857Y-62202380D01*
%TO.C,TP19*%
X119456666Y-70282380D02*
X120028095Y-70282380D01*
X119742380Y-71282380D02*
X119742380Y-70282380D01*
X120742380Y-71234761D02*
X120647142Y-71282380D01*
X120456666Y-71282380D01*
X120361428Y-71234761D01*
X120313809Y-71139523D01*
X120313809Y-70758571D01*
X120361428Y-70663333D01*
X120456666Y-70615714D01*
X120647142Y-70615714D01*
X120742380Y-70663333D01*
X120790000Y-70758571D01*
X120790000Y-70853809D01*
X120313809Y-70949047D01*
X121170952Y-71234761D02*
X121266190Y-71282380D01*
X121456666Y-71282380D01*
X121551904Y-71234761D01*
X121599523Y-71139523D01*
X121599523Y-71091904D01*
X121551904Y-70996666D01*
X121456666Y-70949047D01*
X121313809Y-70949047D01*
X121218571Y-70901428D01*
X121170952Y-70806190D01*
X121170952Y-70758571D01*
X121218571Y-70663333D01*
X121313809Y-70615714D01*
X121456666Y-70615714D01*
X121551904Y-70663333D01*
X121885238Y-70615714D02*
X122266190Y-70615714D01*
X122028095Y-70282380D02*
X122028095Y-71139523D01*
X122075714Y-71234761D01*
X122170952Y-71282380D01*
X122266190Y-71282380D01*
X122599523Y-71282380D02*
X122599523Y-70282380D01*
X122980476Y-70282380D01*
X123075714Y-70330000D01*
X123123333Y-70377619D01*
X123170952Y-70472857D01*
X123170952Y-70615714D01*
X123123333Y-70710952D01*
X123075714Y-70758571D01*
X122980476Y-70806190D01*
X122599523Y-70806190D01*
X123742380Y-71282380D02*
X123647142Y-71234761D01*
X123599523Y-71187142D01*
X123551904Y-71091904D01*
X123551904Y-70806190D01*
X123599523Y-70710952D01*
X123647142Y-70663333D01*
X123742380Y-70615714D01*
X123885238Y-70615714D01*
X123980476Y-70663333D01*
X124028095Y-70710952D01*
X124075714Y-70806190D01*
X124075714Y-71091904D01*
X124028095Y-71187142D01*
X123980476Y-71234761D01*
X123885238Y-71282380D01*
X123742380Y-71282380D01*
X124504285Y-71282380D02*
X124504285Y-70615714D01*
X124504285Y-70282380D02*
X124456666Y-70330000D01*
X124504285Y-70377619D01*
X124551904Y-70330000D01*
X124504285Y-70282380D01*
X124504285Y-70377619D01*
X124980476Y-70615714D02*
X124980476Y-71282380D01*
X124980476Y-70710952D02*
X125028095Y-70663333D01*
X125123333Y-70615714D01*
X125266190Y-70615714D01*
X125361428Y-70663333D01*
X125409047Y-70758571D01*
X125409047Y-71282380D01*
X125742380Y-70615714D02*
X126123333Y-70615714D01*
X125885238Y-70282380D02*
X125885238Y-71139523D01*
X125932857Y-71234761D01*
X126028095Y-71282380D01*
X126123333Y-71282380D01*
X121051904Y-67282380D02*
X121623333Y-67282380D01*
X121337619Y-68282380D02*
X121337619Y-67282380D01*
X121956666Y-68282380D02*
X121956666Y-67282380D01*
X122337619Y-67282380D01*
X122432857Y-67330000D01*
X122480476Y-67377619D01*
X122528095Y-67472857D01*
X122528095Y-67615714D01*
X122480476Y-67710952D01*
X122432857Y-67758571D01*
X122337619Y-67806190D01*
X121956666Y-67806190D01*
X123480476Y-68282380D02*
X122909047Y-68282380D01*
X123194761Y-68282380D02*
X123194761Y-67282380D01*
X123099523Y-67425238D01*
X123004285Y-67520476D01*
X122909047Y-67568095D01*
X123956666Y-68282380D02*
X124147142Y-68282380D01*
X124242380Y-68234761D01*
X124290000Y-68187142D01*
X124385238Y-68044285D01*
X124432857Y-67853809D01*
X124432857Y-67472857D01*
X124385238Y-67377619D01*
X124337619Y-67330000D01*
X124242380Y-67282380D01*
X124051904Y-67282380D01*
X123956666Y-67330000D01*
X123909047Y-67377619D01*
X123861428Y-67472857D01*
X123861428Y-67710952D01*
X123909047Y-67806190D01*
X123956666Y-67853809D01*
X124051904Y-67901428D01*
X124242380Y-67901428D01*
X124337619Y-67853809D01*
X124385238Y-67806190D01*
X124432857Y-67710952D01*
%TO.C,TP18*%
X123126666Y-66842380D02*
X123698095Y-66842380D01*
X123412380Y-67842380D02*
X123412380Y-66842380D01*
X124412380Y-67794761D02*
X124317142Y-67842380D01*
X124126666Y-67842380D01*
X124031428Y-67794761D01*
X123983809Y-67699523D01*
X123983809Y-67318571D01*
X124031428Y-67223333D01*
X124126666Y-67175714D01*
X124317142Y-67175714D01*
X124412380Y-67223333D01*
X124460000Y-67318571D01*
X124460000Y-67413809D01*
X123983809Y-67509047D01*
X124840952Y-67794761D02*
X124936190Y-67842380D01*
X125126666Y-67842380D01*
X125221904Y-67794761D01*
X125269523Y-67699523D01*
X125269523Y-67651904D01*
X125221904Y-67556666D01*
X125126666Y-67509047D01*
X124983809Y-67509047D01*
X124888571Y-67461428D01*
X124840952Y-67366190D01*
X124840952Y-67318571D01*
X124888571Y-67223333D01*
X124983809Y-67175714D01*
X125126666Y-67175714D01*
X125221904Y-67223333D01*
X125555238Y-67175714D02*
X125936190Y-67175714D01*
X125698095Y-66842380D02*
X125698095Y-67699523D01*
X125745714Y-67794761D01*
X125840952Y-67842380D01*
X125936190Y-67842380D01*
X126269523Y-67842380D02*
X126269523Y-66842380D01*
X126650476Y-66842380D01*
X126745714Y-66890000D01*
X126793333Y-66937619D01*
X126840952Y-67032857D01*
X126840952Y-67175714D01*
X126793333Y-67270952D01*
X126745714Y-67318571D01*
X126650476Y-67366190D01*
X126269523Y-67366190D01*
X127412380Y-67842380D02*
X127317142Y-67794761D01*
X127269523Y-67747142D01*
X127221904Y-67651904D01*
X127221904Y-67366190D01*
X127269523Y-67270952D01*
X127317142Y-67223333D01*
X127412380Y-67175714D01*
X127555238Y-67175714D01*
X127650476Y-67223333D01*
X127698095Y-67270952D01*
X127745714Y-67366190D01*
X127745714Y-67651904D01*
X127698095Y-67747142D01*
X127650476Y-67794761D01*
X127555238Y-67842380D01*
X127412380Y-67842380D01*
X128174285Y-67842380D02*
X128174285Y-67175714D01*
X128174285Y-66842380D02*
X128126666Y-66890000D01*
X128174285Y-66937619D01*
X128221904Y-66890000D01*
X128174285Y-66842380D01*
X128174285Y-66937619D01*
X128650476Y-67175714D02*
X128650476Y-67842380D01*
X128650476Y-67270952D02*
X128698095Y-67223333D01*
X128793333Y-67175714D01*
X128936190Y-67175714D01*
X129031428Y-67223333D01*
X129079047Y-67318571D01*
X129079047Y-67842380D01*
X129412380Y-67175714D02*
X129793333Y-67175714D01*
X129555238Y-66842380D02*
X129555238Y-67699523D01*
X129602857Y-67794761D01*
X129698095Y-67842380D01*
X129793333Y-67842380D01*
X124721904Y-63842380D02*
X125293333Y-63842380D01*
X125007619Y-64842380D02*
X125007619Y-63842380D01*
X125626666Y-64842380D02*
X125626666Y-63842380D01*
X126007619Y-63842380D01*
X126102857Y-63890000D01*
X126150476Y-63937619D01*
X126198095Y-64032857D01*
X126198095Y-64175714D01*
X126150476Y-64270952D01*
X126102857Y-64318571D01*
X126007619Y-64366190D01*
X125626666Y-64366190D01*
X127150476Y-64842380D02*
X126579047Y-64842380D01*
X126864761Y-64842380D02*
X126864761Y-63842380D01*
X126769523Y-63985238D01*
X126674285Y-64080476D01*
X126579047Y-64128095D01*
X127721904Y-64270952D02*
X127626666Y-64223333D01*
X127579047Y-64175714D01*
X127531428Y-64080476D01*
X127531428Y-64032857D01*
X127579047Y-63937619D01*
X127626666Y-63890000D01*
X127721904Y-63842380D01*
X127912380Y-63842380D01*
X128007619Y-63890000D01*
X128055238Y-63937619D01*
X128102857Y-64032857D01*
X128102857Y-64080476D01*
X128055238Y-64175714D01*
X128007619Y-64223333D01*
X127912380Y-64270952D01*
X127721904Y-64270952D01*
X127626666Y-64318571D01*
X127579047Y-64366190D01*
X127531428Y-64461428D01*
X127531428Y-64651904D01*
X127579047Y-64747142D01*
X127626666Y-64794761D01*
X127721904Y-64842380D01*
X127912380Y-64842380D01*
X128007619Y-64794761D01*
X128055238Y-64747142D01*
X128102857Y-64651904D01*
X128102857Y-64461428D01*
X128055238Y-64366190D01*
X128007619Y-64318571D01*
X127912380Y-64270952D01*
%TO.C,TP17*%
X124716666Y-65802380D02*
X125288095Y-65802380D01*
X125002380Y-66802380D02*
X125002380Y-65802380D01*
X126002380Y-66754761D02*
X125907142Y-66802380D01*
X125716666Y-66802380D01*
X125621428Y-66754761D01*
X125573809Y-66659523D01*
X125573809Y-66278571D01*
X125621428Y-66183333D01*
X125716666Y-66135714D01*
X125907142Y-66135714D01*
X126002380Y-66183333D01*
X126050000Y-66278571D01*
X126050000Y-66373809D01*
X125573809Y-66469047D01*
X126430952Y-66754761D02*
X126526190Y-66802380D01*
X126716666Y-66802380D01*
X126811904Y-66754761D01*
X126859523Y-66659523D01*
X126859523Y-66611904D01*
X126811904Y-66516666D01*
X126716666Y-66469047D01*
X126573809Y-66469047D01*
X126478571Y-66421428D01*
X126430952Y-66326190D01*
X126430952Y-66278571D01*
X126478571Y-66183333D01*
X126573809Y-66135714D01*
X126716666Y-66135714D01*
X126811904Y-66183333D01*
X127145238Y-66135714D02*
X127526190Y-66135714D01*
X127288095Y-65802380D02*
X127288095Y-66659523D01*
X127335714Y-66754761D01*
X127430952Y-66802380D01*
X127526190Y-66802380D01*
X127859523Y-66802380D02*
X127859523Y-65802380D01*
X128240476Y-65802380D01*
X128335714Y-65850000D01*
X128383333Y-65897619D01*
X128430952Y-65992857D01*
X128430952Y-66135714D01*
X128383333Y-66230952D01*
X128335714Y-66278571D01*
X128240476Y-66326190D01*
X127859523Y-66326190D01*
X129002380Y-66802380D02*
X128907142Y-66754761D01*
X128859523Y-66707142D01*
X128811904Y-66611904D01*
X128811904Y-66326190D01*
X128859523Y-66230952D01*
X128907142Y-66183333D01*
X129002380Y-66135714D01*
X129145238Y-66135714D01*
X129240476Y-66183333D01*
X129288095Y-66230952D01*
X129335714Y-66326190D01*
X129335714Y-66611904D01*
X129288095Y-66707142D01*
X129240476Y-66754761D01*
X129145238Y-66802380D01*
X129002380Y-66802380D01*
X129764285Y-66802380D02*
X129764285Y-66135714D01*
X129764285Y-65802380D02*
X129716666Y-65850000D01*
X129764285Y-65897619D01*
X129811904Y-65850000D01*
X129764285Y-65802380D01*
X129764285Y-65897619D01*
X130240476Y-66135714D02*
X130240476Y-66802380D01*
X130240476Y-66230952D02*
X130288095Y-66183333D01*
X130383333Y-66135714D01*
X130526190Y-66135714D01*
X130621428Y-66183333D01*
X130669047Y-66278571D01*
X130669047Y-66802380D01*
X131002380Y-66135714D02*
X131383333Y-66135714D01*
X131145238Y-65802380D02*
X131145238Y-66659523D01*
X131192857Y-66754761D01*
X131288095Y-66802380D01*
X131383333Y-66802380D01*
X126311904Y-62802380D02*
X126883333Y-62802380D01*
X126597619Y-63802380D02*
X126597619Y-62802380D01*
X127216666Y-63802380D02*
X127216666Y-62802380D01*
X127597619Y-62802380D01*
X127692857Y-62850000D01*
X127740476Y-62897619D01*
X127788095Y-62992857D01*
X127788095Y-63135714D01*
X127740476Y-63230952D01*
X127692857Y-63278571D01*
X127597619Y-63326190D01*
X127216666Y-63326190D01*
X128740476Y-63802380D02*
X128169047Y-63802380D01*
X128454761Y-63802380D02*
X128454761Y-62802380D01*
X128359523Y-62945238D01*
X128264285Y-63040476D01*
X128169047Y-63088095D01*
X129073809Y-62802380D02*
X129740476Y-62802380D01*
X129311904Y-63802380D01*
%TO.C,TP16*%
X123136666Y-65132380D02*
X123708095Y-65132380D01*
X123422380Y-66132380D02*
X123422380Y-65132380D01*
X124422380Y-66084761D02*
X124327142Y-66132380D01*
X124136666Y-66132380D01*
X124041428Y-66084761D01*
X123993809Y-65989523D01*
X123993809Y-65608571D01*
X124041428Y-65513333D01*
X124136666Y-65465714D01*
X124327142Y-65465714D01*
X124422380Y-65513333D01*
X124470000Y-65608571D01*
X124470000Y-65703809D01*
X123993809Y-65799047D01*
X124850952Y-66084761D02*
X124946190Y-66132380D01*
X125136666Y-66132380D01*
X125231904Y-66084761D01*
X125279523Y-65989523D01*
X125279523Y-65941904D01*
X125231904Y-65846666D01*
X125136666Y-65799047D01*
X124993809Y-65799047D01*
X124898571Y-65751428D01*
X124850952Y-65656190D01*
X124850952Y-65608571D01*
X124898571Y-65513333D01*
X124993809Y-65465714D01*
X125136666Y-65465714D01*
X125231904Y-65513333D01*
X125565238Y-65465714D02*
X125946190Y-65465714D01*
X125708095Y-65132380D02*
X125708095Y-65989523D01*
X125755714Y-66084761D01*
X125850952Y-66132380D01*
X125946190Y-66132380D01*
X126279523Y-66132380D02*
X126279523Y-65132380D01*
X126660476Y-65132380D01*
X126755714Y-65180000D01*
X126803333Y-65227619D01*
X126850952Y-65322857D01*
X126850952Y-65465714D01*
X126803333Y-65560952D01*
X126755714Y-65608571D01*
X126660476Y-65656190D01*
X126279523Y-65656190D01*
X127422380Y-66132380D02*
X127327142Y-66084761D01*
X127279523Y-66037142D01*
X127231904Y-65941904D01*
X127231904Y-65656190D01*
X127279523Y-65560952D01*
X127327142Y-65513333D01*
X127422380Y-65465714D01*
X127565238Y-65465714D01*
X127660476Y-65513333D01*
X127708095Y-65560952D01*
X127755714Y-65656190D01*
X127755714Y-65941904D01*
X127708095Y-66037142D01*
X127660476Y-66084761D01*
X127565238Y-66132380D01*
X127422380Y-66132380D01*
X128184285Y-66132380D02*
X128184285Y-65465714D01*
X128184285Y-65132380D02*
X128136666Y-65180000D01*
X128184285Y-65227619D01*
X128231904Y-65180000D01*
X128184285Y-65132380D01*
X128184285Y-65227619D01*
X128660476Y-65465714D02*
X128660476Y-66132380D01*
X128660476Y-65560952D02*
X128708095Y-65513333D01*
X128803333Y-65465714D01*
X128946190Y-65465714D01*
X129041428Y-65513333D01*
X129089047Y-65608571D01*
X129089047Y-66132380D01*
X129422380Y-65465714D02*
X129803333Y-65465714D01*
X129565238Y-65132380D02*
X129565238Y-65989523D01*
X129612857Y-66084761D01*
X129708095Y-66132380D01*
X129803333Y-66132380D01*
X124731904Y-62132380D02*
X125303333Y-62132380D01*
X125017619Y-63132380D02*
X125017619Y-62132380D01*
X125636666Y-63132380D02*
X125636666Y-62132380D01*
X126017619Y-62132380D01*
X126112857Y-62180000D01*
X126160476Y-62227619D01*
X126208095Y-62322857D01*
X126208095Y-62465714D01*
X126160476Y-62560952D01*
X126112857Y-62608571D01*
X126017619Y-62656190D01*
X125636666Y-62656190D01*
X127160476Y-63132380D02*
X126589047Y-63132380D01*
X126874761Y-63132380D02*
X126874761Y-62132380D01*
X126779523Y-62275238D01*
X126684285Y-62370476D01*
X126589047Y-62418095D01*
X128017619Y-62132380D02*
X127827142Y-62132380D01*
X127731904Y-62180000D01*
X127684285Y-62227619D01*
X127589047Y-62370476D01*
X127541428Y-62560952D01*
X127541428Y-62941904D01*
X127589047Y-63037142D01*
X127636666Y-63084761D01*
X127731904Y-63132380D01*
X127922380Y-63132380D01*
X128017619Y-63084761D01*
X128065238Y-63037142D01*
X128112857Y-62941904D01*
X128112857Y-62703809D01*
X128065238Y-62608571D01*
X128017619Y-62560952D01*
X127922380Y-62513333D01*
X127731904Y-62513333D01*
X127636666Y-62560952D01*
X127589047Y-62608571D01*
X127541428Y-62703809D01*
%TO.C,TP13*%
X118129047Y-71630000D02*
X118033809Y-71582380D01*
X117890952Y-71582380D01*
X117748095Y-71630000D01*
X117652857Y-71725238D01*
X117605238Y-71820476D01*
X117557619Y-72010952D01*
X117557619Y-72153809D01*
X117605238Y-72344285D01*
X117652857Y-72439523D01*
X117748095Y-72534761D01*
X117890952Y-72582380D01*
X117986190Y-72582380D01*
X118129047Y-72534761D01*
X118176666Y-72487142D01*
X118176666Y-72153809D01*
X117986190Y-72153809D01*
X119176666Y-72582380D02*
X118843333Y-72106190D01*
X118605238Y-72582380D02*
X118605238Y-71582380D01*
X118986190Y-71582380D01*
X119081428Y-71630000D01*
X119129047Y-71677619D01*
X119176666Y-71772857D01*
X119176666Y-71915714D01*
X119129047Y-72010952D01*
X119081428Y-72058571D01*
X118986190Y-72106190D01*
X118605238Y-72106190D01*
X119557619Y-72534761D02*
X119700476Y-72582380D01*
X119938571Y-72582380D01*
X120033809Y-72534761D01*
X120081428Y-72487142D01*
X120129047Y-72391904D01*
X120129047Y-72296666D01*
X120081428Y-72201428D01*
X120033809Y-72153809D01*
X119938571Y-72106190D01*
X119748095Y-72058571D01*
X119652857Y-72010952D01*
X119605238Y-71963333D01*
X119557619Y-71868095D01*
X119557619Y-71772857D01*
X119605238Y-71677619D01*
X119652857Y-71630000D01*
X119748095Y-71582380D01*
X119986190Y-71582380D01*
X120129047Y-71630000D01*
X120414761Y-71582380D02*
X120986190Y-71582380D01*
X120700476Y-72582380D02*
X120700476Y-71582380D01*
X121224285Y-71915714D02*
X121748095Y-71915714D01*
X121224285Y-72582380D01*
X121748095Y-72582380D01*
X118271904Y-68582380D02*
X118843333Y-68582380D01*
X118557619Y-69582380D02*
X118557619Y-68582380D01*
X119176666Y-69582380D02*
X119176666Y-68582380D01*
X119557619Y-68582380D01*
X119652857Y-68630000D01*
X119700476Y-68677619D01*
X119748095Y-68772857D01*
X119748095Y-68915714D01*
X119700476Y-69010952D01*
X119652857Y-69058571D01*
X119557619Y-69106190D01*
X119176666Y-69106190D01*
X120700476Y-69582380D02*
X120129047Y-69582380D01*
X120414761Y-69582380D02*
X120414761Y-68582380D01*
X120319523Y-68725238D01*
X120224285Y-68820476D01*
X120129047Y-68868095D01*
X121033809Y-68582380D02*
X121652857Y-68582380D01*
X121319523Y-68963333D01*
X121462380Y-68963333D01*
X121557619Y-69010952D01*
X121605238Y-69058571D01*
X121652857Y-69153809D01*
X121652857Y-69391904D01*
X121605238Y-69487142D01*
X121557619Y-69534761D01*
X121462380Y-69582380D01*
X121176666Y-69582380D01*
X121081428Y-69534761D01*
X121033809Y-69487142D01*
D11*
%TO.C,J6*%
X127629428Y-75572380D02*
X128296095Y-75572380D01*
X127629428Y-76572380D01*
X128296095Y-76572380D01*
X129010380Y-76048571D02*
X128677047Y-76048571D01*
X128677047Y-76572380D02*
X128677047Y-75572380D01*
X129153238Y-75572380D01*
X130010380Y-75572380D02*
X129534190Y-75572380D01*
X129486571Y-76048571D01*
X129534190Y-76000952D01*
X129629428Y-75953333D01*
X129867523Y-75953333D01*
X129962761Y-76000952D01*
X130010380Y-76048571D01*
X130058000Y-76143809D01*
X130058000Y-76381904D01*
X130010380Y-76477142D01*
X129962761Y-76524761D01*
X129867523Y-76572380D01*
X129629428Y-76572380D01*
X129534190Y-76524761D01*
X129486571Y-76477142D01*
X130438952Y-76524761D02*
X130581809Y-76572380D01*
X130819904Y-76572380D01*
X130915142Y-76524761D01*
X130962761Y-76477142D01*
X131010380Y-76381904D01*
X131010380Y-76286666D01*
X130962761Y-76191428D01*
X130915142Y-76143809D01*
X130819904Y-76096190D01*
X130629428Y-76048571D01*
X130534190Y-76000952D01*
X130486571Y-75953333D01*
X130438952Y-75858095D01*
X130438952Y-75762857D01*
X130486571Y-75667619D01*
X130534190Y-75620000D01*
X130629428Y-75572380D01*
X130867523Y-75572380D01*
X131010380Y-75620000D01*
X131438952Y-76191428D02*
X132200857Y-76191428D01*
X132629428Y-75667619D02*
X132677047Y-75620000D01*
X132772285Y-75572380D01*
X133010380Y-75572380D01*
X133105619Y-75620000D01*
X133153238Y-75667619D01*
X133200857Y-75762857D01*
X133200857Y-75858095D01*
X133153238Y-76000952D01*
X132581809Y-76572380D01*
X133200857Y-76572380D01*
X133819904Y-75572380D02*
X133915142Y-75572380D01*
X134010380Y-75620000D01*
X134058000Y-75667619D01*
X134105619Y-75762857D01*
X134153238Y-75953333D01*
X134153238Y-76191428D01*
X134105619Y-76381904D01*
X134058000Y-76477142D01*
X134010380Y-76524761D01*
X133915142Y-76572380D01*
X133819904Y-76572380D01*
X133724666Y-76524761D01*
X133677047Y-76477142D01*
X133629428Y-76381904D01*
X133581809Y-76191428D01*
X133581809Y-75953333D01*
X133629428Y-75762857D01*
X133677047Y-75667619D01*
X133724666Y-75620000D01*
X133819904Y-75572380D01*
X134581809Y-76191428D02*
X135343714Y-76191428D01*
X136010380Y-75572380D02*
X136105619Y-75572380D01*
X136200857Y-75620000D01*
X136248476Y-75667619D01*
X136296095Y-75762857D01*
X136343714Y-75953333D01*
X136343714Y-76191428D01*
X136296095Y-76381904D01*
X136248476Y-76477142D01*
X136200857Y-76524761D01*
X136105619Y-76572380D01*
X136010380Y-76572380D01*
X135915142Y-76524761D01*
X135867523Y-76477142D01*
X135819904Y-76381904D01*
X135772285Y-76191428D01*
X135772285Y-75953333D01*
X135819904Y-75762857D01*
X135867523Y-75667619D01*
X135915142Y-75620000D01*
X136010380Y-75572380D01*
X137296095Y-76572380D02*
X136724666Y-76572380D01*
X137010380Y-76572380D02*
X137010380Y-75572380D01*
X136915142Y-75715238D01*
X136819904Y-75810476D01*
X136724666Y-75858095D01*
X137724666Y-76191428D02*
X138486571Y-76191428D01*
X138819904Y-75572380D02*
X139391333Y-75572380D01*
X139105619Y-76572380D02*
X139105619Y-75572380D01*
X139724666Y-76191428D02*
X140486571Y-76191428D01*
X140867523Y-75572380D02*
X141105619Y-76572380D01*
X141296095Y-75858095D01*
X141486571Y-76572380D01*
X141724666Y-75572380D01*
X141962761Y-75572380D02*
X142534190Y-75572380D01*
X142248476Y-76572380D02*
X142248476Y-75572380D01*
D10*
%TO.C,D2*%
X245348571Y-38980952D02*
X245348571Y-39314285D01*
X245872380Y-39314285D02*
X244872380Y-39314285D01*
X244872380Y-38838095D01*
X245872380Y-38457142D02*
X244872380Y-38457142D01*
X245872380Y-37885714D01*
X244872380Y-37885714D01*
D12*
X243961904Y-39190476D02*
X243161904Y-39190476D01*
X243161904Y-39000000D01*
X243200000Y-38885714D01*
X243276190Y-38809523D01*
X243352380Y-38771428D01*
X243504761Y-38733333D01*
X243619047Y-38733333D01*
X243771428Y-38771428D01*
X243847619Y-38809523D01*
X243923809Y-38885714D01*
X243961904Y-39000000D01*
X243961904Y-39190476D01*
X243238095Y-38428571D02*
X243200000Y-38390476D01*
X243161904Y-38314285D01*
X243161904Y-38123809D01*
X243200000Y-38047619D01*
X243238095Y-38009523D01*
X243314285Y-37971428D01*
X243390476Y-37971428D01*
X243504761Y-38009523D01*
X243961904Y-38466666D01*
X243961904Y-37971428D01*
D10*
%TO.C,TP5*%
X128138095Y-67602380D02*
X128709523Y-67602380D01*
X128423809Y-68602380D02*
X128423809Y-67602380D01*
X129042857Y-68602380D02*
X129042857Y-67602380D01*
X129423809Y-67602380D01*
X129519047Y-67650000D01*
X129566666Y-67697619D01*
X129614285Y-67792857D01*
X129614285Y-67935714D01*
X129566666Y-68030952D01*
X129519047Y-68078571D01*
X129423809Y-68126190D01*
X129042857Y-68126190D01*
X130519047Y-67602380D02*
X130042857Y-67602380D01*
X129995238Y-68078571D01*
X130042857Y-68030952D01*
X130138095Y-67983333D01*
X130376190Y-67983333D01*
X130471428Y-68030952D01*
X130519047Y-68078571D01*
X130566666Y-68173809D01*
X130566666Y-68411904D01*
X130519047Y-68507142D01*
X130471428Y-68554761D01*
X130376190Y-68602380D01*
X130138095Y-68602380D01*
X130042857Y-68554761D01*
X129995238Y-68507142D01*
%TO.C,D82*%
X249472380Y-41576190D02*
X248472380Y-41576190D01*
X248472380Y-41195238D01*
X248520000Y-41100000D01*
X248567619Y-41052380D01*
X248662857Y-41004761D01*
X248805714Y-41004761D01*
X248900952Y-41052380D01*
X248948571Y-41100000D01*
X248996190Y-41195238D01*
X248996190Y-41576190D01*
X248472380Y-40671428D02*
X249472380Y-40433333D01*
X248758095Y-40242857D01*
X249472380Y-40052380D01*
X248472380Y-39814285D01*
X249472380Y-38861904D02*
X248996190Y-39195238D01*
X249472380Y-39433333D02*
X248472380Y-39433333D01*
X248472380Y-39052380D01*
X248520000Y-38957142D01*
X248567619Y-38909523D01*
X248662857Y-38861904D01*
X248805714Y-38861904D01*
X248900952Y-38909523D01*
X248948571Y-38957142D01*
X248996190Y-39052380D01*
X248996190Y-39433333D01*
X249472380Y-37671428D02*
X248472380Y-37671428D01*
X249472380Y-37195238D02*
X248472380Y-37195238D01*
X249472380Y-36623809D01*
X248472380Y-36623809D01*
X249472380Y-36147619D02*
X248472380Y-36147619D01*
X248472380Y-35909523D01*
X248520000Y-35766666D01*
X248615238Y-35671428D01*
X248710476Y-35623809D01*
X248900952Y-35576190D01*
X249043809Y-35576190D01*
X249234285Y-35623809D01*
X249329523Y-35671428D01*
X249424761Y-35766666D01*
X249472380Y-35909523D01*
X249472380Y-36147619D01*
D12*
X247561904Y-39571428D02*
X246761904Y-39571428D01*
X246761904Y-39380952D01*
X246800000Y-39266666D01*
X246876190Y-39190476D01*
X246952380Y-39152380D01*
X247104761Y-39114285D01*
X247219047Y-39114285D01*
X247371428Y-39152380D01*
X247447619Y-39190476D01*
X247523809Y-39266666D01*
X247561904Y-39380952D01*
X247561904Y-39571428D01*
X247104761Y-38657142D02*
X247066666Y-38733333D01*
X247028571Y-38771428D01*
X246952380Y-38809523D01*
X246914285Y-38809523D01*
X246838095Y-38771428D01*
X246800000Y-38733333D01*
X246761904Y-38657142D01*
X246761904Y-38504761D01*
X246800000Y-38428571D01*
X246838095Y-38390476D01*
X246914285Y-38352380D01*
X246952380Y-38352380D01*
X247028571Y-38390476D01*
X247066666Y-38428571D01*
X247104761Y-38504761D01*
X247104761Y-38657142D01*
X247142857Y-38733333D01*
X247180952Y-38771428D01*
X247257142Y-38809523D01*
X247409523Y-38809523D01*
X247485714Y-38771428D01*
X247523809Y-38733333D01*
X247561904Y-38657142D01*
X247561904Y-38504761D01*
X247523809Y-38428571D01*
X247485714Y-38390476D01*
X247409523Y-38352380D01*
X247257142Y-38352380D01*
X247180952Y-38390476D01*
X247142857Y-38428571D01*
X247104761Y-38504761D01*
X246838095Y-38047619D02*
X246800000Y-38009523D01*
X246761904Y-37933333D01*
X246761904Y-37742857D01*
X246800000Y-37666666D01*
X246838095Y-37628571D01*
X246914285Y-37590476D01*
X246990476Y-37590476D01*
X247104761Y-37628571D01*
X247561904Y-38085714D01*
X247561904Y-37590476D01*
D10*
%TO.C,TP25*%
X118866666Y-94602380D02*
X119438095Y-94602380D01*
X119152380Y-95602380D02*
X119152380Y-94602380D01*
X120152380Y-95554761D02*
X120057142Y-95602380D01*
X119866666Y-95602380D01*
X119771428Y-95554761D01*
X119723809Y-95459523D01*
X119723809Y-95078571D01*
X119771428Y-94983333D01*
X119866666Y-94935714D01*
X120057142Y-94935714D01*
X120152380Y-94983333D01*
X120200000Y-95078571D01*
X120200000Y-95173809D01*
X119723809Y-95269047D01*
X120580952Y-95554761D02*
X120676190Y-95602380D01*
X120866666Y-95602380D01*
X120961904Y-95554761D01*
X121009523Y-95459523D01*
X121009523Y-95411904D01*
X120961904Y-95316666D01*
X120866666Y-95269047D01*
X120723809Y-95269047D01*
X120628571Y-95221428D01*
X120580952Y-95126190D01*
X120580952Y-95078571D01*
X120628571Y-94983333D01*
X120723809Y-94935714D01*
X120866666Y-94935714D01*
X120961904Y-94983333D01*
X121295238Y-94935714D02*
X121676190Y-94935714D01*
X121438095Y-94602380D02*
X121438095Y-95459523D01*
X121485714Y-95554761D01*
X121580952Y-95602380D01*
X121676190Y-95602380D01*
X122009523Y-95602380D02*
X122009523Y-94602380D01*
X122390476Y-94602380D01*
X122485714Y-94650000D01*
X122533333Y-94697619D01*
X122580952Y-94792857D01*
X122580952Y-94935714D01*
X122533333Y-95030952D01*
X122485714Y-95078571D01*
X122390476Y-95126190D01*
X122009523Y-95126190D01*
X123152380Y-95602380D02*
X123057142Y-95554761D01*
X123009523Y-95507142D01*
X122961904Y-95411904D01*
X122961904Y-95126190D01*
X123009523Y-95030952D01*
X123057142Y-94983333D01*
X123152380Y-94935714D01*
X123295238Y-94935714D01*
X123390476Y-94983333D01*
X123438095Y-95030952D01*
X123485714Y-95126190D01*
X123485714Y-95411904D01*
X123438095Y-95507142D01*
X123390476Y-95554761D01*
X123295238Y-95602380D01*
X123152380Y-95602380D01*
X123914285Y-95602380D02*
X123914285Y-94935714D01*
X123914285Y-94602380D02*
X123866666Y-94650000D01*
X123914285Y-94697619D01*
X123961904Y-94650000D01*
X123914285Y-94602380D01*
X123914285Y-94697619D01*
X124390476Y-94935714D02*
X124390476Y-95602380D01*
X124390476Y-95030952D02*
X124438095Y-94983333D01*
X124533333Y-94935714D01*
X124676190Y-94935714D01*
X124771428Y-94983333D01*
X124819047Y-95078571D01*
X124819047Y-95602380D01*
X125152380Y-94935714D02*
X125533333Y-94935714D01*
X125295238Y-94602380D02*
X125295238Y-95459523D01*
X125342857Y-95554761D01*
X125438095Y-95602380D01*
X125533333Y-95602380D01*
X120461904Y-91602380D02*
X121033333Y-91602380D01*
X120747619Y-92602380D02*
X120747619Y-91602380D01*
X121366666Y-92602380D02*
X121366666Y-91602380D01*
X121747619Y-91602380D01*
X121842857Y-91650000D01*
X121890476Y-91697619D01*
X121938095Y-91792857D01*
X121938095Y-91935714D01*
X121890476Y-92030952D01*
X121842857Y-92078571D01*
X121747619Y-92126190D01*
X121366666Y-92126190D01*
X122319047Y-91697619D02*
X122366666Y-91650000D01*
X122461904Y-91602380D01*
X122700000Y-91602380D01*
X122795238Y-91650000D01*
X122842857Y-91697619D01*
X122890476Y-91792857D01*
X122890476Y-91888095D01*
X122842857Y-92030952D01*
X122271428Y-92602380D01*
X122890476Y-92602380D01*
X123795238Y-91602380D02*
X123319047Y-91602380D01*
X123271428Y-92078571D01*
X123319047Y-92030952D01*
X123414285Y-91983333D01*
X123652380Y-91983333D01*
X123747619Y-92030952D01*
X123795238Y-92078571D01*
X123842857Y-92173809D01*
X123842857Y-92411904D01*
X123795238Y-92507142D01*
X123747619Y-92554761D01*
X123652380Y-92602380D01*
X123414285Y-92602380D01*
X123319047Y-92554761D01*
X123271428Y-92507142D01*
%TO.C,TP6*%
X131538095Y-67602380D02*
X132109523Y-67602380D01*
X131823809Y-68602380D02*
X131823809Y-67602380D01*
X132442857Y-68602380D02*
X132442857Y-67602380D01*
X132823809Y-67602380D01*
X132919047Y-67650000D01*
X132966666Y-67697619D01*
X133014285Y-67792857D01*
X133014285Y-67935714D01*
X132966666Y-68030952D01*
X132919047Y-68078571D01*
X132823809Y-68126190D01*
X132442857Y-68126190D01*
X133871428Y-67602380D02*
X133680952Y-67602380D01*
X133585714Y-67650000D01*
X133538095Y-67697619D01*
X133442857Y-67840476D01*
X133395238Y-68030952D01*
X133395238Y-68411904D01*
X133442857Y-68507142D01*
X133490476Y-68554761D01*
X133585714Y-68602380D01*
X133776190Y-68602380D01*
X133871428Y-68554761D01*
X133919047Y-68507142D01*
X133966666Y-68411904D01*
X133966666Y-68173809D01*
X133919047Y-68078571D01*
X133871428Y-68030952D01*
X133776190Y-67983333D01*
X133585714Y-67983333D01*
X133490476Y-68030952D01*
X133442857Y-68078571D01*
X133395238Y-68173809D01*
%TO.C,D4*%
X242107142Y-41583809D02*
X242154761Y-41631428D01*
X242202380Y-41774285D01*
X242202380Y-41869523D01*
X242154761Y-42012380D01*
X242059523Y-42107619D01*
X241964285Y-42155238D01*
X241773809Y-42202857D01*
X241630952Y-42202857D01*
X241440476Y-42155238D01*
X241345238Y-42107619D01*
X241250000Y-42012380D01*
X241202380Y-41869523D01*
X241202380Y-41774285D01*
X241250000Y-41631428D01*
X241297619Y-41583809D01*
X241916666Y-41202857D02*
X241916666Y-40726666D01*
X242202380Y-41298095D02*
X241202380Y-40964761D01*
X242202380Y-40631428D01*
X242202380Y-40298095D02*
X241202380Y-40298095D01*
X241202380Y-39917142D01*
X241250000Y-39821904D01*
X241297619Y-39774285D01*
X241392857Y-39726666D01*
X241535714Y-39726666D01*
X241630952Y-39774285D01*
X241678571Y-39821904D01*
X241726190Y-39917142D01*
X241726190Y-40298095D01*
X242154761Y-39345714D02*
X242202380Y-39202857D01*
X242202380Y-38964761D01*
X242154761Y-38869523D01*
X242107142Y-38821904D01*
X242011904Y-38774285D01*
X241916666Y-38774285D01*
X241821428Y-38821904D01*
X241773809Y-38869523D01*
X241726190Y-38964761D01*
X241678571Y-39155238D01*
X241630952Y-39250476D01*
X241583333Y-39298095D01*
X241488095Y-39345714D01*
X241392857Y-39345714D01*
X241297619Y-39298095D01*
X241250000Y-39250476D01*
X241202380Y-39155238D01*
X241202380Y-38917142D01*
X241250000Y-38774285D01*
X242202380Y-37869523D02*
X242202380Y-38345714D01*
X241202380Y-38345714D01*
X241202380Y-37345714D02*
X241202380Y-37155238D01*
X241250000Y-37060000D01*
X241345238Y-36964761D01*
X241535714Y-36917142D01*
X241869047Y-36917142D01*
X242059523Y-36964761D01*
X242154761Y-37060000D01*
X242202380Y-37155238D01*
X242202380Y-37345714D01*
X242154761Y-37440952D01*
X242059523Y-37536190D01*
X241869047Y-37583809D01*
X241535714Y-37583809D01*
X241345238Y-37536190D01*
X241250000Y-37440952D01*
X241202380Y-37345714D01*
X242107142Y-35917142D02*
X242154761Y-35964761D01*
X242202380Y-36107619D01*
X242202380Y-36202857D01*
X242154761Y-36345714D01*
X242059523Y-36440952D01*
X241964285Y-36488571D01*
X241773809Y-36536190D01*
X241630952Y-36536190D01*
X241440476Y-36488571D01*
X241345238Y-36440952D01*
X241250000Y-36345714D01*
X241202380Y-36202857D01*
X241202380Y-36107619D01*
X241250000Y-35964761D01*
X241297619Y-35917142D01*
X242202380Y-35488571D02*
X241202380Y-35488571D01*
X242202380Y-34917142D02*
X241630952Y-35345714D01*
X241202380Y-34917142D02*
X241773809Y-35488571D01*
D12*
X240291904Y-39150476D02*
X239491904Y-39150476D01*
X239491904Y-38960000D01*
X239530000Y-38845714D01*
X239606190Y-38769523D01*
X239682380Y-38731428D01*
X239834761Y-38693333D01*
X239949047Y-38693333D01*
X240101428Y-38731428D01*
X240177619Y-38769523D01*
X240253809Y-38845714D01*
X240291904Y-38960000D01*
X240291904Y-39150476D01*
X239758571Y-38007619D02*
X240291904Y-38007619D01*
X239453809Y-38198095D02*
X240025238Y-38388571D01*
X240025238Y-37893333D01*
D10*
%TO.C,D1*%
X256386666Y-41076190D02*
X256386666Y-40600000D01*
X256672380Y-41171428D02*
X255672380Y-40838095D01*
X256672380Y-40504761D01*
X256624761Y-39742857D02*
X256672380Y-39838095D01*
X256672380Y-40028571D01*
X256624761Y-40123809D01*
X256577142Y-40171428D01*
X256481904Y-40219047D01*
X256196190Y-40219047D01*
X256100952Y-40171428D01*
X256053333Y-40123809D01*
X256005714Y-40028571D01*
X256005714Y-39838095D01*
X256053333Y-39742857D01*
X256005714Y-39457142D02*
X256005714Y-39076190D01*
X255672380Y-39314285D02*
X256529523Y-39314285D01*
X256624761Y-39266666D01*
X256672380Y-39171428D01*
X256672380Y-39076190D01*
X256672380Y-38742857D02*
X256005714Y-38742857D01*
X255672380Y-38742857D02*
X255720000Y-38790476D01*
X255767619Y-38742857D01*
X255720000Y-38695238D01*
X255672380Y-38742857D01*
X255767619Y-38742857D01*
X256005714Y-38361904D02*
X256672380Y-38123809D01*
X256005714Y-37885714D01*
X256672380Y-37504761D02*
X256005714Y-37504761D01*
X255672380Y-37504761D02*
X255720000Y-37552380D01*
X255767619Y-37504761D01*
X255720000Y-37457142D01*
X255672380Y-37504761D01*
X255767619Y-37504761D01*
X256005714Y-37171428D02*
X256005714Y-36790476D01*
X255672380Y-37028571D02*
X256529523Y-37028571D01*
X256624761Y-36980952D01*
X256672380Y-36885714D01*
X256672380Y-36790476D01*
X256005714Y-36552380D02*
X256672380Y-36314285D01*
X256005714Y-36076190D02*
X256672380Y-36314285D01*
X256910476Y-36409523D01*
X256958095Y-36457142D01*
X257005714Y-36552380D01*
D12*
X254761904Y-39190476D02*
X253961904Y-39190476D01*
X253961904Y-39000000D01*
X254000000Y-38885714D01*
X254076190Y-38809523D01*
X254152380Y-38771428D01*
X254304761Y-38733333D01*
X254419047Y-38733333D01*
X254571428Y-38771428D01*
X254647619Y-38809523D01*
X254723809Y-38885714D01*
X254761904Y-39000000D01*
X254761904Y-39190476D01*
X254761904Y-37971428D02*
X254761904Y-38428571D01*
X254761904Y-38200000D02*
X253961904Y-38200000D01*
X254076190Y-38276190D01*
X254152380Y-38352380D01*
X254190476Y-38428571D01*
D10*
%TO.C,D81*%
X252977142Y-41290476D02*
X253024761Y-41338095D01*
X253072380Y-41480952D01*
X253072380Y-41576190D01*
X253024761Y-41719047D01*
X252929523Y-41814285D01*
X252834285Y-41861904D01*
X252643809Y-41909523D01*
X252500952Y-41909523D01*
X252310476Y-41861904D01*
X252215238Y-41814285D01*
X252120000Y-41719047D01*
X252072380Y-41576190D01*
X252072380Y-41480952D01*
X252120000Y-41338095D01*
X252167619Y-41290476D01*
X253072380Y-40861904D02*
X252072380Y-40861904D01*
X252548571Y-40861904D02*
X252548571Y-40290476D01*
X253072380Y-40290476D02*
X252072380Y-40290476D01*
X252120000Y-39290476D02*
X252072380Y-39385714D01*
X252072380Y-39528571D01*
X252120000Y-39671428D01*
X252215238Y-39766666D01*
X252310476Y-39814285D01*
X252500952Y-39861904D01*
X252643809Y-39861904D01*
X252834285Y-39814285D01*
X252929523Y-39766666D01*
X253024761Y-39671428D01*
X253072380Y-39528571D01*
X253072380Y-39433333D01*
X253024761Y-39290476D01*
X252977142Y-39242857D01*
X252643809Y-39242857D01*
X252643809Y-39433333D01*
X252024761Y-38100000D02*
X253310476Y-38957142D01*
X252548571Y-37766666D02*
X252548571Y-37433333D01*
X253072380Y-37290476D02*
X253072380Y-37766666D01*
X252072380Y-37766666D01*
X252072380Y-37290476D01*
X253072380Y-36290476D02*
X252596190Y-36623809D01*
X253072380Y-36861904D02*
X252072380Y-36861904D01*
X252072380Y-36480952D01*
X252120000Y-36385714D01*
X252167619Y-36338095D01*
X252262857Y-36290476D01*
X252405714Y-36290476D01*
X252500952Y-36338095D01*
X252548571Y-36385714D01*
X252596190Y-36480952D01*
X252596190Y-36861904D01*
X253072380Y-35290476D02*
X252596190Y-35623809D01*
X253072380Y-35861904D02*
X252072380Y-35861904D01*
X252072380Y-35480952D01*
X252120000Y-35385714D01*
X252167619Y-35338095D01*
X252262857Y-35290476D01*
X252405714Y-35290476D01*
X252500952Y-35338095D01*
X252548571Y-35385714D01*
X252596190Y-35480952D01*
X252596190Y-35861904D01*
D12*
X251161904Y-39571428D02*
X250361904Y-39571428D01*
X250361904Y-39380952D01*
X250400000Y-39266666D01*
X250476190Y-39190476D01*
X250552380Y-39152380D01*
X250704761Y-39114285D01*
X250819047Y-39114285D01*
X250971428Y-39152380D01*
X251047619Y-39190476D01*
X251123809Y-39266666D01*
X251161904Y-39380952D01*
X251161904Y-39571428D01*
X250704761Y-38657142D02*
X250666666Y-38733333D01*
X250628571Y-38771428D01*
X250552380Y-38809523D01*
X250514285Y-38809523D01*
X250438095Y-38771428D01*
X250400000Y-38733333D01*
X250361904Y-38657142D01*
X250361904Y-38504761D01*
X250400000Y-38428571D01*
X250438095Y-38390476D01*
X250514285Y-38352380D01*
X250552380Y-38352380D01*
X250628571Y-38390476D01*
X250666666Y-38428571D01*
X250704761Y-38504761D01*
X250704761Y-38657142D01*
X250742857Y-38733333D01*
X250780952Y-38771428D01*
X250857142Y-38809523D01*
X251009523Y-38809523D01*
X251085714Y-38771428D01*
X251123809Y-38733333D01*
X251161904Y-38657142D01*
X251161904Y-38504761D01*
X251123809Y-38428571D01*
X251085714Y-38390476D01*
X251009523Y-38352380D01*
X250857142Y-38352380D01*
X250780952Y-38390476D01*
X250742857Y-38428571D01*
X250704761Y-38504761D01*
X251161904Y-37590476D02*
X251161904Y-38047619D01*
X251161904Y-37819047D02*
X250361904Y-37819047D01*
X250476190Y-37895238D01*
X250552380Y-37971428D01*
X250590476Y-38047619D01*
D10*
%TO.C,U8*%
X89792856Y-63983332D02*
X90364285Y-63983332D01*
X90078571Y-64983332D02*
X90078571Y-63983332D01*
X91173809Y-64983332D02*
X90697618Y-64983332D01*
X90697618Y-63983332D01*
X91364285Y-63983332D02*
X91697618Y-64983332D01*
X92030952Y-63983332D01*
X92269047Y-63983332D02*
X92935714Y-63983332D01*
X92507142Y-64983332D01*
X93745237Y-64316666D02*
X93745237Y-64983332D01*
X93507142Y-63935713D02*
X93269047Y-64649999D01*
X93888095Y-64649999D01*
X94459523Y-63983332D02*
X94554761Y-63983332D01*
X94649999Y-64030952D01*
X94697618Y-64078571D01*
X94745237Y-64173809D01*
X94792856Y-64364285D01*
X94792856Y-64602380D01*
X94745237Y-64792856D01*
X94697618Y-64888094D01*
X94649999Y-64935713D01*
X94554761Y-64983332D01*
X94459523Y-64983332D01*
X94364285Y-64935713D01*
X94316666Y-64888094D01*
X94269047Y-64792856D01*
X94221428Y-64602380D01*
X94221428Y-64364285D01*
X94269047Y-64173809D01*
X94316666Y-64078571D01*
X94364285Y-64030952D01*
X94459523Y-63983332D01*
X95221428Y-64983332D02*
X95221428Y-63983332D01*
X95602380Y-63983332D01*
X95697618Y-64030952D01*
X95745237Y-64078571D01*
X95792856Y-64173809D01*
X95792856Y-64316666D01*
X95745237Y-64411904D01*
X95697618Y-64459523D01*
X95602380Y-64507142D01*
X95221428Y-64507142D01*
D13*
X88966666Y-65111904D02*
X89371428Y-65111904D01*
X89419047Y-65088094D01*
X89442856Y-65064285D01*
X89466666Y-65016666D01*
X89466666Y-64921428D01*
X89442856Y-64873809D01*
X89419047Y-64849999D01*
X89371428Y-64826190D01*
X88966666Y-64826190D01*
X89180952Y-64516666D02*
X89157142Y-64564285D01*
X89133333Y-64588094D01*
X89085714Y-64611904D01*
X89061904Y-64611904D01*
X89014285Y-64588094D01*
X88990476Y-64564285D01*
X88966666Y-64516666D01*
X88966666Y-64421428D01*
X88990476Y-64373809D01*
X89014285Y-64349999D01*
X89061904Y-64326190D01*
X89085714Y-64326190D01*
X89133333Y-64349999D01*
X89157142Y-64373809D01*
X89180952Y-64421428D01*
X89180952Y-64516666D01*
X89204761Y-64564285D01*
X89228571Y-64588094D01*
X89276190Y-64611904D01*
X89371428Y-64611904D01*
X89419047Y-64588094D01*
X89442856Y-64564285D01*
X89466666Y-64516666D01*
X89466666Y-64421428D01*
X89442856Y-64373809D01*
X89419047Y-64349999D01*
X89371428Y-64326190D01*
X89276190Y-64326190D01*
X89228571Y-64349999D01*
X89204761Y-64373809D01*
X89180952Y-64421428D01*
D14*
%TO.C,J6*%
X145053000Y-84540000D02*
G75*
G03*
X145053000Y-84540000I-100000J0D01*
G01*
D15*
X132378000Y-77750000D02*
X148028000Y-77750000D01*
X132378000Y-83410000D02*
X132378000Y-77750000D01*
X148028000Y-83410000D02*
X132378000Y-83410000D01*
X148028000Y-77750000D02*
X148028000Y-83410000D01*
%TO.C,D2*%
X244400000Y-37000000D02*
X242800000Y-37000000D01*
X242800000Y-37000000D02*
X242800000Y-39800000D01*
X244400000Y-40200000D02*
X244400000Y-37000000D01*
X242800000Y-39800000D02*
X243200000Y-40200000D01*
X243200000Y-40200000D02*
X244400000Y-40200000D01*
%TO.C,D82*%
X246400000Y-37000000D02*
X246400000Y-39800000D01*
X246800000Y-40200000D02*
X248000000Y-40200000D01*
X248000000Y-37000000D02*
X246400000Y-37000000D01*
X246400000Y-39800000D02*
X246800000Y-40200000D01*
X248000000Y-40200000D02*
X248000000Y-37000000D01*
%TO.C,D4*%
X239130000Y-39760000D02*
X239530000Y-40160000D01*
X239530000Y-40160000D02*
X240730000Y-40160000D01*
X240730000Y-36960000D02*
X239130000Y-36960000D01*
X239130000Y-36960000D02*
X239130000Y-39760000D01*
X240730000Y-40160000D02*
X240730000Y-36960000D01*
%TO.C,D1*%
X255200000Y-37000000D02*
X253600000Y-37000000D01*
X255200000Y-40200000D02*
X255200000Y-37000000D01*
X253600000Y-37000000D02*
X253600000Y-39800000D01*
X253600000Y-39800000D02*
X254000000Y-40200000D01*
X254000000Y-40200000D02*
X255200000Y-40200000D01*
%TO.C,D81*%
X250000000Y-39800000D02*
X250400000Y-40200000D01*
X250000000Y-37000000D02*
X250000000Y-39800000D01*
X251600000Y-40200000D02*
X251600000Y-37000000D01*
X251600000Y-37000000D02*
X250000000Y-37000000D01*
X250400000Y-40200000D02*
X251600000Y-40200000D01*
%TD*%
M02*
