M48
; DRILL file {KiCad (5.99.0-9972-g9020611657)} date Mon May 31 19:12:48 2021
; FORMAT={-:-/ absolute / inch / decimal}
; #@! TF.CreationDate,2021-05-31T19:12:48-05:00
; #@! TF.GenerationSoftware,Kicad,Pcbnew,(5.99.0-9972-g9020611657)
; #@! TF.FileFunction,Plated,1,4,PTH
FMAT,2
INCH
; #@! TA.AperFunction,ComponentDrill,Plated,PTH
T1C0.0079
; #@! TA.AperFunction,ViaDrill
T2C0.0157
; #@! TA.AperFunction,ComponentDrill,Plated,PTH
T3C0.0256
; #@! TA.AperFunction,ComponentDrill,Plated,PTH
T4C0.0276
; #@! TA.AperFunction,ComponentDrill,Plated,PTH
T5C0.0362
; #@! TA.AperFunction,ComponentDrill,Plated,PTH
T6C0.0394
; #@! TA.AperFunction,ComponentDrill,Plated,PTH
T7C0.0906
%
G90
G05
T1
; plated pad hole
X4.3504Y-2.3819
X4.3504Y-2.4213
X4.3504Y-2.4606
X4.3504Y-2.5
X4.3504Y-2.5394
X4.3504Y-2.5787
X4.3504Y-2.6181
X4.3504Y-2.6575
X4.3898Y-2.3819
X4.3898Y-2.4213
X4.3898Y-2.4606
X4.3898Y-2.5
X4.3898Y-2.5394
X4.3898Y-2.5787
X4.3898Y-2.6181
X4.3898Y-2.6575
X4.4291Y-2.3819
X4.4291Y-2.4213
X4.4291Y-2.4606
X4.4291Y-2.5
X4.4291Y-2.5394
X4.4291Y-2.5787
X4.4291Y-2.6181
X4.4291Y-2.6575
X4.4685Y-2.3819
X4.4685Y-2.4213
X4.4685Y-2.4606
X4.4685Y-2.5
X4.4685Y-2.5394
X4.4685Y-2.5787
X4.4685Y-2.6181
X4.4685Y-2.6575
X4.5079Y-2.3819
X4.5079Y-2.4213
X4.5079Y-2.4606
X4.5079Y-2.5
X4.5079Y-2.5394
X4.5079Y-2.5787
X4.5079Y-2.6181
X4.5079Y-2.6575
X4.5472Y-2.3819
X4.5472Y-2.4213
X4.5472Y-2.4606
X4.5472Y-2.5
X4.5472Y-2.5394
X4.5472Y-2.5787
X4.5472Y-2.6181
X4.5472Y-2.6575
X4.5866Y-2.3819
X4.5866Y-2.4213
X4.5866Y-2.4606
X4.5866Y-2.5
X4.5866Y-2.5394
X4.5866Y-2.5787
X4.5866Y-2.6181
X4.5866Y-2.6575
X4.626Y-2.3819
X4.626Y-2.4213
X4.626Y-2.4606
X4.626Y-2.5
X4.626Y-2.5394
X4.626Y-2.5787
X4.626Y-2.6181
X4.626Y-2.6575
X5.2923Y-3.5049
X5.2923Y-3.5433
X5.2923Y-3.5817
X5.3307Y-3.5049
X5.3307Y-3.5433
X5.3307Y-3.5817
X5.3691Y-3.5049
X5.3691Y-3.5433
X5.3691Y-3.5817
T2
; via hole
X2.4409Y-4.3701
X2.8346Y-5.5984
X2.8425Y-4.9055
X2.8755Y-3.937
X2.8932Y-4.3555
X2.9213Y-3.9134
X2.9321Y-4.3465
X2.9606Y-3.9055
X2.9764Y-3.8661
X2.9764Y-4.4961
X3.126Y-4.6142
X3.1496Y-4.7559
X3.1969Y-2.3071
X3.252Y-4.685
X3.3937Y-3.189
X3.4094Y-4.3543
X3.4331Y-2.0236
X3.4409Y-3.3071
X3.4488Y-3.7165
X3.4724Y-5.1969
X3.4871Y-2.9767
X3.4961Y-2.3465
X3.6299Y-5.3543
X3.6483Y-4.8317
X3.7717Y-4.8504
X3.7717Y-4.9606
X3.7795Y-2.5118
X3.7795Y-4.126
X3.8031Y-4.5591
X3.8346Y-2.252
X3.874Y-2.3701
X3.874Y-3.1417
X3.8819Y-2.4173
X3.9173Y-3.9567
X3.9213Y-2.6929
X3.9336Y-3.1373
X3.937Y-1.9921
X3.9528Y-4.3543
X3.9685Y-1.9528
X3.9813Y-5.2096
X3.9921Y-4.315
X4.0079Y-3.0866
X4.0079Y-5.5512
X4.0394Y-2.3386
X4.0394Y-4.3937
X4.0866Y-2.3386
X4.1102Y-2.372
X4.1339Y-2.7087
X4.1575Y-2.6457
X4.1604Y-2.4724
X4.189Y-2.5118
X4.1969Y-2.6693
X4.2205Y-2.8268
X4.2283Y-4.0472
X4.2598Y-2.9843
X4.2677Y-5.0
X4.2913Y-2.748
X4.332Y-2.8632
X4.3858Y-5.252
X4.3858Y-5.4724
X4.4252Y-5.0285
X4.4331Y-3.4252
X4.4488Y-4.189
X4.4567Y-2.8661
X4.4567Y-5.1654
X4.4646Y-2.1496
X4.4646Y-2.2205
X4.4882Y-5.0551
X4.4936Y-2.8479
X4.4961Y-4.2835
X4.5118Y-2.1496
X4.5118Y-2.2205
X4.5118Y-2.7972
X4.5433Y-3.0
X4.5483Y-4.2029
X4.5522Y-2.811
X4.5669Y-4.3543
X4.5669Y-4.4961
X4.6026Y-5.0468
X4.6207Y-4.6058
X4.6294Y-5.6462
X4.6335Y-2.8236
X4.6535Y-4.9764
X4.6772Y-4.9055
X4.6772Y-5.2913
X4.685Y-4.5118
X4.6853Y-4.9478
X4.7087Y-4.5669
X4.7323Y-4.7795
X4.7638Y-4.7244
X4.7953Y-2.5512
X4.8009Y-2.4914
X4.8031Y-4.5906
X4.811Y-4.9213
X4.8268Y-2.5226
X4.8346Y-2.5827
X4.8346Y-2.622
X4.8583Y-4.6299
X4.874Y-4.8819
X4.9134Y-4.9213
X4.9301Y-5.1159
X4.9369Y-5.0246
X4.9449Y-2.6378
X4.9449Y-5.7244
X4.9892Y-3.685
X5.0049Y-5.0787
X5.0394Y-1.685
X5.0551Y-3.5433
X5.1024Y-3.9232
X5.1029Y-2.8027
X5.1102Y-3.8504
X5.1102Y-5.1969
X5.126Y-2.6585
X5.1496Y-4.2992
X5.1575Y-5.4409
X5.1575Y-5.5512
X5.1634Y-3.9606
X5.1732Y-4.7087
X5.1811Y-5.2756
X5.1821Y-4.8268
X5.2047Y-3.5827
X5.2303Y-3.4961
X5.2343Y-2.0295
X5.252Y-3.8819
X5.252Y-4.7087
X5.2598Y-4.7953
X5.2833Y-3.4272
X5.2913Y-2.685
X5.2933Y-3.9208
X5.2992Y-1.9055
X5.2992Y-3.7402
X5.3223Y-4.7633
X5.3309Y-3.378
X5.3351Y-3.8533
X5.3465Y-3.748
X5.3622Y-1.9843
X5.378Y-4.7008
X5.3811Y-2.2785
X5.3937Y-5.2835
X5.4016Y-4.4882
X5.4083Y-3.4004
X5.4094Y-4.1024
X5.415Y-2.9878
X5.4378Y-3.3642
X5.4409Y-4.5167
X5.4492Y-4.9398
X5.4646Y-1.7953
X5.4646Y-3.5433
X5.4646Y-3.5827
X5.4689Y-3.7369
X5.4689Y-2.9539
X5.4704Y-3.4852
X5.4949Y-3.0
X5.4973Y-3.5148
X5.5147Y-2.1457
X5.5197Y-1.8583
X5.5197Y-5.1417
X5.5276Y-2.4803
X5.5299Y-2.9571
X5.5433Y-3.4646
X5.5512Y-2.126
X5.5579Y-2.9268
X5.5714Y-5.0069
X5.5748Y-1.9055
X5.5748Y-2.3071
X5.5965Y-2.911
X5.5984Y-5.063
X5.6409Y-2.8783
X5.6481Y-2.4961
X5.6535Y-5.0157
X5.672Y-2.85
X5.685Y-1.937
X5.685Y-4.9843
X5.7087Y-2.8185
X5.7244Y-1.7717
X5.7323Y-4.7165
X5.7457Y-2.7996
X5.748Y-3.7795
X5.748Y-4.811
X5.7874Y-4.7795
X5.8039Y-3.3472
X5.8583Y-3.4803
X5.8661Y-4.937
X5.874Y-4.5984
X5.89Y-2.016
X5.9283Y-4.2197
X5.937Y-4.8976
X5.9528Y-5.0472
X5.9899Y-5.3354
X6.0472Y-5.3622
X6.0472Y-5.5797
X6.0556Y-5.0704
X6.0787Y-5.1417
X6.0866Y-5.2441
X6.148Y-5.1073
X6.1654Y-5.0709
X6.1732Y-5.3622
X6.189Y-4.2913
X6.2835Y-3.1819
X6.2913Y-2.1024
X6.3858Y-4.5433
X6.4488Y-2.2815
X6.4488Y-4.6693
X6.4523Y-5.3027
X6.4724Y-5.6772
X6.4724Y-5.7795
X6.4882Y-5.2047
X6.5512Y-2.3091
X6.7008Y-4.2943
X6.7166Y-4.5148
X6.7235Y-4.186
X6.811Y-4.8661
X6.8661Y-2.3701
X6.8898Y-4.7087
X6.9764Y-2.9606
X7.0079Y-5.2205
X7.1339Y-5.3967
X7.1417Y-5.0404
X7.1417Y-5.126
X7.2362Y-5.2835
X7.2362Y-5.3937
X7.3701Y-2.1102
X7.4097Y-2.9215
X7.4331Y-2.5827
X7.454Y-2.8882
X7.5176Y-5.3967
X7.5197Y-5.315
X7.5909Y-2.9295
X7.5984Y-3.3307
X7.6457Y-2.8976
X7.6477Y-4.7422
X7.7146Y-3.3711
X7.7638Y-3.3307
X7.7874Y-3.7087
X7.8155Y-4.4675
X7.8425Y-4.7795
X7.874Y-3.0
X7.874Y-5.2441
X7.8842Y-2.3367
X7.8898Y-3.7402
X7.8976Y-3.9921
X7.9685Y-4.6142
X8.0528Y-4.5581
X8.1496Y-5.4252
X8.1782Y-4.4961
X8.1811Y-2.9528
X8.1811Y-4.9764
X8.189Y-4.6772
X8.189Y-5.4567
X8.1969Y-4.126
X8.2047Y-5.2205
X8.2173Y-2.1209
X8.252Y-3.1496
X8.252Y-5.2205
X8.2598Y-4.3622
X8.2677Y-3.622
X8.2756Y-2.3071
X8.285Y-4.1493
X8.2992Y-5.2598
X8.2992Y-5.5541
X8.3307Y-4.6614
X8.3307Y-5.0709
X8.3386Y-1.8583
X8.3465Y-5.1417
X8.3465Y-5.2598
X8.3465Y-5.5354
X8.3622Y-4.0157
X8.3622Y-4.1024
X8.3622Y-4.7323
X8.4016Y-2.9528
X8.4094Y-3.0866
X8.4128Y-4.9321
X8.4252Y-1.9921
X8.4331Y-4.1575
X8.438Y-3.7402
X8.4921Y-1.7331
X8.5748Y-3.3228
X8.6535Y-2.189
X8.6614Y-1.6693
X8.6614Y-5.315
X8.6772Y-5.438
X8.6929Y-2.8504
X8.6929Y-3.003
X8.6929Y-4.8583
X8.7008Y-4.2441
X8.7087Y-5.315
X8.7323Y-2.0315
X8.7323Y-3.3858
X8.7323Y-4.4094
X8.7402Y-2.315
X8.7402Y-3.9528
X8.7461Y-5.3848
X8.7795Y-2.1811
X8.7795Y-5.3228
X8.7795Y-5.4331
X8.8027Y-1.6767
X8.8031Y-5.252
X8.8278Y-3.7116
X8.8346Y-1.7953
X8.8425Y-4.9449
X8.8583Y-1.7087
X8.8583Y-4.252
X8.8632Y-4.5827
X8.8661Y-2.9449
X8.8661Y-4.4961
X8.8976Y-5.3307
X8.9055Y-4.6929
X8.9055Y-5.063
X8.9134Y-3.3228
X8.9134Y-4.1732
X8.9173Y-3.7116
X8.9291Y-4.8898
X8.9606Y-3.378
X8.9764Y-1.5433
X9.2047Y-3.8819
X9.2126Y-3.4882
X9.2126Y-4.3937
X9.2756Y-4.1102
X9.2992Y-3.0315
X9.3228Y-5.1575
X9.3307Y-3.4803
X9.3307Y-4.1024
X9.4016Y-3.5984
X9.4094Y-4.0945
X9.4488Y-1.6299
X9.4567Y-4.5669
X9.5276Y-2.7323
X9.5906Y-1.6378
X9.6929Y-4.2047
X9.7087Y-4.4252
X9.7244Y-1.6378
X9.7321Y-5.2754
X9.7323Y-4.063
X9.8031Y-1.5197
X9.8031Y-1.8661
X9.8661Y-1.6378
X9.8927Y-3.5354
X9.9291Y-1.8819
X9.9449Y-1.4646
X10.0157Y-1.6457
T5
; plated pad hole
X3.7362Y-1.7949
X3.8346Y-1.7949
X3.9134Y-1.7949
X4.0118Y-1.7949
X4.4252Y-1.7949
X4.5236Y-1.7949
X4.6024Y-1.7949
X4.7008Y-1.7949
T6
X2.6087Y-2.6772
X2.6323Y-2.252
X2.7087Y-2.6772
X2.7323Y-2.252
X4.4146Y-3.6858
X4.4146Y-3.7858
X4.4146Y-3.8858
X4.4146Y-3.9858
X4.7146Y-3.6858
X4.7146Y-3.7858
X4.7146Y-3.8858
X4.7146Y-3.9858
X9.6244Y-2.7087
X9.6323Y-2.9764
X9.7244Y-2.7087
X9.7323Y-2.9764
T7
X3.6154Y-1.6882
X4.1327Y-1.6882
X4.3043Y-1.6882
X4.8217Y-1.6882
T3
; plated pad hole
G00X8.5415Y-1.4522
M15
G01X8.5415Y-1.4679
M16
G05
G00X8.7321Y-1.4522
M15
G01X8.7321Y-1.4679
M16
G05
T4
G00X8.5293Y-1.3321
M15
G01X8.5293Y-1.3518
M16
G05
G00X8.7443Y-1.3321
M15
G01X8.7443Y-1.3518
M16
G05
T0
M30
