%TF.GenerationSoftware,KiCad,Pcbnew,(5.99.0-9972-g9020611657)*%
%TF.CreationDate,2021-05-31T19:12:41-05:00*%
%TF.ProjectId,ti92revive,74693932-7265-4766-9976-652e6b696361,rev?*%
%TF.SameCoordinates,Original*%
%TF.FileFunction,Paste,Bot*%
%TF.FilePolarity,Positive*%
%FSLAX46Y46*%
G04 Gerber Fmt 4.6, Leading zero omitted, Abs format (unit mm)*
G04 Created by KiCad (PCBNEW (5.99.0-9972-g9020611657)) date 2021-05-31 19:12:41*
%MOMM*%
%LPD*%
G01*
G04 APERTURE LIST*
G04 Aperture macros list*
%AMRoundRect*
0 Rectangle with rounded corners*
0 $1 Rounding radius*
0 $2 $3 $4 $5 $6 $7 $8 $9 X,Y pos of 4 corners*
0 Add a 4 corners polygon primitive as box body*
4,1,4,$2,$3,$4,$5,$6,$7,$8,$9,$2,$3,0*
0 Add four circle primitives for the rounded corners*
1,1,$1+$1,$2,$3*
1,1,$1+$1,$4,$5*
1,1,$1+$1,$6,$7*
1,1,$1+$1,$8,$9*
0 Add four rect primitives between the rounded corners*
20,1,$1+$1,$2,$3,$4,$5,0*
20,1,$1+$1,$4,$5,$6,$7,0*
20,1,$1+$1,$6,$7,$8,$9,0*
20,1,$1+$1,$8,$9,$2,$3,0*%
%AMFreePoly0*
4,1,57,0.194009,0.449029,0.214144,0.449029,0.231583,0.438961,0.251037,0.433748,0.265277,0.419508,0.282717,0.409439,0.409439,0.282717,0.419508,0.265277,0.433748,0.251037,0.438960,0.231585,0.449030,0.214144,0.449030,0.194005,0.454242,0.174554,0.454242,-0.174554,0.449030,-0.194005,0.449030,-0.214144,0.438960,-0.231585,0.433748,-0.251037,0.419508,-0.265277,0.409439,-0.282717,
0.282717,-0.409439,0.265277,-0.419508,0.251037,-0.433748,0.231583,-0.438961,0.214144,-0.449029,0.194009,-0.449029,0.174554,-0.454242,-0.174554,-0.454242,-0.194005,-0.449030,-0.214144,-0.449030,-0.231585,-0.438960,-0.251037,-0.433748,-0.265277,-0.419508,-0.282717,-0.409439,-0.409439,-0.282717,-0.419508,-0.265277,-0.433748,-0.251037,-0.438961,-0.231583,-0.449029,-0.214144,-0.449029,-0.194009,
-0.454242,-0.174554,-0.454242,0.174554,-0.449029,0.194009,-0.449029,0.214144,-0.438961,0.231583,-0.433748,0.251037,-0.419508,0.265277,-0.409439,0.282717,-0.282717,0.409439,-0.265277,0.419508,-0.251037,0.433748,-0.231585,0.438960,-0.214144,0.449030,-0.194005,0.449030,-0.174554,0.454242,0.174554,0.454242,0.194009,0.449029,0.194009,0.449029,$1*%
G04 Aperture macros list end*
%ADD10R,1.500000X1.150000*%
%ADD11R,1.150000X2.200000*%
%ADD12R,1.160000X1.200000*%
%ADD13R,1.160000X1.250000*%
%ADD14R,0.950000X2.500000*%
%ADD15R,0.800000X1.240000*%
%ADD16RoundRect,0.250000X0.325000X0.650000X-0.325000X0.650000X-0.325000X-0.650000X0.325000X-0.650000X0*%
%ADD17RoundRect,0.250000X-0.650000X0.325000X-0.650000X-0.325000X0.650000X-0.325000X0.650000X0.325000X0*%
%ADD18RoundRect,0.250000X0.312500X0.625000X-0.312500X0.625000X-0.312500X-0.625000X0.312500X-0.625000X0*%
%ADD19RoundRect,0.250000X-0.312500X-0.625000X0.312500X-0.625000X0.312500X0.625000X-0.312500X0.625000X0*%
%ADD20RoundRect,0.250000X-0.625000X0.312500X-0.625000X-0.312500X0.625000X-0.312500X0.625000X0.312500X0*%
%ADD21RoundRect,0.250000X0.625000X-0.312500X0.625000X0.312500X-0.625000X0.312500X-0.625000X-0.312500X0*%
%ADD22RoundRect,0.250000X0.312500X1.450000X-0.312500X1.450000X-0.312500X-1.450000X0.312500X-1.450000X0*%
%ADD23R,2.000000X0.650000*%
%ADD24R,0.900000X1.200000*%
%ADD25RoundRect,0.250000X0.650000X-0.325000X0.650000X0.325000X-0.650000X0.325000X-0.650000X-0.325000X0*%
%ADD26RoundRect,0.250000X-0.325000X-0.650000X0.325000X-0.650000X0.325000X0.650000X-0.325000X0.650000X0*%
%ADD27R,0.400000X1.650000*%
%ADD28R,1.350000X2.000000*%
%ADD29R,1.430000X2.500000*%
%ADD30R,1.825000X0.700000*%
%ADD31R,2.000000X1.500000*%
%ADD32R,5.500000X1.500000*%
%ADD33RoundRect,0.249999X-1.075001X0.450001X-1.075001X-0.450001X1.075001X-0.450001X1.075001X0.450001X0*%
%ADD34RoundRect,0.249999X-0.450001X-1.075001X0.450001X-1.075001X0.450001X1.075001X-0.450001X1.075001X0*%
%ADD35R,0.700000X0.340000*%
%ADD36R,2.514600X0.457200*%
%ADD37FreePoly0,180.000000*%
%ADD38RoundRect,0.062500X0.325000X0.062500X-0.325000X0.062500X-0.325000X-0.062500X0.325000X-0.062500X0*%
%ADD39RoundRect,0.062500X0.062500X0.325000X-0.062500X0.325000X-0.062500X-0.325000X0.062500X-0.325000X0*%
%ADD40R,0.650000X0.300000*%
%ADD41R,1.700000X2.500000*%
%ADD42RoundRect,0.249999X0.450001X1.075001X-0.450001X1.075001X-0.450001X-1.075001X0.450001X-1.075001X0*%
%ADD43RoundRect,0.250000X-0.315000X-0.315000X0.315000X-0.315000X0.315000X0.315000X-0.315000X0.315000X0*%
%ADD44RoundRect,0.062500X-0.375000X-0.062500X0.375000X-0.062500X0.375000X0.062500X-0.375000X0.062500X0*%
%ADD45RoundRect,0.062500X-0.062500X-0.375000X0.062500X-0.375000X0.062500X0.375000X-0.062500X0.375000X0*%
%ADD46R,0.700000X0.200000*%
%ADD47R,1.750000X1.750000*%
%ADD48R,1.500000X0.300000*%
%ADD49R,0.300000X1.500000*%
%ADD50R,1.560000X0.650000*%
G04 APERTURE END LIST*
D10*
%TO.C,J7*%
X175070000Y-108557500D03*
X182850000Y-108557500D03*
D11*
X187155000Y-107762500D03*
D12*
X173270000Y-107432500D03*
D13*
X173270000Y-98432500D03*
D11*
X172865000Y-96282500D03*
D14*
X187255000Y-96432500D03*
D15*
X175210000Y-95802500D03*
X176310000Y-95802500D03*
X177410000Y-95802500D03*
X178510000Y-95802500D03*
X179610000Y-95802500D03*
X180710000Y-95802500D03*
X181810000Y-95802500D03*
X182910000Y-95802500D03*
%TD*%
D16*
%TO.C,C18*%
X165845000Y-95550000D03*
X168795000Y-95550000D03*
%TD*%
D17*
%TO.C,C4*%
X137750000Y-81325000D03*
X137750000Y-84275000D03*
%TD*%
D18*
%TO.C,R11*%
X135787500Y-53650000D03*
X132862500Y-53650000D03*
%TD*%
D19*
%TO.C,R9*%
X132862500Y-48650000D03*
X135787500Y-48650000D03*
%TD*%
D20*
%TO.C,R12*%
X252200000Y-42737500D03*
X252200000Y-45662500D03*
%TD*%
D18*
%TO.C,R10*%
X135787500Y-58650000D03*
X132862500Y-58650000D03*
%TD*%
D21*
%TO.C,R20*%
X240000000Y-45862500D03*
X240000000Y-42937500D03*
%TD*%
D22*
%TO.C,L2*%
X143137500Y-58800000D03*
X138862500Y-58800000D03*
%TD*%
D23*
%TO.C,U2*%
X84090000Y-56987500D03*
X84090000Y-56037500D03*
X84090000Y-55087500D03*
X87510000Y-55087500D03*
X87510000Y-56987500D03*
%TD*%
D21*
%TO.C,R2*%
X136600000Y-99462500D03*
X136600000Y-96537500D03*
%TD*%
D20*
%TO.C,R21*%
X227000000Y-46737500D03*
X227000000Y-49662500D03*
%TD*%
D24*
%TO.C,D83*%
X96250000Y-77100000D03*
X92950000Y-77100000D03*
%TD*%
D16*
%TO.C,C6*%
X149800000Y-54000000D03*
X146850000Y-54000000D03*
%TD*%
%TO.C,C15*%
X118875000Y-74400000D03*
X115925000Y-74400000D03*
%TD*%
D25*
%TO.C,C1*%
X131800000Y-99275000D03*
X131800000Y-96325000D03*
%TD*%
D26*
%TO.C,C13*%
X84125000Y-59037500D03*
X87075000Y-59037500D03*
%TD*%
D27*
%TO.C,J1*%
X218075000Y-36965000D03*
X218725000Y-36965000D03*
X219375000Y-36965000D03*
X220025000Y-36965000D03*
X220675000Y-36965000D03*
D28*
X216645000Y-35015000D03*
D29*
X220335000Y-33815000D03*
D30*
X216425000Y-35765000D03*
D28*
X222125000Y-35015000D03*
D30*
X222375000Y-35765000D03*
D29*
X218415000Y-33815000D03*
D31*
X222275000Y-37085000D03*
X216525000Y-37065000D03*
%TD*%
D16*
%TO.C,C11*%
X135875000Y-43600000D03*
X132925000Y-43600000D03*
%TD*%
D21*
%TO.C,R4*%
X129200000Y-104462500D03*
X129200000Y-101537500D03*
%TD*%
D26*
%TO.C,C16*%
X84075000Y-67930952D03*
X87025000Y-67930952D03*
%TD*%
D32*
%TO.C,Y1*%
X109658334Y-78200000D03*
X118158334Y-78200000D03*
%TD*%
D33*
%TO.C,R15*%
X88400000Y-76200000D03*
X88400000Y-81000000D03*
%TD*%
D34*
%TO.C,R17*%
X127600000Y-67800000D03*
X132400000Y-67800000D03*
%TD*%
D21*
%TO.C,R18*%
X243600000Y-45862500D03*
X243600000Y-42937500D03*
%TD*%
D26*
%TO.C,C12*%
X84125000Y-53037500D03*
X87075000Y-53037500D03*
%TD*%
D17*
%TO.C,C3*%
X126800000Y-96400000D03*
X126800000Y-99350000D03*
%TD*%
D35*
%TO.C,Q1*%
X95750000Y-79300000D03*
X95750000Y-79800000D03*
X95750000Y-80300000D03*
X94250000Y-80300000D03*
X94250000Y-79800000D03*
X94250000Y-79300000D03*
%TD*%
D20*
%TO.C,R13*%
X107340000Y-98557500D03*
X107340000Y-101482500D03*
%TD*%
D36*
%TO.C,U6*%
X102654600Y-62332700D03*
X102654600Y-64872700D03*
X102654600Y-67412700D03*
X102654600Y-69952700D03*
X102654600Y-72492700D03*
X92545400Y-72492700D03*
X92545400Y-69952700D03*
X92545400Y-67412700D03*
X92545400Y-64872700D03*
X92545400Y-62332700D03*
%TD*%
D26*
%TO.C,C7*%
X146850000Y-49200000D03*
X149800000Y-49200000D03*
%TD*%
D22*
%TO.C,L1*%
X130737500Y-90000000D03*
X126462500Y-90000000D03*
%TD*%
D37*
%TO.C,U3*%
X135887500Y-90487500D03*
X134912500Y-89512500D03*
X134912500Y-90487500D03*
X135887500Y-89512500D03*
D38*
X137387500Y-88750000D03*
X137387500Y-89250000D03*
X137387500Y-89750000D03*
X137387500Y-90250000D03*
X137387500Y-90750000D03*
X137387500Y-91250000D03*
D39*
X136650000Y-91987500D03*
X136150000Y-91987500D03*
X135650000Y-91987500D03*
X135150000Y-91987500D03*
X134650000Y-91987500D03*
X134150000Y-91987500D03*
D38*
X133412500Y-91250000D03*
X133412500Y-90750000D03*
X133412500Y-90250000D03*
X133412500Y-89750000D03*
X133412500Y-89250000D03*
X133412500Y-88750000D03*
D39*
X134150000Y-88012500D03*
X134650000Y-88012500D03*
X135150000Y-88012500D03*
X135650000Y-88012500D03*
X136150000Y-88012500D03*
X136650000Y-88012500D03*
%TD*%
D40*
%TO.C,U4*%
X142500000Y-49550000D03*
X142500000Y-50050000D03*
X142500000Y-50550000D03*
X142500000Y-51050000D03*
X142500000Y-51550000D03*
X142500000Y-52050000D03*
X139550000Y-52050000D03*
X139550000Y-51550000D03*
X139550000Y-51050000D03*
X139550000Y-50550000D03*
X139550000Y-50050000D03*
X139550000Y-49550000D03*
D41*
X141000000Y-50800000D03*
%TD*%
D42*
%TO.C,R14*%
X116000000Y-82400000D03*
X111200000Y-82400000D03*
%TD*%
D43*
%TO.C,U9*%
X132700000Y-126500000D03*
X134100000Y-127900000D03*
X134100000Y-126500000D03*
X132700000Y-125100000D03*
X132700000Y-129300000D03*
X134100000Y-125100000D03*
X134100000Y-129300000D03*
X129900000Y-129300000D03*
X131300000Y-129300000D03*
X131300000Y-127900000D03*
X129900000Y-126500000D03*
X132700000Y-127900000D03*
X129900000Y-125100000D03*
X131300000Y-125100000D03*
X129900000Y-127900000D03*
X131300000Y-126500000D03*
D44*
X128562500Y-129950000D03*
X128562500Y-129450000D03*
X128562500Y-128950000D03*
X128562500Y-128450000D03*
X128562500Y-127950000D03*
X128562500Y-127450000D03*
X128562500Y-126950000D03*
X128562500Y-126450000D03*
X128562500Y-125950000D03*
X128562500Y-125450000D03*
X128562500Y-124950000D03*
X128562500Y-124450000D03*
D45*
X129250000Y-123762500D03*
X129750000Y-123762500D03*
X130250000Y-123762500D03*
X130750000Y-123762500D03*
X131250000Y-123762500D03*
X131750000Y-123762500D03*
X132250000Y-123762500D03*
X132750000Y-123762500D03*
X133250000Y-123762500D03*
X133750000Y-123762500D03*
X134250000Y-123762500D03*
X134750000Y-123762500D03*
D44*
X135437500Y-124450000D03*
X135437500Y-124950000D03*
X135437500Y-125450000D03*
X135437500Y-125950000D03*
X135437500Y-126450000D03*
X135437500Y-126950000D03*
X135437500Y-127450000D03*
X135437500Y-127950000D03*
X135437500Y-128450000D03*
X135437500Y-128950000D03*
X135437500Y-129450000D03*
X135437500Y-129950000D03*
D45*
X134750000Y-130637500D03*
X134250000Y-130637500D03*
X133750000Y-130637500D03*
X133250000Y-130637500D03*
X132750000Y-130637500D03*
X132250000Y-130637500D03*
X131750000Y-130637500D03*
X131250000Y-130637500D03*
X130750000Y-130637500D03*
X130250000Y-130637500D03*
X129750000Y-130637500D03*
X129250000Y-130637500D03*
%TD*%
D26*
%TO.C,C17*%
X84075000Y-61530952D03*
X87025000Y-61530952D03*
%TD*%
D16*
%TO.C,C14*%
X111075000Y-74000000D03*
X108125000Y-74000000D03*
%TD*%
D21*
%TO.C,R1*%
X139400000Y-104662500D03*
X139400000Y-101737500D03*
%TD*%
D46*
%TO.C,U1*%
X195100000Y-57900000D03*
X192020000Y-57900000D03*
X195100000Y-58300000D03*
X192020000Y-58300000D03*
X195100000Y-58700000D03*
X192020000Y-58700000D03*
X195100000Y-59100000D03*
X192020000Y-59100000D03*
X195100000Y-59500000D03*
X192020000Y-59500000D03*
X195100000Y-59900000D03*
X192020000Y-59900000D03*
X195100000Y-60300000D03*
X192020000Y-60300000D03*
X195100000Y-60700000D03*
X192020000Y-60700000D03*
X195100000Y-61100000D03*
X192020000Y-61100000D03*
X195100000Y-61500000D03*
X192020000Y-61500000D03*
X195100000Y-61900000D03*
X192020000Y-61900000D03*
X195100000Y-62300000D03*
X192020000Y-62300000D03*
X195100000Y-62700000D03*
X192020000Y-62700000D03*
X195100000Y-63100000D03*
X192020000Y-63100000D03*
X195100000Y-63500000D03*
X192020000Y-63500000D03*
X195100000Y-63900000D03*
X192020000Y-63900000D03*
X195100000Y-64300000D03*
X192020000Y-64300000D03*
X195100000Y-64700000D03*
X192020000Y-64700000D03*
X195100000Y-65100000D03*
X192020000Y-65100000D03*
X195100000Y-65500000D03*
X192020000Y-65500000D03*
X195100000Y-65900000D03*
X192020000Y-65900000D03*
X195100000Y-66300000D03*
X192020000Y-66300000D03*
X195100000Y-66700000D03*
X192020000Y-66700000D03*
X195100000Y-67100000D03*
X192020000Y-67100000D03*
X195100000Y-67500000D03*
X192020000Y-67500000D03*
X195100000Y-67900000D03*
X192020000Y-67900000D03*
X195100000Y-68300000D03*
X192020000Y-68300000D03*
X195100000Y-68700000D03*
X192020000Y-68700000D03*
X195100000Y-69100000D03*
X192020000Y-69100000D03*
X195100000Y-69500000D03*
X192020000Y-69500000D03*
X195100000Y-69900000D03*
X192020000Y-69900000D03*
X195100000Y-70300000D03*
X192020000Y-70300000D03*
X195100000Y-70700000D03*
X192020000Y-70700000D03*
X195100000Y-71100000D03*
X192020000Y-71100000D03*
X195100000Y-71500000D03*
X192020000Y-71500000D03*
X195100000Y-71900000D03*
X192020000Y-71900000D03*
X195100000Y-72300000D03*
X192020000Y-72300000D03*
X195100000Y-72700000D03*
X192020000Y-72700000D03*
X195100000Y-73100000D03*
X192020000Y-73100000D03*
X195100000Y-73500000D03*
X192020000Y-73500000D03*
X195100000Y-73900000D03*
X192020000Y-73900000D03*
X195100000Y-74300000D03*
X192020000Y-74300000D03*
X195100000Y-74700000D03*
X192020000Y-74700000D03*
X195100000Y-75100000D03*
X192020000Y-75100000D03*
X195100000Y-75500000D03*
X192020000Y-75500000D03*
X195100000Y-75900000D03*
X192020000Y-75900000D03*
X195100000Y-76300000D03*
X192020000Y-76300000D03*
X195100000Y-76700000D03*
X192020000Y-76700000D03*
X195100000Y-77100000D03*
X192020000Y-77100000D03*
X195100000Y-77500000D03*
X192020000Y-77500000D03*
X161180000Y-57900000D03*
X158100000Y-57900000D03*
X161180000Y-58300000D03*
X158100000Y-58300000D03*
X161180000Y-58700000D03*
X158100000Y-58700000D03*
X161180000Y-59100000D03*
X158100000Y-59100000D03*
X161180000Y-59500000D03*
X158100000Y-59500000D03*
X161180000Y-59900000D03*
X158100000Y-59900000D03*
X161180000Y-60300000D03*
X158100000Y-60300000D03*
X161180000Y-60700000D03*
X158100000Y-60700000D03*
X161180000Y-61100000D03*
X158100000Y-61100000D03*
X161180000Y-61500000D03*
X158100000Y-61500000D03*
X161180000Y-61900000D03*
X158100000Y-61900000D03*
X161180000Y-62300000D03*
X158100000Y-62300000D03*
X161180000Y-62700000D03*
X158100000Y-62700000D03*
X161180000Y-63100000D03*
X158100000Y-63100000D03*
X161180000Y-63500000D03*
X158100000Y-63500000D03*
X161180000Y-63900000D03*
X158100000Y-63900000D03*
X161180000Y-64300000D03*
X158100000Y-64300000D03*
X161180000Y-64700000D03*
X158100000Y-64700000D03*
X161180000Y-65100000D03*
X158100000Y-65100000D03*
X161180000Y-65500000D03*
X158100000Y-65500000D03*
X161180000Y-65900000D03*
X158100000Y-65900000D03*
X161180000Y-66300000D03*
X158100000Y-66300000D03*
X161180000Y-66700000D03*
X158100000Y-66700000D03*
X161180000Y-67100000D03*
X158100000Y-67100000D03*
X161180000Y-67500000D03*
X158100000Y-67500000D03*
X161180000Y-67900000D03*
X158100000Y-67900000D03*
X161180000Y-68300000D03*
X158100000Y-68300000D03*
X161180000Y-68700000D03*
X158100000Y-68700000D03*
X161180000Y-69100000D03*
X158100000Y-69100000D03*
X161180000Y-69500000D03*
X158100000Y-69500000D03*
X161180000Y-69900000D03*
X158100000Y-69900000D03*
X161180000Y-70300000D03*
X158100000Y-70300000D03*
X161180000Y-70700000D03*
X158100000Y-70700000D03*
X161180000Y-71100000D03*
X158100000Y-71100000D03*
X161180000Y-71500000D03*
X158100000Y-71500000D03*
X161180000Y-71900000D03*
X158100000Y-71900000D03*
X161180000Y-72300000D03*
X158100000Y-72300000D03*
X161180000Y-72700000D03*
X158100000Y-72700000D03*
X161180000Y-73100000D03*
X158100000Y-73100000D03*
X161180000Y-73500000D03*
X158100000Y-73500000D03*
X161180000Y-73900000D03*
X158100000Y-73900000D03*
X161180000Y-74300000D03*
X158100000Y-74300000D03*
X161180000Y-74700000D03*
X158100000Y-74700000D03*
X161180000Y-75100000D03*
X158100000Y-75100000D03*
X161180000Y-75500000D03*
X158100000Y-75500000D03*
X161180000Y-75900000D03*
X158100000Y-75900000D03*
X161180000Y-76300000D03*
X158100000Y-76300000D03*
X161180000Y-76700000D03*
X158100000Y-76700000D03*
X161180000Y-77100000D03*
X158100000Y-77100000D03*
X161180000Y-77500000D03*
X158100000Y-77500000D03*
%TD*%
D34*
%TO.C,R16*%
X127600000Y-72210000D03*
X132400000Y-72210000D03*
%TD*%
D19*
%TO.C,R19*%
X224737500Y-66400000D03*
X227662500Y-66400000D03*
%TD*%
D47*
%TO.C,U7*%
X112900000Y-65100000D03*
X112900000Y-62900000D03*
X115100000Y-65100000D03*
X115100000Y-62900000D03*
D48*
X119700000Y-60250000D03*
X119700000Y-60750000D03*
X119700000Y-61250000D03*
X119700000Y-61750000D03*
X119700000Y-62250000D03*
X119700000Y-62750000D03*
X119700000Y-63250000D03*
X119700000Y-63750000D03*
X119700000Y-64250000D03*
X119700000Y-64750000D03*
X119700000Y-65250000D03*
X119700000Y-65750000D03*
X119700000Y-66250000D03*
X119700000Y-66750000D03*
X119700000Y-67250000D03*
X119700000Y-67750000D03*
D49*
X117750000Y-69700000D03*
X117250000Y-69700000D03*
X116750000Y-69700000D03*
X116250000Y-69700000D03*
X115750000Y-69700000D03*
X115250000Y-69700000D03*
X114750000Y-69700000D03*
X114250000Y-69700000D03*
X113750000Y-69700000D03*
X113250000Y-69700000D03*
X112750000Y-69700000D03*
X112250000Y-69700000D03*
X111750000Y-69700000D03*
X111250000Y-69700000D03*
X110750000Y-69700000D03*
X110250000Y-69700000D03*
D48*
X108300000Y-67750000D03*
X108300000Y-67250000D03*
X108300000Y-66750000D03*
X108300000Y-66250000D03*
X108300000Y-65750000D03*
X108300000Y-65250000D03*
X108300000Y-64750000D03*
X108300000Y-64250000D03*
X108300000Y-63750000D03*
X108300000Y-63250000D03*
X108300000Y-62750000D03*
X108300000Y-62250000D03*
X108300000Y-61750000D03*
X108300000Y-61250000D03*
X108300000Y-60750000D03*
X108300000Y-60250000D03*
D49*
X110250000Y-58300000D03*
X110750000Y-58300000D03*
X111250000Y-58300000D03*
X111750000Y-58300000D03*
X112250000Y-58300000D03*
X112750000Y-58300000D03*
X113250000Y-58300000D03*
X113750000Y-58300000D03*
X114250000Y-58300000D03*
X114750000Y-58300000D03*
X115250000Y-58300000D03*
X115750000Y-58300000D03*
X116250000Y-58300000D03*
X116750000Y-58300000D03*
X117250000Y-58300000D03*
X117750000Y-58300000D03*
%TD*%
D18*
%TO.C,R3*%
X143062500Y-96000000D03*
X140137500Y-96000000D03*
%TD*%
D25*
%TO.C,C5*%
X127200000Y-84475000D03*
X127200000Y-81525000D03*
%TD*%
D16*
%TO.C,C10*%
X142675000Y-43600000D03*
X139725000Y-43600000D03*
%TD*%
D24*
%TO.C,D84*%
X99350000Y-77100000D03*
X102650000Y-77100000D03*
%TD*%
D20*
%TO.C,R7*%
X249000000Y-42737500D03*
X249000000Y-45662500D03*
%TD*%
D16*
%TO.C,C8*%
X149800000Y-59000000D03*
X146850000Y-59000000D03*
%TD*%
D26*
%TO.C,C9*%
X146725000Y-43600000D03*
X149675000Y-43600000D03*
%TD*%
D25*
%TO.C,C2*%
X132200000Y-84275000D03*
X132200000Y-81325000D03*
%TD*%
D50*
%TO.C,U8*%
X84200000Y-65680952D03*
X84200000Y-64730952D03*
X84200000Y-63780952D03*
X86900000Y-63780952D03*
X86900000Y-65680952D03*
%TD*%
D20*
%TO.C,R22*%
X224800000Y-46737500D03*
X224800000Y-49662500D03*
%TD*%
D18*
%TO.C,R5*%
X143662500Y-91200000D03*
X140737500Y-91200000D03*
%TD*%
D21*
%TO.C,R8*%
X134400000Y-104462500D03*
X134400000Y-101537500D03*
%TD*%
D19*
%TO.C,R6*%
X140737500Y-86600000D03*
X143662500Y-86600000D03*
%TD*%
M02*
